STARTFONT 2.1
FONT -ADECW-Sung-Medium-R-Normal--24-240-75-75-M-240-DEC.CNS11643.1986-2
SIZE 24 75 75
FONTBOUNDINGBOX 24 24 0 -6

STARTPROPERTIES 26
FONTNAME_REGISTRY ""
FAMILY_NAME "Sung"
FOUNDRY "ADECW"
WEIGHT_NAME "Medium"
SLANT "R"
SETWIDTH_NAME "Normal"
ADD_STYLE_NAME ""
PIXEL_SIZE 24
POINT_SIZE 240
RESOLUTION_X 75
RESOLUTION_Y 75
SPACING "M"
AVERAGE_WIDTH 240
CHARSET_REGISTRY "DEC.CNS11643.1986"
CHARSET_ENCODING "2"
DEVICE_FONT_NAME "Sung-DEC.CNS11643.1986-2"
CHARSET_COLLECTIONS "DEC.CNS11643.1986 2"
FULL_NAME "Sung DEC.CNS11643.1986 2"
COPYRIGHT "Copyright (c) 1990 Digital Equipment Corporation"
CAP_HEIGHT 18
X_HEIGHT 13
WEIGHT 10
QUAD_WIDTH 24
DEFAULT_CHAR 65021
FONT_DESCENT 6
FONT_ASCENT 18
ENDPROPERTIES

CHARS 13736

STARTCHAR A121
ENCODING 41249
SWIDTH 960 0
DWIDTH 24 0
BBX 24 24 0 -6
BITMAP
000000
0000C0
1800E0
1800C0
0C00C0
0C01C0
060180
060180
030300
030300
018300
018600
00C600
006C00
003C00
001C00
003E00
006700
00C3C0
0181F0
0300FE
0C007C
700038
000000
ENDCHAR

STARTCHAR A122
ENCODING 41250
SWIDTH 960 0
DWIDTH 24 0
BBX 24 24 0 -6
BITMAP
000000
060000
070000
060000
060000
060000
060030
0603F8
06FE30
7F8030
060030
060060
060060
060060
0600C0
0600C0
060080
060000
060004
060004
06000C
07FFFE
03FFFC
000000
ENDCHAR

STARTCHAR A123
ENCODING 41251
SWIDTH 960 0
DWIDTH 24 0
BBX 24 24 0 -6
BITMAP
000000
000000
30000C
38000E
30000C
30000C
30000C
30000C
30000C
30000C
30000C
30000C
30000C
30000C
30000C
30000C
30000C
30000C
30000C
30000C
30000C
3FFFFC
100008
000000
ENDCHAR

STARTCHAR A124
ENCODING 41252
SWIDTH 960 0
DWIDTH 24 0
BBX 24 24 0 -6
BITMAP
000000
000020
200070
3FFFF8
300000
300000
300000
300000
300000
300000
300000
300000
300000
300000
300000
300000
300000
300000
300000
300030
300078
3FFFFC
100000
000000
ENDCHAR

STARTCHAR A125
ENCODING 41253
SWIDTH 960 0
DWIDTH 24 0
BBX 24 24 0 -6
BITMAP
000000
000008
10001C
1FFFFE
180000
180000
180000
180000
180000
180000
180000
180000
180000
180000
180000
180000
180000
180000
180000
100000
300000
200000
400000
000000
ENDCHAR

STARTCHAR A126
ENCODING 41254
SWIDTH 960 0
DWIDTH 24 0
BBX 24 24 0 -6
BITMAP
000000
000008
00001C
7FFFFE
006000
006000
006000
006000
006030
007FF8
006030
006030
006030
00C030
00C030
008030
018030
018030
030070
0600E0
0C0FC0
180380
200300
000000
ENDCHAR

STARTCHAR A127
ENCODING 41255
SWIDTH 960 0
DWIDTH 24 0
BBX 24 24 0 -6
BITMAP
000000
000008
00001C
7FFFFE
018300
018300
018300
018300
018300
018300
018300
018300
018300
018300
018300
018300
018300
030300
030300
020300
060300
040300
080300
000000
ENDCHAR

STARTCHAR A128
ENCODING 41256
SWIDTH 960 0
DWIDTH 24 0
BBX 24 24 0 -6
BITMAP
000000
0003C0
000FE0
007F00
01F800
1FB000
003000
003000
003000
003008
00301C
7FFFFE
003000
003000
003000
003000
003000
003000
003004
003004
00300C
003FFE
001FFC
000000
ENDCHAR

STARTCHAR A129
ENCODING 41257
SWIDTH 960 0
DWIDTH 24 0
BBX 24 24 0 -6
BITMAP
000000
000020
000070
1FFFF8
000000
000000
000008
00001C
7FFFFE
001800
001800
001800
001800
001800
001800
001800
001800
001800
001800
001800
00F800
003800
003000
000000
ENDCHAR

STARTCHAR A12A
ENCODING 41258
SWIDTH 960 0
DWIDTH 24 0
BBX 24 24 0 -6
BITMAP
000000
20000C
3FFFFE
30000C
30000C
30000C
30000C
30000C
30000C
30000C
30000C
30000C
30000C
30000C
30000C
30000C
30000C
30000C
30000C
30000C
30000C
3FFFFC
100008
000000
ENDCHAR

STARTCHAR A12B
ENCODING 41259
SWIDTH 960 0
DWIDTH 24 0
BBX 24 24 0 -6
BITMAP
000000
001800
001C00
001800
30180C
38180E
30180C
30180C
30180C
30180C
30180C
30180C
30180C
3FFFFC
101808
001800
001800
001800
001800
001800
001800
001800
001800
000000
ENDCHAR

STARTCHAR A12C
ENCODING 41260
SWIDTH 960 0
DWIDTH 24 0
BBX 24 24 0 -6
BITMAP
000000
000200
000300
000700
000E00
001C00
003880
0060C0
00C1C0
018380
030700
040E00
001E00
003600
006600
00C600
018600
030600
0C0600
000600
000600
000600
000600
000000
ENDCHAR

STARTCHAR A12D
ENCODING 41261
SWIDTH 960 0
DWIDTH 24 0
BBX 24 24 0 -6
BITMAP
000000
00000C
7FFFFE
001800
001800
001800
18180C
1C1FFE
18180C
18180C
18180C
18180C
1FFFFC
08000C
00000C
00000C
00000C
00000C
00001C
000038
0003F0
0000E0
0000C0
000000
ENDCHAR

STARTCHAR A12E
ENCODING 41262
SWIDTH 960 0
DWIDTH 24 0
BBX 24 24 0 -6
BITMAP
000000
003000
003800
003000
003008
00601C
7FFFFE
00C000
01C000
0180C0
03FFE0
0780C0
0D80C0
1980C0
3180C0
4180C0
0180C0
0180C0
0180C0
0300C0
0307C0
0601C0
080180
000000
ENDCHAR

STARTCHAR A12F
ENCODING 41263
SWIDTH 960 0
DWIDTH 24 0
BBX 24 24 0 -6
BITMAP
000000
018000
01C000
018040
0180E0
01FFF0
018000
030000
030000
030018
07FFFC
060018
000018
000218
000718
3FFF98
000018
000030
000030
000070
0000E0
0007C0
000180
000000
ENDCHAR

STARTCHAR A130
ENCODING 41264
SWIDTH 960 0
DWIDTH 24 0
BBX 24 24 0 -6
BITMAP
000000
000600
7FFF00
030600
030600
030600
032600
1FF600
030600
030600
030600
032600
3FF600
030600
030600
030600
030600
030604
030604
03060C
0307FE
0303FC
030000
000000
ENDCHAR

STARTCHAR A131
ENCODING 41265
SWIDTH 960 0
DWIDTH 24 0
BBX 24 24 0 -6
BITMAP
000000
000080
0001C0
07FFE0
000000
000000
000008
00001C
7FFFFE
018300
018300
018300
018300
018300
018300
018300
018300
030300
030300
060300
060300
0C0300
300300
000000
ENDCHAR

STARTCHAR A132
ENCODING 41266
SWIDTH 960 0
DWIDTH 24 0
BBX 24 24 0 -6
BITMAP
000000
060600
070700
060600
060600
0C0600
0C060C
1DFFFE
1C060C
3C060C
2C060C
4C060C
0C060C
0C060C
0C060C
0C0C0C
0C0C0C
0C180C
0C180C
0C301C
0C60FC
0CC038
0D0030
000000
ENDCHAR

STARTCHAR A133
ENCODING 41267
SWIDTH 960 0
DWIDTH 24 0
BBX 24 24 0 -6
BITMAP
000000
060000
0710C0
061FE0
0618C0
0C18C0
0C18C0
1C18C0
1C18C0
3C18C0
2C18C0
4C18C0
0C18C0
0C18C0
0C18C0
0C18C0
0C30C0
0C30C0
0C30C4
0C30C4
0C60CC
0CC0FE
0D007C
000000
ENDCHAR

STARTCHAR A134
ENCODING 41268
SWIDTH 960 0
DWIDTH 24 0
BBX 24 24 0 -6
BITMAP
000000
060000
070600
060300
060100
0C3100
0C3900
1C3180
1C3180
3C3180
2C3180
4C3180
0C30C0
0C60C0
0C60C0
0C6060
0C6060
0C6060
0CC030
0CC038
0D801C
0D000E
0E0004
000000
ENDCHAR

STARTCHAR A135
ENCODING 41269
SWIDTH 960 0
DWIDTH 24 0
BBX 24 24 0 -6
BITMAP
000000
001800
001C00
001800
001800
101818
1FFFFC
30181E
701830
601860
001C00
003E00
003C00
006C00
006C00
00CC00
018C00
018C00
030C04
060C04
0C0C0C
180FFE
7007FC
000000
ENDCHAR

STARTCHAR A136
ENCODING 41270
SWIDTH 960 0
DWIDTH 24 0
BBX 24 24 0 -6
BITMAP
000000
030000
038000
030000
070000
06000C
0FFFFE
0C000C
19800C
11C00C
21980C
4FFC0C
01980C
01980C
01980C
01988C
03188C
03198C
061FCC
080F9C
000038
0003F0
0000E0
000000
ENDCHAR

STARTCHAR A137
ENCODING 41271
SWIDTH 960 0
DWIDTH 24 0
BBX 24 24 0 -6
BITMAP
000000
00C000
01E80C
278FFE
3C0C0C
300C0C
300C0C
300C0C
300C0C
300C0C
300C0C
300C0C
306C0C
30CC0C
338C0C
3F0C7C
3E0C1C
3C0C18
180C00
000C00
000C00
000C00
000C00
000000
ENDCHAR

STARTCHAR A138
ENCODING 41272
SWIDTH 960 0
DWIDTH 24 0
BBX 24 24 0 -6
BITMAP
000000
018000
01C000
018000
018300
7FFF80
018300
018300
018300
030300
030304
060304
0C030C
1803FE
6041FC
00E000
018000
030200
060180
0C00E0
1FFFF0
3FF070
1E0030
000000
ENDCHAR

STARTCHAR A139
ENCODING 41273
SWIDTH 960 0
DWIDTH 24 0
BBX 24 24 0 -6
BITMAP
000000
061800
071C00
061800
061800
061800
061800
069800
3FD800
061800
061800
061800
061800
061800
061800
061800
061800
07F800
7F1804
7C1804
30180C
001FFE
000FFC
000000
ENDCHAR

STARTCHAR A13A
ENCODING 41274
SWIDTH 960 0
DWIDTH 24 0
BBX 24 24 0 -6
BITMAP
000000
000180
3FFFC0
000180
000180
000180
060180
070300
06130C
0FFBFE
0C1D0C
18180C
38300C
66300C
01E00C
00C00C
01F00C
03380C
061C0C
180C1C
600038
0003F0
0000E0
000000
ENDCHAR

STARTCHAR A13B
ENCODING 41275
SWIDTH 960 0
DWIDTH 24 0
BBX 24 24 0 -6
BITMAP
000000
003000
003800
003000
003000
0030C0
0FFFE0
0030C0
0030C0
0030C0
0030C0
0030C0
0030CC
7FFFFE
003000
007200
006180
00C0C0
018060
030070
060038
18001C
60000C
000000
ENDCHAR

STARTCHAR A13C
ENCODING 41276
SWIDTH 960 0
DWIDTH 24 0
BBX 24 24 0 -6
BITMAP
000000
001800
001C00
001800
001800
041840
061830
0E1818
0C181C
18180E
301806
601806
001800
001800
071800
01D800
006000
003800
001C00
000F00
0007C0
0003FC
0000F0
000000
ENDCHAR

STARTCHAR A13D
ENCODING 41277
SWIDTH 960 0
DWIDTH 24 0
BBX 24 24 0 -6
BITMAP
000000
001800
001C00
001808
00180C
7FFFFE
001800
001800
101818
1FFFFC
181818
181818
181818
181818
181818
181818
181818
1818F8
181838
181830
001800
001800
001800
000000
ENDCHAR

STARTCHAR A13E
ENCODING 41278
SWIDTH 960 0
DWIDTH 24 0
BBX 24 24 0 -6
BITMAP
000000
000020
000070
3FFFF8
0C1800
0C1800
0C1800
0C1800
181800
181808
18181C
1FFFFE
083600
003600
006600
006600
00C600
00C600
018604
030604
06060C
0C07FE
7003FC
000000
ENDCHAR

STARTCHAR A13F
ENCODING 41279
SWIDTH 960 0
DWIDTH 24 0
BBX 24 24 0 -6
BITMAP
000000
010180
01FFC0
018180
018180
018180
018180
030180
0601FE
0C00FC
700000
0000C0
07FFE0
0201C0
010180
018300
00C600
006C00
003800
003E00
006780
0383FE
7C01F8
000000
ENDCHAR

STARTCHAR A140
ENCODING 41280
SWIDTH 960 0
DWIDTH 24 0
BBX 24 24 0 -6
BITMAP
000000
080030
0FFFF8
0C1830
0C1830
0C1830
0C1830
0C1830
0C1830
0C1830
0C1830
0C1834
7FFFFE
183060
183060
183060
183060
183060
183060
183060
183060
1FFFE0
080040
000000
ENDCHAR

STARTCHAR A141
ENCODING 41281
SWIDTH 960 0
DWIDTH 24 0
BBX 24 24 0 -6
BITMAP
000000
030000
038020
030070
07FFF8
0C0000
1800C0
37FFE0
400000
0000C0
0FFFE0
0000C0
0000C0
0000C0
0000C0
0000C0
000060
000060
000064
000034
00003C
00001E
00000C
000000
ENDCHAR

STARTCHAR A142
ENCODING 41282
SWIDTH 960 0
DWIDTH 24 0
BBX 24 24 0 -6
BITMAP
000000
0300C0
0380E0
0180E0
0180C0
0180C0
01FFC0
0000C0
0000C0
0000C0
0000C0
0000C0
03FFC0
0300C0
0300C0
0300C0
0600C0
0600C0
0600C0
0600C0
0C00C0
0C00C0
3000C0
000000
ENDCHAR

STARTCHAR A143
ENCODING 41283
SWIDTH 960 0
DWIDTH 24 0
BBX 24 24 0 -6
BITMAP
000000
006300
007380
006300
18630C
1C630E
18630C
18630C
18630C
18630C
18630C
18630C
18630C
1FE3FC
086308
006300
00C300
00C300
018300
018300
030300
060300
180300
000000
ENDCHAR

STARTCHAR A144
ENCODING 41284
SWIDTH 960 0
DWIDTH 24 0
BBX 24 24 0 -6
BITMAP
000000
018180
01C1C0
018180
018180
018198
3FFFFC
018180
01A180
019980
018D80
018D80
018188
01819C
7FFFFE
018180
018180
030180
030180
060180
0C0180
180180
600180
000000
ENDCHAR

STARTCHAR A145
ENCODING 41285
SWIDTH 960 0
DWIDTH 24 0
BBX 24 24 0 -6
BITMAP
000000
060010
070038
067FFC
060000
0C0000
0C0000
1C0000
1C0000
3C0000
2C0000
4C0030
0C3FF8
0C0000
0C0000
0C0000
0C0000
0C0000
0C0000
0C0008
0C001C
0CFFFE
0C0000
000000
ENDCHAR

STARTCHAR A146
ENCODING 41286
SWIDTH 960 0
DWIDTH 24 0
BBX 24 24 0 -6
BITMAP
000000
060000
070010
060038
06FFFC
0C0300
0C0300
1C0300
1C0300
3C0300
2C0300
4C0300
0C0300
0C0300
0C0300
0C0300
0C0300
0C0300
0C0300
0C0308
0C031C
0DFFFE
0C0000
000000
ENDCHAR

STARTCHAR A147
ENCODING 41287
SWIDTH 960 0
DWIDTH 24 0
BBX 24 24 0 -6
BITMAP
000000
060600
070700
060600
060600
0C0600
0C0600
1C0610
1C0638
3C07FC
2C0600
4C0600
0C0600
0C0600
0C0600
0C0600
0C0600
0C0600
0C0600
0C0600
0C0608
0C061C
0DFFFE
000000
ENDCHAR

STARTCHAR A148
ENCODING 41288
SWIDTH 960 0
DWIDTH 24 0
BBX 24 24 0 -6
BITMAP
000000
061800
071C00
061808
06181C
0C3FFE
0C6000
1CC000
1D0010
3C7FF8
2C0038
4C0060
0C00C0
0C0180
0C0300
0C0600
0C0C00
0C1800
0C3004
0C6004
0CC00C
0CFFFE
0C7FFC
000000
ENDCHAR

STARTCHAR A149
ENCODING 41289
SWIDTH 960 0
DWIDTH 24 0
BBX 24 24 0 -6
BITMAP
000000
003000
003800
007800
006C00
00C600
018300
030180
0600C0
0C0070
18003E
60019C
03FFC0
001800
001800
001800
001800
001800
001800
001800
001820
001870
1FFFF8
000000
ENDCHAR

STARTCHAR A14A
ENCODING 41290
SWIDTH 960 0
DWIDTH 24 0
BBX 24 24 0 -6
BITMAP
000000
003000
003800
007800
006C00
00C600
018300
030180
0600C0
0C0070
18183E
601C1C
001800
001800
0C1830
0E1838
0C1830
0C1830
0C1830
0C1830
0C1830
0FFFF0
040020
000000
ENDCHAR

STARTCHAR A14B
ENCODING 41291
SWIDTH 960 0
DWIDTH 24 0
BBX 24 24 0 -6
BITMAP
000000
00C00C
00E00E
00C18C
00C1CC
00C18C
00C98C
7FFD8C
00C18C
00C18C
20C18C
18C18C
0CC18C
0CC18C
00C18C
00C18C
00C18C
00C18C
00C00C
00C00C
07C07C
01C01C
018018
000000
ENDCHAR

STARTCHAR A14C
ENCODING 41292
SWIDTH 960 0
DWIDTH 24 0
BBX 24 24 0 -6
BITMAP
000000
0C000C
0E000E
0C018C
1801CC
18318C
3FF98C
20018C
40018C
00418C
3FE18C
00718C
00C18C
01818C
03018C
06018C
0C018C
18098C
30080C
60180C
7FFC7C
3FF81C
000018
000000
ENDCHAR

STARTCHAR A14D
ENCODING 41293
SWIDTH 960 0
DWIDTH 24 0
BBX 24 24 0 -6
BITMAP
000000
000010
400038
7FFFFC
601800
631C00
639800
6318C0
6319E0
631FC0
63F8C0
7F98C0
631980
631980
631900
631820
631820
630060
63FFF0
61FFE0
60000C
7FFFFE
200000
000000
ENDCHAR

STARTCHAR A14E
ENCODING 41294
SWIDTH 960 0
DWIDTH 24 0
BBX 24 24 0 -6
BITMAP
000000
066660
077770
066660
066660
066660
066660
066660
066660
06666C
7FFFFE
066660
066660
066660
066660
066660
066660
066660
066660
0C6660
186660
306660
406660
000000
ENDCHAR

STARTCHAR A14F
ENCODING 41295
SWIDTH 960 0
DWIDTH 24 0
BBX 24 24 0 -6
BITMAP
000000
060000
070008
06001C
067FFE
060180
060180
068180
3FC180
060180
060180
060180
060180
060180
060180
060180
060180
07E180
7F0180
7C0180
300F80
000380
000300
000000
ENDCHAR

STARTCHAR A150
ENCODING 41296
SWIDTH 960 0
DWIDTH 24 0
BBX 24 24 0 -6
BITMAP
000000
000080
0FFFC0
0401E0
0401C0
020380
030380
018700
00C600
006C00
003800
007E00
00E780
0399F0
0E1C7E
70181C
0018C0
07FFE0
001800
001800
001808
00181C
7FFFFE
000000
ENDCHAR

STARTCHAR A151
ENCODING 41297
SWIDTH 960 0
DWIDTH 24 0
BBX 24 24 0 -6
BITMAP
000000
0C0000
0E0000
0C0418
0C67FC
0FF618
0C6618
1C6618
186618
186618
3E6618
236618
41E618
00C618
00C6F8
00C630
018600
018600
030604
060604
0C060C
1807FE
6003FC
000000
ENDCHAR

STARTCHAR A152
ENCODING 41298
SWIDTH 960 0
DWIDTH 24 0
BBX 24 24 0 -6
BITMAP
000000
001800
001C00
001808
00381C
7FFFFE
006600
00C300
019980
031CC0
061860
0C1838
1FFFFE
60186C
001860
003060
003060
006060
00C060
0180E0
0301C0
061F80
180700
000000
ENDCHAR

STARTCHAR A153
ENCODING 41299
SWIDTH 960 0
DWIDTH 24 0
BBX 24 24 0 -6
BITMAP
000000
006000
003800
001C00
100C08
1FFFFC
30001E
700030
600040
0000E0
0FFFF0
001800
001800
001800
001800
001800
001800
001800
001800
001800
00F800
003800
003000
000000
ENDCHAR

STARTCHAR A154
ENCODING 41300
SWIDTH 960 0
DWIDTH 24 0
BBX 24 24 0 -6
BITMAP
000000
006000
003800
001C00
100C08
1FFFFC
30001E
700030
60C000
00E000
00C000
00C300
1FFF80
00C300
00C300
00C300
018300
018300
030304
060304
0C030C
1803FE
3001FC
000000
ENDCHAR

STARTCHAR A155
ENCODING 41301
SWIDTH 960 0
DWIDTH 24 0
BBX 24 24 0 -6
BITMAP
000000
001800
001C00
001800
003C00
006600
00C300
018180
0300C0
061860
0C1C38
18181E
60180C
011900
0398C0
071870
0E1838
18181C
30180C
40180C
00F800
003800
003000
000000
ENDCHAR

STARTCHAR A156
ENCODING 41302
SWIDTH 960 0
DWIDTH 24 0
BBX 24 24 0 -6
BITMAP
000000
10000C
1FFFFE
18000C
18000C
18000C
18000C
1FFFFC
183008
183800
183000
183180
1BFFC0
183180
183180
183180
183180
186180
186184
10C184
31818C
2301FE
4600FC
000000
ENDCHAR

STARTCHAR A157
ENCODING 41303
SWIDTH 960 0
DWIDTH 24 0
BBX 24 24 0 -6
BITMAP
000000
001800
181C18
1C181C
181818
181818
181818
181818
1FFFF8
081810
001C00
001800
00180C
1FFFFE
00180C
00180C
00300C
00300C
00600C
00C01C
018038
0303F0
1C00E0
000000
ENDCHAR

STARTCHAR A158
ENCODING 41304
SWIDTH 960 0
DWIDTH 24 0
BBX 24 24 0 -6
BITMAP
000000
003000
001800
001800
003C00
006600
00C300
0181C0
0300F0
06007E
18183C
601C18
001800
181818
1C181C
181818
181818
181818
181818
181818
181818
1FFFF8
080010
000000
ENDCHAR

STARTCHAR A159
ENCODING 41305
SWIDTH 960 0
DWIDTH 24 0
BBX 24 24 0 -6
BITMAP
000000
060000
070008
06001C
061FFE
4660C0
7FF0C0
6660C0
6660C0
6660C0
6660C0
6660C0
6660C0
6660C0
6660C0
6660C0
67E0C0
66C0C0
0600C0
0600C0
060FC0
0601C0
060180
000000
ENDCHAR

STARTCHAR A15A
ENCODING 41306
SWIDTH 960 0
DWIDTH 24 0
BBX 24 24 0 -6
BITMAP
000000
003800
001C08
100C1C
1FFFFE
180000
180000
18C000
18E000
18C060
18C070
18C0E0
18C1C0
18C300
18CC00
18F000
18C000
18C000
18C008
10C008
30C018
20FFFC
407FF8
000000
ENDCHAR

STARTCHAR A15B
ENCODING 41307
SWIDTH 960 0
DWIDTH 24 0
BBX 24 24 0 -6
BITMAP
000000
003800
001C08
100C1C
1FFFFE
180000
180C00
180E00
180C00
180C00
180C00
180C00
180C00
180E00
181A00
181A00
183300
186180
18C0C0
118060
330038
26001E
58000C
000000
ENDCHAR

STARTCHAR A15C
ENCODING 41308
SWIDTH 960 0
DWIDTH 24 0
BBX 24 24 0 -6
BITMAP
000000
0C000C
0E7FFE
0C060C
0C060C
0C060C
0C060C
2F060C
2D860C
2D860C
6C860C
6C060C
0C060C
0C060C
0C060C
0C060C
0C0C0C
0C0C0C
0C180C
0C180C
0C301C
0C61F8
0D8070
000000
ENDCHAR

STARTCHAR A15D
ENCODING 41309
SWIDTH 960 0
DWIDTH 24 0
BBX 24 24 0 -6
BITMAP
000000
001980
001CE0
001860
001808
20181C
3FFFFE
300C00
300C00
300C00
300C30
300638
300630
300660
300360
3003C0
300380
30C380
3387C4
3E0CE4
3C187C
38303E
10C01C
000000
ENDCHAR

STARTCHAR A15E
ENCODING 41310
SWIDTH 960 0
DWIDTH 24 0
BBX 24 24 0 -6
BITMAP
000000
060300
070380
060300
060300
06430C
7FFFFE
06030C
06030C
06430C
06830C
07030C
0E030C
7E030C
76030C
26060C
06060C
06060C
060C0C
060C1C
3E18FC
0E3038
0CC030
000000
ENDCHAR

STARTCHAR A15F
ENCODING 41311
SWIDTH 960 0
DWIDTH 24 0
BBX 24 24 0 -6
BITMAP
000000
030000
038020
060070
07FFF8
0C0000
1800C0
37FFE0
400000
0000C0
0FFFE0
0000C0
0000C0
0030C0
0038C0
0030C0
003060
003060
006064
006034
00C03C
01801E
1E000C
000000
ENDCHAR

STARTCHAR A160
ENCODING 41312
SWIDTH 960 0
DWIDTH 24 0
BBX 24 24 0 -6
BITMAP
000000
0000C0
0FFFE0
0001C0
000180
000300
000600
001800
001818
00983C
7FD870
00F9C0
00DE00
00DE00
019B00
031980
0618E0
0C1878
18183E
60181C
00F800
003800
003000
000000
ENDCHAR

STARTCHAR A161
ENCODING 41313
SWIDTH 960 0
DWIDTH 24 0
BBX 24 24 0 -6
BITMAP
000000
000600
100300
0C0300
0E0300
060300
003300
403B00
303180
383180
183180
023180
023180
0460C0
0460C0
0C60C0
186060
786060
386060
1C6030
0CC038
0D801E
03000C
000000
ENDCHAR

STARTCHAR A162
ENCODING 41314
SWIDTH 960 0
DWIDTH 24 0
BBX 24 24 0 -6
BITMAP
000000
001800
101C00
0C1800
0E1800
061800
0018C0
41FFE0
3018C0
3818C0
1818C0
0218C0
0218C0
0418C0
0418C0
0C18C0
1830C0
7830C0
3830C4
1C60C4
0C60CC
0CC0FE
03007C
000000
ENDCHAR

STARTCHAR A163
ENCODING 41315
SWIDTH 960 0
DWIDTH 24 0
BBX 24 24 0 -6
BITMAP
000000
000600
100700
0C0600
0E0600
060600
00060C
40FFFE
30060C
38060C
18060C
02060C
02060C
04060C
04060C
0C0C0C
180C0C
780C0C
38180C
1C180C
0C301C
0C60F8
018030
000000
ENDCHAR

STARTCHAR A164
ENCODING 41316
SWIDTH 960 0
DWIDTH 24 0
BBX 24 24 0 -6
BITMAP
000000
001800
001CC0
001860
001820
001800
001808
00181C
7FFFFE
001800
001800
001800
001800
003C30
003C38
006660
0066C0
00C380
01C3C0
0386E0
060C78
1C183E
60600C
000000
ENDCHAR

STARTCHAR A165
ENCODING 41317
SWIDTH 960 0
DWIDTH 24 0
BBX 24 24 0 -6
BITMAP
000000
010600
41C700
338600
1B0600
0E0660
0C3FF0
1E0660
330660
430660
038660
078660
0D8660
0D8660
198660
198C60
318C60
418C64
019864
031864
07306C
1E207E
0C403C
000000
ENDCHAR

STARTCHAR A166
ENCODING 41318
SWIDTH 960 0
DWIDTH 24 0
BBX 24 24 0 -6
BITMAP
000000
000010
000038
1FFFFC
001800
001800
001980
0018E0
001860
001800
001830
0FFFF8
001800
001800
001800
001800
001800
001800
001800
001818
00183C
7FFFFE
000000
000000
ENDCHAR

STARTCHAR A167
ENCODING 41319
SWIDTH 960 0
DWIDTH 24 0
BBX 24 24 0 -6
BITMAP
000000
003000
003800
003000
183000
183018
7FFFFC
183018
183018
183018
183018
183318
183198
1831D8
1BFED8
19E0D8
1900D8
180018
180018
180038
1801F0
180070
180060
000000
ENDCHAR

STARTCHAR A168
ENCODING 41320
SWIDTH 960 0
DWIDTH 24 0
BBX 24 24 0 -6
BITMAP
000000
000000
108000
1FC008
18CFFC
18C038
18C070
1CC060
1EC0C0
1BC0C0
19C180
18C180
19C300
1BC300
1EC600
1CC600
18CC04
18CC04
18D804
10D80C
33DFFE
20CFFC
408000
000000
ENDCHAR

STARTCHAR A169
ENCODING 41321
SWIDTH 960 0
DWIDTH 24 0
BBX 24 24 0 -6
BITMAP
000000
410300
7F8380
638300
630300
66030C
643FFE
68030C
64030C
62030C
63060C
61860C
61860C
618618
638C18
6F0C18
660C18
601818
601830
603070
6063E0
60C0C0
610080
000000
ENDCHAR

STARTCHAR A16A
ENCODING 41322
SWIDTH 960 0
DWIDTH 24 0
BBX 24 24 0 -6
BITMAP
000000
060300
070380
060300
060308
0C031C
0DFFFE
1C0300
1C0300
3C0300
2C0310
4CFFF8
0C201C
0C2018
0C1030
0C1860
0C0CC0
0C0780
0C0300
0C07C0
0C0CF0
0C307E
0DC03C
000000
ENDCHAR

STARTCHAR A16B
ENCODING 41323
SWIDTH 960 0
DWIDTH 24 0
BBX 24 24 0 -6
BITMAP
000000
060600
070760
060630
060630
0C0600
0C0608
1C061C
1DFFFE
3C0600
2C0600
4C0600
0C0600
0C0600
0C0F00
0C0F00
0C1B00
0C1B00
0C3304
0C3304
0C630C
0CC3FE
0F01FC
000000
ENDCHAR

STARTCHAR A16C
ENCODING 41324
SWIDTH 960 0
DWIDTH 24 0
BBX 24 24 0 -6
BITMAP
000000
062030
073FF8
063030
063030
0C3030
0C3030
1C3030
1C3FF0
3C3020
2C3800
4C3400
0C3200
0C3300
0C3100
0C6180
0C60C0
0C60E0
0CC070
0CC078
0C803E
0D001C
0E0008
000000
ENDCHAR

STARTCHAR A16D
ENCODING 41325
SWIDTH 960 0
DWIDTH 24 0
BBX 24 24 0 -6
BITMAP
000000
063000
073800
063020
066070
0C7FF8
0CC300
1C8300
1D0300
3C0300
2C0308
4C031C
0DFFFE
0C0300
0C0300
0C0300
0C0300
0C0300
0C0300
0C0300
0C0300
0C0300
0C0300
000000
ENDCHAR

STARTCHAR A16E
ENCODING 41326
SWIDTH 960 0
DWIDTH 24 0
BBX 24 24 0 -6
BITMAP
000000
060000
072008
063FFC
06601E
0CE030
0CC000
1C18C0
1C1CE0
3C18C0
2C18C0
4C18C0
0C18C0
0C18C0
0C18C0
0C18C0
0C18C0
0C18C0
0C18C4
0C38C4
0C30CC
0C60FE
0D807C
000000
ENDCHAR

STARTCHAR A16F
ENCODING 41327
SWIDTH 960 0
DWIDTH 24 0
BBX 24 24 0 -6
BITMAP
000000
060600
070700
060E00
060F00
0C1980
0C30E0
1C6070
1CC038
3D805E
2F7FEC
4C0000
0C0000
0C0020
0CFFF0
0C0038
0C0030
0C0060
0C0060
0C00C0
0C0180
0C0100
0C0200
000000
ENDCHAR

STARTCHAR A170
ENCODING 41328
SWIDTH 960 0
DWIDTH 24 0
BBX 24 24 0 -6
BITMAP
000000
060180
0700C0
0618C0
061CC0
0C1860
0C3060
1C3060
1C6030
3C6038
2CC61E
4D070C
0C0600
0C0C00
0C0C00
0C1800
0C1840
0C3030
0C3038
0C601C
0CFFFC
0C7F1C
0C380C
000000
ENDCHAR

STARTCHAR A171
ENCODING 41329
SWIDTH 960 0
DWIDTH 24 0
BBX 24 24 0 -6
BITMAP
000000
060600
070700
060E00
060F00
0C1980
0C30C0
1C3060
1C6038
3CC01E
2D18CC
4C1CE0
0C18C0
0C18C0
0C18C0
0C18C0
0C18C0
0C18C0
0C18C0
0C38C0
0C30C0
0C60C0
0D80C0
000000
ENDCHAR

STARTCHAR A172
ENCODING 41330
SWIDTH 960 0
DWIDTH 24 0
BBX 24 24 0 -6
BITMAP
000000
060000
070300
0600C0
061860
0C1C60
0C1800
1C1800
1C1800
3C5800
2C5810
4C580C
0C580C
0CD806
0CD806
0CD806
0DD800
0D9800
0D9808
0C1808
0C1818
0C1FFC
0C0FF8
000000
ENDCHAR

STARTCHAR A173
ENCODING 41331
SWIDTH 960 0
DWIDTH 24 0
BBX 24 24 0 -6
BITMAP
000000
060000
070010
060038
067FFC
0C0000
0C0000
1C0000
1C0008
3C001C
2CFFFE
4C0600
0C0700
0C0E00
0C0C00
0C1800
0C3000
0C3020
0C6018
0CC00C
0DFFFE
0CFE0E
0C7006
000000
ENDCHAR

STARTCHAR A174
ENCODING 41332
SWIDTH 960 0
DWIDTH 24 0
BBX 24 24 0 -6
BITMAP
000000
060300
070380
060300
06030C
0DFFFE
0C0300
1C0300
1C830C
3CFFFE
2CC30C
4CC30C
0CC30C
0CC30C
0CC30C
0CC30C
0CC37C
0CC31C
0CC318
0C0300
0C0300
0C0300
0C0300
000000
ENDCHAR

STARTCHAR A175
ENCODING 41333
SWIDTH 960 0
DWIDTH 24 0
BBX 24 24 0 -6
BITMAP
000000
060300
070380
060300
06030C
0DFFFE
0C0300
1C0300
1CC30C
3CE30E
2CC30C
4CC30C
0CC30C
0CC30C
0CC30C
0CFFFC
0C4308
0C0300
0C0304
0C0304
0C030C
0C03FE
0C01FC
000000
ENDCHAR

STARTCHAR A176
ENCODING 41334
SWIDTH 960 0
DWIDTH 24 0
BBX 24 24 0 -6
BITMAP
000000
060010
070038
06FFFC
0630C0
0C30C0
0C30C0
1C60C0
1C60C0
3C60CC
2C7FFE
4C20C0
0C01C0
0C01C0
0C03C0
0C06C0
0C0CC0
0C18C0
0C30C0
0C60C0
0D87C0
0C01C0
0C0180
000000
ENDCHAR

STARTCHAR A177
ENCODING 41335
SWIDTH 960 0
DWIDTH 24 0
BBX 24 24 0 -6
BITMAP
000000
060008
07001C
06FFFE
060380
0C0380
0C0300
1C0700
1C0700
3C0700
2C0F60
4C0F30
0C1B18
0C331C
0C630E
0CC30E
0F0306
0C0300
0C0300
0C0300
0C0300
0C0300
0C0300
000000
ENDCHAR

STARTCHAR A178
ENCODING 41336
SWIDTH 960 0
DWIDTH 24 0
BBX 24 24 0 -6
BITMAP
000000
060018
07FFFC
060618
060618
0C0618
0D0618
1DFFF8
1D8610
3D8600
2D8600
4D860C
0DFFFE
0C860C
0C060C
0C060C
0C061C
0C06FC
0C0638
0C0630
0C0600
0C0600
0C0600
000000
ENDCHAR

STARTCHAR A179
ENCODING 41337
SWIDTH 960 0
DWIDTH 24 0
BBX 24 24 0 -6
BITMAP
000000
06100C
071FFE
06180C
06180C
0C180C
0C180C
1C180C
1C1FFC
3C180C
2C180C
4C180C
0C180C
0C180C
0C1FFC
0C180C
0C180C
0C180C
0C180C
0C300C
0C307C
0C601C
0D8018
000000
ENDCHAR

STARTCHAR A17A
ENCODING 41338
SWIDTH 960 0
DWIDTH 24 0
BBX 24 24 0 -6
BITMAP
000000
0600E0
0703F0
064F80
067C00
0C6000
0C6008
1C601C
1C7FFE
3C60C0
2C60C0
4C60C0
0C60C0
0C60C0
0C60C0
0C60C0
0C60C0
0C60C0
0C60C0
0C60C0
0CC0C0
0D80C0
0E00C0
000000
ENDCHAR

STARTCHAR A17B
ENCODING 41339
SWIDTH 960 0
DWIDTH 24 0
BBX 24 24 0 -6
BITMAP
000000
000018
41FFFC
303000
383000
183000
003000
006060
007FF0
006060
046060
046060
0CC0C0
08C0C0
18C0C0
18C0C0
30FFC0
7040C0
300180
380180
380188
18019C
03FFFE
000000
ENDCHAR

STARTCHAR A17C
ENCODING 41340
SWIDTH 960 0
DWIDTH 24 0
BBX 24 24 0 -6
BITMAP
000000
00000C
00400E
00E18C
3FF1CC
00018C
00018C
00118C
00398C
7FFD8C
0CC18C
0CC18C
0CC18C
0CC18C
0CC18C
0CC18C
18C18C
18C18C
18C00C
30C40C
30F87C
20F01C
406018
000000
ENDCHAR

STARTCHAR A17D
ENCODING 41341
SWIDTH 960 0
DWIDTH 24 0
BBX 24 24 0 -6
BITMAP
000000
10180C
1FFC0E
18198C
1819CC
1B198C
19998C
18D98C
18D98C
18198C
18198C
7FFF8C
18198C
18198C
18198C
18198C
18198C
18198C
18180C
10180C
30F87C
20381C
403018
000000
ENDCHAR

STARTCHAR A17E
ENCODING 41342
SWIDTH 960 0
DWIDTH 24 0
BBX 24 24 0 -6
BITMAP
000000
003000
003800
003060
0FFFF0
003060
003060
006060
00C060
0180E0
030FC0
0E0380
070180
0601C0
06318C
7FFFFE
06318C
06318C
06318C
0C330C
0C731C
1BE6F8
60D830
000000
ENDCHAR

STARTCHAR A1A1
ENCODING 41377
SWIDTH 960 0
DWIDTH 24 0
BBX 24 24 0 -6
BITMAP
000000
000000
000000
000000
000000
000000
000000
000000
000000
000000
000000
000000
000000
000000
000000
000000
000000
000000
000000
000000
000000
000000
000000
000000
ENDCHAR

STARTCHAR A1A2
ENCODING 41378
SWIDTH 960 0
DWIDTH 24 0
BBX 24 24 0 -6
BITMAP
000000
000000
000000
000000
000000
000000
000000
000000
000000
000000
000000
000000
000000
000000
000000
000000
060000
0F0000
0F0000
070000
030000
060000
0C0000
000000
ENDCHAR

STARTCHAR A1A3
ENCODING 41379
SWIDTH 960 0
DWIDTH 24 0
BBX 24 24 0 -6
BITMAP
000000
000000
000000
000000
000000
000000
000000
000000
000000
000000
000000
000000
000000
000000
000000
000000
600000
180000
0C0000
060000
070000
030000
030000
000000
ENDCHAR

STARTCHAR A1A4
ENCODING 41380
SWIDTH 960 0
DWIDTH 24 0
BBX 24 24 0 -6
BITMAP
000000
000000
000000
000000
000000
000000
000000
000000
000000
000000
000000
000000
000000
000000
000000
0F0000
108000
204000
204000
204000
204000
108000
0F0000
000000
ENDCHAR

STARTCHAR A1A5
ENCODING 41381
SWIDTH 960 0
DWIDTH 24 0
BBX 24 24 0 -6
BITMAP
000000
000000
000000
000000
000000
000000
000000
000000
000000
000000
000000
000000
000000
000000
000000
000000
000000
000000
060000
0F0000
0F0000
060000
000000
000000
ENDCHAR

STARTCHAR A1A6
ENCODING 41382
SWIDTH 960 0
DWIDTH 24 0
BBX 24 24 0 -6
BITMAP
000000
000000
000000
000000
000000
000000
000000
000000
000000
001800
003C00
007E00
007E00
003C00
001800
000000
000000
000000
000000
000000
000000
000000
000000
000000
ENDCHAR

STARTCHAR A1A7
ENCODING 41383
SWIDTH 960 0
DWIDTH 24 0
BBX 24 24 0 -6
BITMAP
000000
000000
000000
000000
000000
000000
001800
003C00
003C00
001800
000000
000000
000000
000000
001800
003C00
003C00
001C00
000C00
001800
003000
000000
000000
000000
ENDCHAR

STARTCHAR A1A8
ENCODING 41384
SWIDTH 960 0
DWIDTH 24 0
BBX 24 24 0 -6
BITMAP
000000
000000
000000
000000
000000
000000
001800
003C00
003C00
001800
000000
000000
000000
000000
001800
003C00
003C00
001800
000000
000000
000000
000000
000000
000000
ENDCHAR

STARTCHAR A1A9
ENCODING 41385
SWIDTH 960 0
DWIDTH 24 0
BBX 24 24 0 -6
BITMAP
000000
007800
018600
030300
060180
070180
070180
020300
000300
000600
000C00
000C00
000800
001800
001000
001000
001000
000000
000000
001000
003800
003800
001000
000000
ENDCHAR

STARTCHAR A1AA
ENCODING 41386
SWIDTH 960 0
DWIDTH 24 0
BBX 24 24 0 -6
BITMAP
000000
001000
003800
003800
003800
003800
003800
003800
003800
003800
001000
001000
001000
001000
001000
001000
001000
000000
000000
001000
003800
003800
001000
000000
ENDCHAR

STARTCHAR A1AB
ENCODING 41387
SWIDTH 960 0
DWIDTH 24 0
BBX 24 24 0 -6
BITMAP
000000
000000
000000
000000
000000
000000
001800
003C00
003C00
001800
000000
000000
000000
000000
001800
003C00
003C00
001800
000000
000000
000000
000000
000000
000000
ENDCHAR

STARTCHAR A1AC
ENCODING 41388
SWIDTH 960 0
DWIDTH 24 0
BBX 24 24 0 -6
BITMAP
000000
000000
000000
000000
000000
000000
000000
000000
000000
30180C
783C1E
30180C
000000
000000
000000
000000
000000
000000
000000
000000
000000
000000
000000
000000
ENDCHAR

STARTCHAR A1AD
ENCODING 41389
SWIDTH 960 0
DWIDTH 24 0
BBX 24 24 0 -6
BITMAP
000000
000000
000000
000000
000000
000000
000000
000000
000000
0300C0
0781E0
0300C0
000000
000000
000000
000000
000000
000000
000000
000000
000000
000000
000000
000000
ENDCHAR

STARTCHAR A1AE
ENCODING 41390
SWIDTH 960 0
DWIDTH 24 0
BBX 24 24 0 -6
BITMAP
000000
000000
000000
000000
000000
000000
000000
000000
000000
000000
000000
000000
000000
000000
000000
000000
000000
180000
180000
080000
080000
100000
200000
000000
ENDCHAR

STARTCHAR A1AF
ENCODING 41391
SWIDTH 960 0
DWIDTH 24 0
BBX 24 24 0 -6
BITMAP
000000
000000
000000
000000
000000
000000
000000
000000
000000
000000
000000
000000
000000
000000
000000
000000
000000
080000
040000
020000
030000
030000
030000
000000
ENDCHAR

STARTCHAR A1B0
ENCODING 41392
SWIDTH 960 0
DWIDTH 24 0
BBX 24 24 0 -6
BITMAP
000000
000000
000000
000000
000000
000000
000000
000000
000000
000000
000000
000000
000000
000000
000000
000000
000000
000000
000000
060000
060000
000000
000000
000000
ENDCHAR

STARTCHAR A1B1
ENCODING 41393
SWIDTH 960 0
DWIDTH 24 0
BBX 24 24 0 -6
BITMAP
000000
000000
000000
000000
000000
000000
000000
000000
000000
180000
3C0000
3C0000
180000
000000
000000
000000
000000
000000
000000
000000
000000
000000
000000
000000
ENDCHAR

STARTCHAR A1B2
ENCODING 41394
SWIDTH 960 0
DWIDTH 24 0
BBX 24 24 0 -6
BITMAP
000000
000000
000000
000000
000000
000000
000000
001800
001800
000000
000000
000000
000000
000000
000000
001800
001800
000800
000800
001000
002000
000000
000000
000000
ENDCHAR

STARTCHAR A1B3
ENCODING 41395
SWIDTH 960 0
DWIDTH 24 0
BBX 24 24 0 -6
BITMAP
000000
000000
000000
000000
000000
000000
000000
001800
001800
000000
000000
000000
000000
000000
000000
001800
001800
000000
000000
000000
000000
000000
000000
000000
ENDCHAR

STARTCHAR A1B4
ENCODING 41396
SWIDTH 960 0
DWIDTH 24 0
BBX 24 24 0 -6
BITMAP
000000
000000
000000
000000
003C00
006600
00C300
00C300
004600
000400
000C00
000800
000800
000800
000800
000000
000000
000800
001C00
000800
000000
000000
000000
000000
ENDCHAR

STARTCHAR A1B5
ENCODING 41397
SWIDTH 960 0
DWIDTH 24 0
BBX 24 24 0 -6
BITMAP
000000
000000
000000
001000
003800
003800
003800
003800
003800
003800
001000
001000
001000
001000
001000
001000
000000
000000
001000
003800
003800
001000
000000
000000
ENDCHAR

STARTCHAR A1B6
ENCODING 41398
SWIDTH 960 0
DWIDTH 24 0
BBX 24 24 0 -6
BITMAP
000000
000000
000000
001800
001800
001800
001800
001800
001800
001800
001800
001800
001800
001800
001800
001800
001800
001800
001800
001800
001800
000000
000000
000000
ENDCHAR

STARTCHAR A1B7
ENCODING 41399
SWIDTH 960 0
DWIDTH 24 0
BBX 24 24 0 -6
BITMAP
000000
000000
000000
000000
000000
000000
000000
000000
000000
000000
000000
3FC000
3FC000
000000
000000
000000
000000
000000
000000
000000
000000
000000
000000
000000
ENDCHAR

STARTCHAR A1B8
ENCODING 41400
SWIDTH 960 0
DWIDTH 24 0
BBX 24 24 0 -6
BITMAP
000000
000000
000000
001000
001000
001000
001000
001000
001000
001000
001000
001000
001000
001000
001000
001000
001000
001000
001000
001000
001000
000000
000000
000000
ENDCHAR

STARTCHAR A1B9
ENCODING 41401
SWIDTH 960 0
DWIDTH 24 0
BBX 24 24 0 -6
BITMAP
000000
000000
000000
000000
000000
000000
000000
000000
000000
000000
000000
3FFFFC
3FFFFC
000000
000000
000000
000000
000000
000000
000000
000000
000000
000000
000000
ENDCHAR

STARTCHAR A1BA
ENCODING 41402
SWIDTH 960 0
DWIDTH 24 0
BBX 24 24 0 -6
BITMAP
000000
000000
000000
180000
180000
180000
180000
180000
180000
180000
180000
180000
180000
180000
180000
180000
180000
180000
180000
180000
180000
000000
000000
000000
ENDCHAR

STARTCHAR A1BB
ENCODING 41403
SWIDTH 960 0
DWIDTH 24 0
BBX 24 24 0 -6
BITMAP
000000
000000
000000
000000
000000
000000
000000
000000
000000
000000
000000
000000
07E7E0
07E7E0
000000
000000
000000
000000
000000
000000
000000
000000
000000
000000
ENDCHAR

STARTCHAR A1BC
ENCODING 41404
SWIDTH 960 0
DWIDTH 24 0
BBX 24 24 0 -6
BITMAP
000000
0C0000
060000
030000
018000
030000
060000
0C0000
0C0000
060000
030000
018000
030000
060000
0C0000
0C0000
060000
030000
018000
030000
060000
0C0000
000000
000000
ENDCHAR

STARTCHAR A1BD
ENCODING 41405
SWIDTH 960 0
DWIDTH 24 0
BBX 24 24 0 -6
BITMAP
000000
000000
000000
000000
000000
000000
000000
000000
000000
000000
000000
000000
000000
000000
000000
000000
000000
000000
0C1830
3366CC
60C306
000000
000000
000000
ENDCHAR

STARTCHAR A1BE
ENCODING 41406
SWIDTH 960 0
DWIDTH 24 0
BBX 24 24 0 -6
BITMAP
000000
00000C
000018
000030
000030
000060
000060
000060
0000C0
0000C0
0000C0
0000C0
0000C0
0000C0
0000C0
0000C0
000060
000060
000060
000030
000030
000018
00000C
000000
ENDCHAR

STARTCHAR A1BF
ENCODING 41407
SWIDTH 960 0
DWIDTH 24 0
BBX 24 24 0 -6
BITMAP
000000
300000
180000
0C0000
0C0000
060000
060000
060000
030000
030000
030000
030000
030000
030000
030000
030000
060000
060000
060000
0C0000
0C0000
180000
300000
000000
ENDCHAR

STARTCHAR A1C0
ENCODING 41408
SWIDTH 960 0
DWIDTH 24 0
BBX 24 24 0 -6
BITMAP
000000
000000
000000
000000
000000
000000
000000
000000
000000
000000
000000
000000
000000
000000
000000
000000
00FF00
07FFE0
1F00F8
38001C
600006
400002
000000
000000
ENDCHAR

STARTCHAR A1C1
ENCODING 41409
SWIDTH 960 0
DWIDTH 24 0
BBX 24 24 0 -6
BITMAP
000000
000000
400002
600006
38001C
1F00F8
07FFE0
00FF00
000000
000000
000000
000000
000000
000000
000000
000000
000000
000000
000000
000000
000000
000000
000000
000000
ENDCHAR

STARTCHAR A1C2
ENCODING 41410
SWIDTH 960 0
DWIDTH 24 0
BBX 24 24 0 -6
BITMAP
000000
00001C
000030
000060
000060
000060
000060
000060
000060
0000C0
000180
000200
000180
0000C0
000060
000060
000060
000060
000060
000060
000060
000030
00001C
000000
ENDCHAR

STARTCHAR A1C3
ENCODING 41411
SWIDTH 960 0
DWIDTH 24 0
BBX 24 24 0 -6
BITMAP
000000
380000
0C0000
060000
060000
060000
060000
060000
060000
030000
018000
004000
018000
030000
060000
060000
060000
060000
060000
060000
060000
0C0000
380000
000000
ENDCHAR

STARTCHAR A1C4
ENCODING 41412
SWIDTH 960 0
DWIDTH 24 0
BBX 24 24 0 -6
BITMAP
000000
000000
000000
000000
000000
000000
000000
000000
000000
000000
000000
000000
000000
000000
000000
000800
001400
003600
1FE3F8
3FC1FC
600006
400002
400002
000000
ENDCHAR

STARTCHAR A1C5
ENCODING 41413
SWIDTH 960 0
DWIDTH 24 0
BBX 24 24 0 -6
BITMAP
000000
400002
400002
600006
3FC1FC
1FE3F8
003600
001400
000800
000000
000000
000000
000000
000000
000000
000000
000000
000000
000000
000000
000000
000000
000000
000000
ENDCHAR

STARTCHAR A1C6
ENCODING 41414
SWIDTH 960 0
DWIDTH 24 0
BBX 24 24 0 -6
BITMAP
000000
00000E
000078
0003C0
000300
000300
000300
000300
000300
000300
000300
000300
000300
000300
000300
000300
000300
000300
000300
000300
0003C0
000078
00000E
000000
ENDCHAR

STARTCHAR A1C7
ENCODING 41415
SWIDTH 960 0
DWIDTH 24 0
BBX 24 24 0 -6
BITMAP
000000
700000
0E0000
038000
00C000
00C000
00C000
00C000
00C000
00C000
00C000
00C000
00C000
00C000
00C000
00C000
00C000
00C000
00C000
00C000
038000
0E0000
700000
000000
ENDCHAR

STARTCHAR A1C8
ENCODING 41416
SWIDTH 960 0
DWIDTH 24 0
BBX 24 24 0 -6
BITMAP
000000
000000
000000
000000
000000
000000
000000
000000
000000
000000
000000
000000
000000
000000
000000
000000
000000
000000
07FFE0
0FFFF0
180018
30000C
600006
000000
ENDCHAR

STARTCHAR A1C9
ENCODING 41417
SWIDTH 960 0
DWIDTH 24 0
BBX 24 24 0 -6
BITMAP
000000
600006
30000C
180018
0FFFF0
07FFE0
000000
000000
000000
000000
000000
000000
000000
000000
000000
000000
000000
000000
000000
000000
000000
000000
000000
000000
ENDCHAR

STARTCHAR A1CA
ENCODING 41418
SWIDTH 960 0
DWIDTH 24 0
BBX 24 24 0 -6
BITMAP
000000
0003FC
0003F0
0003E0
0003C0
0003C0
000380
000380
000380
000300
000300
000300
000300
000300
000300
000380
000380
000380
0003C0
0003C0
0003E0
0003F0
0003FC
000000
ENDCHAR

STARTCHAR A1CB
ENCODING 41419
SWIDTH 960 0
DWIDTH 24 0
BBX 24 24 0 -6
BITMAP
000000
3FC000
0FC000
07C000
03C000
03C000
01C000
01C000
01C000
00C000
00C000
00C000
00C000
00C000
00C000
01C000
01C000
01C000
03C000
03C000
0FC000
1FC000
3FC000
000000
ENDCHAR

STARTCHAR A1CC
ENCODING 41420
SWIDTH 960 0
DWIDTH 24 0
BBX 24 24 0 -6
BITMAP
000000
000000
000000
000000
000000
000000
000000
000000
000000
000000
000000
000000
000000
000000
000000
3FFFFC
3FFFFC
3FC3FC
3F00FC
3C003C
38001C
30000C
200004
000000
ENDCHAR

STARTCHAR A1CD
ENCODING 41421
SWIDTH 960 0
DWIDTH 24 0
BBX 24 24 0 -6
BITMAP
000000
200004
30000C
38001C
3C003C
3F00FC
3FC3FC
3FFFFC
3FFFFC
000000
000000
000000
000000
000000
000000
000000
000000
000000
000000
000000
000000
000000
000000
000000
ENDCHAR

STARTCHAR A1CE
ENCODING 41422
SWIDTH 960 0
DWIDTH 24 0
BBX 24 24 0 -6
BITMAP
000000
0000C6
00018C
000318
000630
000C60
0018C0
003180
006300
00C600
018C00
031800
018C00
00C600
006300
003180
0018C0
000C60
000630
000318
00018C
0000C6
000000
000000
ENDCHAR

STARTCHAR A1CF
ENCODING 41423
SWIDTH 960 0
DWIDTH 24 0
BBX 24 24 0 -6
BITMAP
000000
630000
318000
18C000
0C6000
063000
031800
018C00
00C600
006300
003180
0018C0
003180
006300
00C600
018C00
031800
063000
0C6000
18C000
318000
630000
000000
000000
ENDCHAR

STARTCHAR A1D0
ENCODING 41424
SWIDTH 960 0
DWIDTH 24 0
BBX 24 24 0 -6
BITMAP
000000
000000
000000
000000
001000
003800
006C00
00C600
018300
031180
0638C0
0C6C60
18C630
318318
63018C
0600C0
0C0060
180030
300018
60000C
000000
000000
000000
000000
ENDCHAR

STARTCHAR A1D1
ENCODING 41425
SWIDTH 960 0
DWIDTH 24 0
BBX 24 24 0 -6
BITMAP
000000
000000
000000
000000
60000C
300018
180030
0C0060
0600C0
63018C
318318
18C630
0C6C60
0638C0
031180
018300
00C600
006C00
003800
001000
000000
000000
000000
000000
ENDCHAR

STARTCHAR A1D2
ENCODING 41426
SWIDTH 960 0
DWIDTH 24 0
BBX 24 24 0 -6
BITMAP
000000
000000
000000
000030
0000F0
0003C0
000F00
003C00
00F000
038000
0E0000
180000
0C0000
070000
01C000
007000
001E00
000780
0001E0
000070
000000
000000
000000
000000
ENDCHAR

STARTCHAR A1D3
ENCODING 41427
SWIDTH 960 0
DWIDTH 24 0
BBX 24 24 0 -6
BITMAP
000000
000000
000000
180000
0E0000
038000
00E000
003800
000E00
000380
0000E0
000030
000070
0001E0
000780
001E00
007800
01E000
078000
1C0000
000000
000000
000000
000000
ENDCHAR

STARTCHAR A1D4
ENCODING 41428
SWIDTH 960 0
DWIDTH 24 0
BBX 24 24 0 -6
BITMAP
000000
000000
000000
000000
000000
000000
001000
003800
006C00
00C600
018300
030180
0600C0
0C0060
180030
300018
60000C
000000
000000
000000
000000
000000
000000
000000
ENDCHAR

STARTCHAR A1D5
ENCODING 41429
SWIDTH 960 0
DWIDTH 24 0
BBX 24 24 0 -6
BITMAP
000000
000000
000000
000000
000000
000000
000000
60000C
300018
180030
0C0060
0600C0
030180
018300
00C600
006C00
003800
001000
000000
000000
000000
000000
000000
000000
ENDCHAR

STARTCHAR A1D6
ENCODING 41430
SWIDTH 960 0
DWIDTH 24 0
BBX 24 24 0 -6
BITMAP
000000
0007FE
0007FE
000600
000600
000600
000600
000600
000600
000600
000600
000600
000600
000600
000600
000600
000600
000600
000600
000000
000000
000000
000000
000000
ENDCHAR

STARTCHAR A1D7
ENCODING 41431
SWIDTH 960 0
DWIDTH 24 0
BBX 24 24 0 -6
BITMAP
000000
000000
000000
000000
000000
000000
006000
006000
006000
006000
006000
006000
006000
006000
006000
006000
006000
006000
006000
006000
006000
7FE000
7FE000
000000
ENDCHAR

STARTCHAR A1D8
ENCODING 41432
SWIDTH 960 0
DWIDTH 24 0
BBX 24 24 0 -6
BITMAP
000000
000000
000000
000000
000000
000000
000000
000000
000000
000000
000000
000000
000000
3FFFFC
3FFFFC
00000C
00000C
00000C
00000C
00000C
00000C
00000C
00000C
000000
ENDCHAR

STARTCHAR A1D9
ENCODING 41433
SWIDTH 960 0
DWIDTH 24 0
BBX 24 24 0 -6
BITMAP
000000
000000
000000
000000
000000
000000
000000
300000
300000
300000
300000
300000
300000
300000
300000
3FFFFC
3FFFFC
000000
000000
000000
000000
000000
000000
000000
ENDCHAR

STARTCHAR A1DA
ENCODING 41434
SWIDTH 960 0
DWIDTH 24 0
BBX 24 24 0 -6
BITMAP
000000
0003FE
000202
000202
00027E
000240
000240
000240
000240
000240
000240
000240
000240
000240
000240
000240
000240
0003C0
000000
000000
000000
000000
000000
000000
ENDCHAR

STARTCHAR A1DB
ENCODING 41435
SWIDTH 960 0
DWIDTH 24 0
BBX 24 24 0 -6
BITMAP
000000
000000
000000
000000
000000
000000
03C000
024000
024000
024000
024000
024000
024000
024000
024000
024000
024000
024000
024000
7E4000
404000
404000
7FC000
000000
ENDCHAR

STARTCHAR A1DC
ENCODING 41436
SWIDTH 960 0
DWIDTH 24 0
BBX 24 24 0 -6
BITMAP
000000
000000
000000
000000
000000
000000
000000
000000
000000
000000
000000
000000
000000
000000
3FFFF8
200008
200008
3FFFC8
000048
000048
000048
000048
000078
000000
ENDCHAR

STARTCHAR A1DD
ENCODING 41437
SWIDTH 960 0
DWIDTH 24 0
BBX 24 24 0 -6
BITMAP
000000
3C0000
240000
240000
240000
240000
240000
27FFF8
200008
200008
3FFFF8
000000
000000
000000
000000
000000
000000
000000
000000
000000
000000
000000
000000
000000
ENDCHAR

STARTCHAR A1DE
ENCODING 41438
SWIDTH 960 0
DWIDTH 24 0
BBX 24 24 0 -6
BITMAP
000000
000000
000000
00001C
000030
000060
0000C0
000180
000180
000300
000300
000600
000600
000300
000300
000180
000180
0000C0
000060
000030
00001C
000000
000000
000000
ENDCHAR

STARTCHAR A1DF
ENCODING 41439
SWIDTH 960 0
DWIDTH 24 0
BBX 24 24 0 -6
BITMAP
000000
000000
000000
380000
0C0000
060000
030000
018000
018000
00C000
00C000
006000
006000
00C000
00C000
018000
018000
030000
060000
0C0000
380000
000000
000000
000000
ENDCHAR

STARTCHAR A1E0
ENCODING 41440
SWIDTH 960 0
DWIDTH 24 0
BBX 24 24 0 -6
BITMAP
000000
000000
000008
00001C
000030
000060
000060
000060
000060
000060
0000C0
000100
0000C0
000060
000060
000060
000060
000060
000060
000030
00001C
000008
000000
000000
ENDCHAR

STARTCHAR A1E1
ENCODING 41441
SWIDTH 960 0
DWIDTH 24 0
BBX 24 24 0 -6
BITMAP
000000
000000
100000
380000
0C0000
060000
060000
060000
060000
060000
030000
008000
030000
060000
060000
060000
060000
060000
060000
0C0000
380000
100000
000000
000000
ENDCHAR

STARTCHAR A1E2
ENCODING 41442
SWIDTH 960 0
DWIDTH 24 0
BBX 24 24 0 -6
BITMAP
000000
000008
00001C
000038
000060
0000C0
000180
000180
000180
000180
000180
000180
000180
000180
000180
000180
000180
000180
0000C0
000060
000038
00001C
000008
000000
ENDCHAR

STARTCHAR A1E3
ENCODING 41443
SWIDTH 960 0
DWIDTH 24 0
BBX 24 24 0 -6
BITMAP
000000
100000
380000
1C0000
070000
038000
018000
018000
018000
018000
018000
018000
018000
018000
018000
018000
018000
018000
038000
070000
1C0000
380000
100000
000000
ENDCHAR

STARTCHAR A1E4
ENCODING 41444
SWIDTH 960 0
DWIDTH 24 0
BBX 24 24 0 -6
BITMAP
000000
003000
00C000
010000
030000
07C000
07C000
0FE000
07C000
038000
000000
000000
000000
000000
000000
000000
000000
000000
000000
000000
000000
000000
000000
000000
ENDCHAR

STARTCHAR A1E5
ENCODING 41445
SWIDTH 960 0
DWIDTH 24 0
BBX 24 24 0 -6
BITMAP
000000
018000
03C000
03C000
03C000
03C000
018000
010000
020000
0C0000
000000
000000
000000
000000
000000
000000
000000
000000
000000
000000
000000
000000
000000
000000
ENDCHAR

STARTCHAR A1E6
ENCODING 41446
SWIDTH 960 0
DWIDTH 24 0
BBX 24 24 0 -6
BITMAP
000000
000102
000204
000C18
001830
001C38
003E7C
001C38
000000
000000
000000
000000
000000
000000
000000
000000
000000
000000
000000
000000
000000
000000
000000
000000
ENDCHAR

STARTCHAR A1E7
ENCODING 41447
SWIDTH 960 0
DWIDTH 24 0
BBX 24 24 0 -6
BITMAP
000000
318000
7BC000
7BC000
18C000
108000
210000
000000
000000
000000
000000
000000
000000
000000
000000
000000
000000
000000
000000
000000
000000
000000
000000
000000
ENDCHAR

STARTCHAR A1E8
ENCODING 41448
SWIDTH 960 0
DWIDTH 24 0
BBX 24 24 0 -6
BITMAP
000000
040000
070000
238000
39C000
1CC000
0E0000
060000
000000
000000
000000
000000
000000
000000
000000
000000
000000
000000
000000
000000
000000
000000
000000
000000
ENDCHAR

STARTCHAR A1E9
ENCODING 41449
SWIDTH 960 0
DWIDTH 24 0
BBX 24 24 0 -6
BITMAP
000000
0C6000
0E7000
0E7000
1CE000
18C000
39C000
318000
210000
420000
000000
000000
000000
000000
000000
000000
000000
000000
000000
000000
000000
000000
000000
000000
ENDCHAR

STARTCHAR A1EA
ENCODING 41450
SWIDTH 960 0
DWIDTH 24 0
BBX 24 24 0 -6
BITMAP
000000
000000
01E000
01F000
007C00
000F00
0003F0
000000
000000
000000
000000
000000
000000
000000
000000
000000
000000
000000
000000
000000
000000
000000
000000
000000
ENDCHAR

STARTCHAR A1EB
ENCODING 41451
SWIDTH 960 0
DWIDTH 24 0
BBX 24 24 0 -6
BITMAP
000000
000000
000F00
003F00
00F800
07E000
3E0000
000000
000000
000000
000000
000000
000000
000000
000000
000000
000000
000000
000000
000000
000000
000000
000000
000000
ENDCHAR

STARTCHAR A1EC
ENCODING 41452
SWIDTH 960 0
DWIDTH 24 0
BBX 24 24 0 -6
BITMAP
000000
00C300
00C300
00C300
00C300
00C300
00C3E0
0FFFE0
0FFB00
00C300
00C300
00C300
00C300
00C330
00C7F0
01FFC0
0FFF00
0FC300
00C300
00C300
00C300
00C300
00C300
000000
ENDCHAR

STARTCHAR A1ED
ENCODING 41453
SWIDTH 960 0
DWIDTH 24 0
BBX 24 24 0 -6
BITMAP
000000
000000
00F800
010400
030600
030600
030600
018C00
00F800
00E0F8
03F030
063030
0C3820
181840
181C80
180D04
180604
1C0708
0E09D8
07F0F0
000000
000000
000000
000000
ENDCHAR

STARTCHAR A1EE
ENCODING 41454
SWIDTH 960 0
DWIDTH 24 0
BBX 24 24 0 -6
BITMAP
000000
000000
000000
000000
000000
000000
021080
011100
009200
005400
003800
3FFFF8
003800
005400
009200
011100
021080
000000
000000
000000
000000
000000
000000
000000
ENDCHAR

STARTCHAR A1EF
ENCODING 41455
SWIDTH 960 0
DWIDTH 24 0
BBX 24 24 0 -6
BITMAP
000000
000000
301C06
183E0C
0C3E18
061C30
030060
0180C0
00C180
006300
003600
1C1C1C
3E1C3E
3E363E
1C631C
00C180
0180C0
030060
061C30
0C3E18
183E0C
301C06
000000
000000
ENDCHAR

STARTCHAR A1F0
ENCODING 41456
SWIDTH 960 0
DWIDTH 24 0
BBX 24 24 0 -6
BITMAP
000000
000000
007C00
00C700
018180
018180
00C000
00B000
011800
060600
060180
0300C0
018040
00E040
003C80
000700
000180
0300C0
0300C0
010180
00C700
003C00
000000
000000
ENDCHAR

STARTCHAR A1F1
ENCODING 41457
SWIDTH 960 0
DWIDTH 24 0
BBX 24 24 0 -6
BITMAP
000000
000000
000000
000000
000000
000000
0070E0
0070E0
0070E0
0070E0
00E1C0
00E1C0
01C380
01C380
018300
010400
020800
041000
000000
000000
000000
000000
000000
000000
ENDCHAR

STARTCHAR A1F2
ENCODING 41458
SWIDTH 960 0
DWIDTH 24 0
BBX 24 24 0 -6
BITMAP
000000
000000
007E00
01C380
0700E0
0C0030
0C0030
180018
180018
30000C
30000C
30000C
30000C
30000C
30000C
180018
180018
0C0030
0C0030
0700E0
01C380
007E00
000000
000000
ENDCHAR

STARTCHAR A1F3
ENCODING 41459
SWIDTH 960 0
DWIDTH 24 0
BBX 24 24 0 -6
BITMAP
000000
000000
007E00
01FF80
07FFE0
0FFFF0
0FFFF0
1FFFF8
1FFFF8
3FFFFC
3FFFFC
3FFFFC
3FFFFC
3FFFFC
3FFFFC
1FFFF8
1FFFF8
0FFFF0
0FFFF0
07FFE0
01FF80
007E00
000000
000000
ENDCHAR

STARTCHAR A1F4
ENCODING 41460
SWIDTH 960 0
DWIDTH 24 0
BBX 24 24 0 -6
BITMAP
000000
001800
003C00
006600
006600
00C300
00C300
018180
018180
0300C0
0300C0
060060
060060
0C0030
0C0030
180018
180018
30000C
30000C
30000C
7FFFFE
7FFFFE
000000
000000
ENDCHAR

STARTCHAR A1F5
ENCODING 41461
SWIDTH 960 0
DWIDTH 24 0
BBX 24 24 0 -6
BITMAP
000000
001800
003C00
003C00
007E00
007E00
00FF00
00FF00
01FF80
01FF80
03FFC0
03FFC0
07FFE0
07FFE0
0FFFF0
0FFFF0
1FFFF8
1FFFF8
3FFFFC
3FFFFC
7FFFFE
000000
000000
000000
ENDCHAR

STARTCHAR A1F6
ENCODING 41462
SWIDTH 960 0
DWIDTH 24 0
BBX 24 24 0 -6
BITMAP
000000
007E00
00FF00
0381C0
0E0070
183C18
187E18
31C38C
3300CC
6300C6
660066
660066
660066
660066
6300C6
3300CC
31C38C
187E18
183C18
0E0070
0381C0
00FF00
007E00
000000
ENDCHAR

STARTCHAR A1F7
ENCODING 41463
SWIDTH 960 0
DWIDTH 24 0
BBX 24 24 0 -6
BITMAP
000000
001800
002400
002400
004200
004200
008100
7F00FE
200004
100008
080010
040020
020040
010080
020040
020040
041820
042420
084210
118188
160068
38001C
000000
000000
ENDCHAR

STARTCHAR A1F8
ENCODING 41464
SWIDTH 960 0
DWIDTH 24 0
BBX 24 24 0 -6
BITMAP
000000
001800
001800
003C00
003C00
007E00
007E00
00FF00
7FFFFE
3FFFFC
1FFFF8
0FFFF0
07FFE0
03FFC0
01FF80
03FFC0
07FFE0
07E7E0
0FC3F0
0F81F0
1E0078
1C0038
30000C
000000
ENDCHAR

STARTCHAR A1F9
ENCODING 41465
SWIDTH 960 0
DWIDTH 24 0
BBX 24 24 0 -6
BITMAP
000000
001800
003C00
006600
00C300
018180
0300C0
060060
0C0030
180018
30000C
600006
600006
30000C
180018
0C0030
060060
0300C0
018180
00C300
006600
003C00
001800
000000
ENDCHAR

STARTCHAR A1FA
ENCODING 41466
SWIDTH 960 0
DWIDTH 24 0
BBX 24 24 0 -6
BITMAP
000000
001800
003C00
007E00
00FF00
01FF80
03FFC0
07FFE0
0FFFF0
1FFFF8
3FFFFC
7FFFFE
7FFFFE
3FFFFC
1FFFF8
0FFFF0
07FFE0
03FFC0
01FF80
00FF00
007E00
003C00
001800
000000
ENDCHAR

STARTCHAR A1FB
ENCODING 41467
SWIDTH 960 0
DWIDTH 24 0
BBX 24 24 0 -6
BITMAP
000000
000000
3FFFFC
3FFFFC
30000C
30000C
30000C
30000C
30000C
30000C
30000C
30000C
30000C
30000C
30000C
30000C
30000C
30000C
30000C
30000C
3FFFFC
3FFFFC
000000
000000
ENDCHAR

STARTCHAR A1FC
ENCODING 41468
SWIDTH 960 0
DWIDTH 24 0
BBX 24 24 0 -6
BITMAP
000000
000000
000000
1FFFF8
1FFFF8
1FFFF8
1FFFF8
1FFFF8
1FFFF8
1FFFF8
1FFFF8
1FFFF8
1FFFF8
1FFFF8
1FFFF8
1FFFF8
1FFFF8
1FFFF8
1FFFF8
1FFFF8
1FFFF8
000000
000000
000000
ENDCHAR

STARTCHAR A1FD
ENCODING 41469
SWIDTH 960 0
DWIDTH 24 0
BBX 24 24 0 -6
BITMAP
000000
000000
7FFFFE
7FFFFE
30000C
30000C
180018
180018
0C0030
0C0030
060060
060060
0300C0
0300C0
018180
018180
00C300
00C300
006600
006600
003C00
001800
000000
000000
ENDCHAR

STARTCHAR A1FE
ENCODING 41470
SWIDTH 960 0
DWIDTH 24 0
BBX 24 24 0 -6
BITMAP
000000
000000
000000
7FFFFE
3FFFFC
3FFFFC
1FFFF8
1FFFF8
0FFFF0
0FFFF0
07FFE0
07FFE0
03FFC0
03FFC0
01FF80
01FF80
00FF00
00FF00
007E00
007E00
003C00
003C00
001800
000000
ENDCHAR

STARTCHAR A221
ENCODING 41505
SWIDTH 960 0
DWIDTH 24 0
BBX 24 24 0 -6
BITMAP
000000
000010
400038
7FFFFC
60C000
60E000
60C018
61FFFC
619998
631998
663198
6C3318
706318
60C618
618C18
661818
603038
60C070
6707E0
6001C8
60001C
7FFFFE
200000
000000
ENDCHAR

STARTCHAR A222
ENCODING 41506
SWIDTH 960 0
DWIDTH 24 0
BBX 24 24 0 -6
BITMAP
000000
000010
400038
7FFFFC
606000
603820
601870
6FFFF8
600000
608300
60FF80
60C300
60C300
60C300
60C300
60C310
60C310
618330
6303F8
6E01F0
60000C
7FFFFE
200000
000000
ENDCHAR

STARTCHAR A223
ENCODING 41507
SWIDTH 960 0
DWIDTH 24 0
BBX 24 24 0 -6
BITMAP
000000
001800
3FFC0C
00180E
00180C
00180C
00180C
00180C
00180C
00180C
00180C
20180C
3FFFFC
301808
301800
301800
301800
301800
301800
301810
301838
301FFC
000800
000000
ENDCHAR

STARTCHAR A224
ENCODING 41508
SWIDTH 960 0
DWIDTH 24 0
BBX 24 24 0 -6
BITMAP
000000
000008
10001C
1FFFFE
180000
180000
180030
19FFF8
18C180
18C180
18C180
18C180
18C18C
18FFFE
184380
180780
180D80
181980
183180
106180
30CF80
230380
400300
000000
ENDCHAR

STARTCHAR A225
ENCODING 41509
SWIDTH 960 0
DWIDTH 24 0
BBX 24 24 0 -6
BITMAP
000000
000010
003FF8
41801C
7FC018
618030
618240
618180
618180
618180
61818C
61FFFE
618180
618180
618180
618180
7F8180
210180
000180
000180
000F80
000380
000300
000000
ENDCHAR

STARTCHAR A226
ENCODING 41510
SWIDTH 960 0
DWIDTH 24 0
BBX 24 24 0 -6
BITMAP
000000
20000C
3FFFFE
30000C
30600C
30700C
30630C
30638C
30632C
3FFFFC
30C30C
30C30C
30C60C
31860C
33FC0C
301C0C
30370C
30638C
3181CC
3600CC
30000C
3FFFFC
100008
000000
ENDCHAR

STARTCHAR A227
ENCODING 41511
SWIDTH 960 0
DWIDTH 24 0
BBX 24 24 0 -6
BITMAP
000000
008000
01C000
030000
26000C
3FFFFE
30006C
38007C
3400EC
3200CC
31818C
30C30C
30760C
303C0C
301C0C
303E0C
30678C
30C3CC
3301EC
3C00EC
30000C
3FFFFC
100008
000000
ENDCHAR

STARTCHAR A228
ENCODING 41512
SWIDTH 960 0
DWIDTH 24 0
BBX 24 24 0 -6
BITMAP
000000
060018
071FFC
060018
060018
060018
060018
068018
3FC018
060018
061018
061FF8
061810
061800
061800
061800
061800
07F800
7F1804
7C1804
30180C
001FFE
000FFC
000000
ENDCHAR

STARTCHAR A229
ENCODING 41513
SWIDTH 960 0
DWIDTH 24 0
BBX 24 24 0 -6
BITMAP
000000
060C00
070E00
060C08
060C1C
061FFE
061800
06B000
3FE000
060030
063FF8
060030
060060
0600C0
060180
060300
060600
07EC00
7F1804
7C3004
30600C
007FFE
003FFC
000000
ENDCHAR

STARTCHAR A22A
ENCODING 41514
SWIDTH 960 0
DWIDTH 24 0
BBX 24 24 0 -6
BITMAP
000000
060C00
070E00
060C00
060C00
060C00
06180C
069FFE
3FD00C
06200C
06000C
060C0C
06070C
06038C
0601CC
0600CC
06000C
07E00C
7F000C
7C001C
300038
0003F0
0000E0
000000
ENDCHAR

STARTCHAR A22B
ENCODING 41515
SWIDTH 960 0
DWIDTH 24 0
BBX 24 24 0 -6
BITMAP
000000
001800
001C00
001808
00381C
7FFFFE
006600
00C300
018180
0300C0
060060
0F18F8
1B9CDE
6318CC
0318C0
0318C0
0318C0
0318C0
0618C0
0618C0
0C18C0
1818C0
6000C0
000000
ENDCHAR

STARTCHAR A22C
ENCODING 41516
SWIDTH 960 0
DWIDTH 24 0
BBX 24 24 0 -6
BITMAP
000000
000600
00C700
7FE600
00C600
00C620
00C630
00C634
00FFFE
40C630
7FC630
608C30
600C60
600C60
601860
6018C0
601CC0
608380
6301C0
660370
7C0638
780C1C
30700C
000000
ENDCHAR

STARTCHAR A22D
ENCODING 41517
SWIDTH 960 0
DWIDTH 24 0
BBX 24 24 0 -6
BITMAP
000000
0C0030
0E00F8
0C03E0
0C1F80
0C8180
0CC180
7FF180
18C188
18C19C
18FFFE
18C180
18C180
10C180
118180
198180
070180
03C180
06E184
0C7184
18318C
3001FE
4000FC
000000
ENDCHAR

STARTCHAR A22E
ENCODING 41518
SWIDTH 960 0
DWIDTH 24 0
BBX 24 24 0 -6
BITMAP
000000
0C0010
0E0038
0C3FFC
0C0180
0C8180
0CC180
7FF180
18C180
18C180
18C180
18C180
18C180
10C180
118180
198180
070180
03C180
06E180
0C7180
183180
30018C
407FFE
000000
ENDCHAR

STARTCHAR A22F
ENCODING 41519
SWIDTH 960 0
DWIDTH 24 0
BBX 24 24 0 -6
BITMAP
000000
0C0300
0E0380
0C0300
0C8320
0CC330
0CD334
7FFFFE
18C630
18C630
18C630
18C630
18C630
10C430
118460
198660
0701C0
0380E0
06C1B0
0CE318
18661C
300C0E
403006
000000
ENDCHAR

STARTCHAR A230
ENCODING 41520
SWIDTH 960 0
DWIDTH 24 0
BBX 24 24 0 -6
BITMAP
000000
0C00C0
0E00E0
0C00C0
0C00C0
0C80C0
0CCCCC
7FFECE
18CCCC
18CCCC
18CCCC
18CCCC
18CCCC
10CCCC
118CCC
198CCC
070CCC
038CCC
06CCCC
0CECCC
186CCC
300FFC
400408
000000
ENDCHAR

STARTCHAR A231
ENCODING 41521
SWIDTH 960 0
DWIDTH 24 0
BBX 24 24 0 -6
BITMAP
000000
0C0030
0E00F8
0C03E0
0C1F80
0C8180
0CC180
7FF180
18C188
18C19C
18FFFE
18C180
18C180
10C180
118180
198180
070180
03C180
06E180
0C7180
183180
300180
400180
000000
ENDCHAR

STARTCHAR A232
ENCODING 41522
SWIDTH 960 0
DWIDTH 24 0
BBX 24 24 0 -6
BITMAP
000000
0C0000
0E0300
0C0380
0C0300
0CC300
7FE330
0CC334
0CFFFE
0CC630
0CC630
0CCC30
0CCC60
0ED860
0FDCC0
1BC3C0
19C1C0
18C360
18C634
18D814
30C00C
20FFFE
407FFC
000000
ENDCHAR

STARTCHAR A233
ENCODING 41523
SWIDTH 960 0
DWIDTH 24 0
BBX 24 24 0 -6
BITMAP
000000
002008
3FF7FC
00380E
00300C
006018
008020
0300C0
0300C0
0300C0
0300C0
0330C0
07C0CC
7F1FFE
7B00C0
2300C0
0300C0
0300C0
0300C0
0300C0
1F07C0
0701C0
060180
000000
ENDCHAR

STARTCHAR A234
ENCODING 41524
SWIDTH 960 0
DWIDTH 24 0
BBX 24 24 0 -6
BITMAP
000000
000300
7FFF80
030300
030300
030600
03060C
0607FE
06020C
0C000C
0C000C
18181C
301DF8
401870
001800
021880
071860
0E1838
1C181C
30180E
40F806
003800
003000
000000
ENDCHAR

STARTCHAR A235
ENCODING 41525
SWIDTH 960 0
DWIDTH 24 0
BBX 24 24 0 -6
BITMAP
000000
060C00
070E00
060C00
060C0C
061FFE
06580C
7FF00C
06200C
06440C
06030C
06018C
0E018C
0F000C
0F000C
0F000C
0F001C
1B01F8
1B0074
1B0004
33000C
23FFFE
41FFFC
000000
ENDCHAR

STARTCHAR A236
ENCODING 41526
SWIDTH 960 0
DWIDTH 24 0
BBX 24 24 0 -6
BITMAP
000000
0C0008
0E001C
0CFFFE
0C0CC0
0C0CC0
4D8CC0
6DCCC0
6D8CC0
6D8CC0
6D8CC0
6D8CC0
6D8CC0
6D8CC0
6D8CC0
6D98C0
6D98C0
6D98C0
7FB0C4
2130C4
0060CC
00C0FE
03007C
000000
ENDCHAR

STARTCHAR A237
ENCODING 41527
SWIDTH 960 0
DWIDTH 24 0
BBX 24 24 0 -6
BITMAP
000000
060018
070FFC
060018
060018
060018
666018
667018
666018
666818
666FF8
666C10
666C00
666C00
666C00
666C00
666C00
666C00
7FEC04
204C04
000C0E
000FFE
0007FC
000000
ENDCHAR

STARTCHAR A238
ENCODING 41528
SWIDTH 960 0
DWIDTH 24 0
BBX 24 24 0 -6
BITMAP
000000
0C000C
0E3FFE
0C030C
0C030C
0C030C
4D830C
6DC30C
6D9B0C
6D8F0C
6D8F0C
6D870C
6D830C
6D860C
6D860C
6D860C
6D8C0C
6D8C0C
7F980C
21301C
006038
00C3F0
0300E0
000000
ENDCHAR

STARTCHAR A239
ENCODING 41529
SWIDTH 960 0
DWIDTH 24 0
BBX 24 24 0 -6
BITMAP
000000
0600C0
0700E0
0600C0
0600C0
0600C0
664CCC
766ECE
666CCC
666CCC
666CCC
666CCC
666CCC
666CCC
666CCC
666CCC
666CCC
666CCC
666CCC
666CCC
666CCC
7FEFFC
204408
000000
ENDCHAR

STARTCHAR A23A
ENCODING 41530
SWIDTH 960 0
DWIDTH 24 0
BBX 24 24 0 -6
BITMAP
000000
007000
003808
00181C
7FFFFE
0C0000
0C0000
0C0000
0C0000
0C0000
0FFFF0
07FFE0
0318C0
0318C0
0318C0
0318C0
0318C0
0618C0
0618C0
0C18C0
1818C0
3018FE
40187C
000000
ENDCHAR

STARTCHAR A23B
ENCODING 41531
SWIDTH 960 0
DWIDTH 24 0
BBX 24 24 0 -6
BITMAP
000000
004010
00E038
3FF7FC
0300C0
0300C0
0300C0
0300C0
0300C0
0300C0
0300C0
03E0CC
7F1FFE
3300C0
0300C0
0300C0
0300C0
0300C0
0600C0
0600C0
0C00C0
1800C0
6000C0
000000
ENDCHAR

STARTCHAR A23C
ENCODING 41532
SWIDTH 960 0
DWIDTH 24 0
BBX 24 24 0 -6
BITMAP
000000
003800
001C08
100C1C
1FFFFE
180000
180C00
180E00
180C00
180C00
180C00
180C20
180C70
1BFFF8
180C00
180C00
180C00
180C00
180C00
100C00
300C08
200C1C
4FFFFE
000000
ENDCHAR

STARTCHAR A23D
ENCODING 41533
SWIDTH 960 0
DWIDTH 24 0
BBX 24 24 0 -6
BITMAP
000000
000060
1FFFF0
000060
000060
100060
1FFFE0
180048
180008
180018
1FFFFC
0FFFF8
018180
01C1C0
018188
01819C
7FFFFE
018180
018180
030180
060180
180180
600180
000000
ENDCHAR

STARTCHAR A23E
ENCODING 41534
SWIDTH 960 0
DWIDTH 24 0
BBX 24 24 0 -6
BITMAP
000000
000600
00C300
00E300
018180
0300C0
060060
0FFFF8
18187E
60186C
041860
07FFE0
061840
061800
0C1830
0FFFF8
041830
001830
001870
001BE0
0018C0
001800
001800
000000
ENDCHAR

STARTCHAR A23F
ENCODING 41535
SWIDTH 960 0
DWIDTH 24 0
BBX 24 24 0 -6
BITMAP
000000
060C00
070E00
0E0C00
0C1C00
18180C
333FFE
43B00C
07600C
06400C
0E800C
1E000C
360C0C
46070C
06038C
06018C
06000C
06000C
06000C
06000C
06001C
0601F8
060070
000000
ENDCHAR

STARTCHAR A240
ENCODING 41536
SWIDTH 960 0
DWIDTH 24 0
BBX 24 24 0 -6
BITMAP
000000
0C0300
0E0380
0C0300
0C0300
0C0300
0C0308
2F031C
2DFFFE
2D8300
6C8300
6C0300
0C0300
0C0300
0C0380
0C0680
0C06C0
0C0CC0
0C0C60
0C1870
0C3038
0C601E
0D800C
000000
ENDCHAR

STARTCHAR A241
ENCODING 41537
SWIDTH 960 0
DWIDTH 24 0
BBX 24 24 0 -6
BITMAP
000000
0C0C00
0E0E00
0C0C08
0C0C1C
0C1FFE
0C3000
2F6000
2DC010
2DBFF8
6C8030
6C0060
0C00C0
0C0180
0C0300
0C0600
0C0C00
0C1800
0C3004
0C6004
0CC00C
0CFFFE
0C7FFC
000000
ENDCHAR

STARTCHAR A242
ENCODING 41538
SWIDTH 960 0
DWIDTH 24 0
BBX 24 24 0 -6
BITMAP
000000
0C0030
0E00F8
0C03E0
0C3F80
0C0180
0C0180
2F0180
2D8180
2D8188
6C819C
6C7FFE
0C0180
0C0180
0C0180
0C0180
0C0180
0C0180
0C0180
0C0180
0C0180
0C0180
0C0180
000000
ENDCHAR

STARTCHAR A243
ENCODING 41539
SWIDTH 960 0
DWIDTH 24 0
BBX 24 24 0 -6
BITMAP
000000
060018
071FFC
060180
060180
064180
7FE180
060180
060180
06418C
06BFFE
070180
0E0180
7E0180
760180
260180
060180
060180
060180
060180
3E0F80
0E0380
0C0300
000000
ENDCHAR

STARTCHAR A244
ENCODING 41540
SWIDTH 960 0
DWIDTH 24 0
BBX 24 24 0 -6
BITMAP
000000
060010
070038
061FFC
060180
064180
7FE180
060180
060180
060180
06C18C
073FFE
0E0180
7E0180
760180
260180
060180
060180
060180
060180
3E0180
0E0180
0C0180
000000
ENDCHAR

STARTCHAR A245
ENCODING 41541
SWIDTH 960 0
DWIDTH 24 0
BBX 24 24 0 -6
BITMAP
000000
060008
07001C
067FFE
060CC0
064CC0
7FECC0
060CC0
060CC0
064CC0
068CC0
070CC0
0E0CC0
7E0CC0
760CC0
260CC0
0618C0
0618C0
0618C4
0630C4
3E30CC
0E60FE
0C807C
000000
ENDCHAR

STARTCHAR A246
ENCODING 41542
SWIDTH 960 0
DWIDTH 24 0
BBX 24 24 0 -6
BITMAP
000000
060180
0701C0
061980
061D80
069980
7FD980
061998
0619FC
061F98
06F998
071998
0E19B0
7E19B0
7619B0
2619A0
061980
061980
061984
061804
3E180C
0E1FFE
0C0FFC
000000
ENDCHAR

STARTCHAR A247
ENCODING 41543
SWIDTH 960 0
DWIDTH 24 0
BBX 24 24 0 -6
BITMAP
000000
060060
0700F0
0603E0
061F80
064180
7FE180
060180
060180
064180
06818C
077FFE
0E0180
7E0180
760180
260180
060180
060180
060180
060180
3E0180
0E0180
0C0180
000000
ENDCHAR

STARTCHAR A248
ENCODING 41544
SWIDTH 960 0
DWIDTH 24 0
BBX 24 24 0 -6
BITMAP
000000
060C00
070E00
060C00
060C08
06981C
7FDFFE
063000
066000
060008
069FFC
070018
0E0030
7E0060
7600C0
260180
060300
060600
060C04
061804
3E300C
0E3FFE
0C1FFC
000000
ENDCHAR

STARTCHAR A249
ENCODING 41545
SWIDTH 960 0
DWIDTH 24 0
BBX 24 24 0 -6
BITMAP
000000
060180
0701C0
060180
060180
064188
7FE19C
063FFE
060180
060180
06C180
073180
0E1980
7E0D80
760D80
260780
060700
060380
0607C0
060CE0
3E1878
0E303E
0DC01C
000000
ENDCHAR

STARTCHAR A24A
ENCODING 41546
SWIDTH 960 0
DWIDTH 24 0
BBX 24 24 0 -6
BITMAP
000000
060000
07000C
063FFE
06100C
06500C
7FF00C
061318
061198
064998
068830
070830
0E0830
7E0460
760660
2603C0
0603C0
0601C0
0603E0
060670
3E0C38
0E181E
0CE00C
000000
ENDCHAR

STARTCHAR A24B
ENCODING 41547
SWIDTH 960 0
DWIDTH 24 0
BBX 24 24 0 -6
BITMAP
000000
060C00
070E00
060C00
060C00
06CC00
7FF80C
061FFE
06300C
06600C
06C00C
07000C
0E0E0C
7E070C
76030C
26000C
06000C
06000C
06000C
06000C
3E001C
0E01F8
0C0070
000000
ENDCHAR

STARTCHAR A24C
ENCODING 41548
SWIDTH 960 0
DWIDTH 24 0
BBX 24 24 0 -6
BITMAP
000000
060300
070380
060330
060378
0643F0
7FE7C0
063F00
060300
064300
068308
07031C
0E7FFE
7E0300
760300
260300
060300
060300
060304
060304
3E030C
0E03FE
0C01FC
000000
ENDCHAR

STARTCHAR A24D
ENCODING 41549
SWIDTH 960 0
DWIDTH 24 0
BBX 24 24 0 -6
BITMAP
000000
004600
00E700
7FF600
0C0600
0C0C08
0C0C1C
180FFE
181C18
30D41C
3FE418
10C418
00C430
00C230
00C330
00C360
00C1E0
00C1C0
00C1C0
01C360
038638
3F0C1E
0E300C
000000
ENDCHAR

STARTCHAR A24E
ENCODING 41550
SWIDTH 960 0
DWIDTH 24 0
BBX 24 24 0 -6
BITMAP
000000
080030
0FFFF8
0C0030
0C0030
0FFFF0
0C0030
0C0030
0FFFF0
046020
007000
006000
006180
3FFFC0
00C180
00C180
00C180
018180
018184
030184
06018C
0C01FE
3000FC
000000
ENDCHAR

STARTCHAR A24F
ENCODING 41551
SWIDTH 960 0
DWIDTH 24 0
BBX 24 24 0 -6
BITMAP
000000
00C000
00E000
00C000
00C180
3FFFC0
00C180
00C180
00C180
018184
018184
03018C
0601FE
0C00FC
180040
3FFFE0
0C0070
0C0060
0FFFE0
0C0060
0C0060
0FFFE0
040040
000000
ENDCHAR

STARTCHAR A250
ENCODING 41552
SWIDTH 960 0
DWIDTH 24 0
BBX 24 24 0 -6
BITMAP
000000
060008
07001C
063FFE
060180
060180
06C180
7FE180
060180
0E0180
0F8180
0EC180
1EC180
1E4180
360180
260180
460180
060180
060180
060180
060F80
060380
060300
000000
ENDCHAR

STARTCHAR A251
ENCODING 41553
SWIDTH 960 0
DWIDTH 24 0
BBX 24 24 0 -6
BITMAP
000000
060C00
070E00
060C00
060C00
060C00
06CC60
7FFFF0
060C60
0E0C60
0F8C60
0ECC60
1ECC60
1E4C60
360C60
260C60
461860
061860
061864
063064
06306C
06607E
07803C
000000
ENDCHAR

STARTCHAR A252
ENCODING 41554
SWIDTH 960 0
DWIDTH 24 0
BBX 24 24 0 -6
BITMAP
000000
060300
070380
060300
060300
060300
06C30C
7FFFFE
06030C
0E030C
0F830C
0EC30C
1EC30C
1E430C
36030C
26060C
46060C
06060C
060C0C
060C0C
06181C
0630F8
06C030
000000
ENDCHAR

STARTCHAR A253
ENCODING 41555
SWIDTH 960 0
DWIDTH 24 0
BBX 24 24 0 -6
BITMAP
000000
06000C
07000E
060C0C
060E0C
060C0C
06CC0C
7FEC0C
060C0C
0E0C0C
0F8C0C
0ECC0C
1ECC0C
1E4C0C
360C0C
260FFC
46040C
06000C
06000C
06000C
06000C
06000C
06000C
000000
ENDCHAR

STARTCHAR A254
ENCODING 41556
SWIDTH 960 0
DWIDTH 24 0
BBX 24 24 0 -6
BITMAP
000000
061060
071FF0
061860
061860
061860
06D860
7FF860
061860
0E1860
0F9860
0ED860
1ED860
1E5860
361860
261860
461860
061860
061864
063064
06306C
06607E
06C03C
000000
ENDCHAR

STARTCHAR A255
ENCODING 41557
SWIDTH 960 0
DWIDTH 24 0
BBX 24 24 0 -6
BITMAP
000000
001800
001C08
00181C
7FFFFE
001800
001800
081830
0FFFF8
0C1830
0C1830
0C1830
0C1830
0C19F0
0C3C60
007E00
00DB00
0199C0
0318F0
0C187E
70183C
001800
001800
000000
ENDCHAR

STARTCHAR A256
ENCODING 41558
SWIDTH 960 0
DWIDTH 24 0
BBX 24 24 0 -6
BITMAP
000000
061800
071C00
061800
061800
061800
06D800
7FF800
061800
0E1810
0F9838
0EDFFC
1ED800
1E5800
361800
261800
461800
061800
061804
061804
06180C
061FFE
060FFC
000000
ENDCHAR

STARTCHAR A257
ENCODING 41559
SWIDTH 960 0
DWIDTH 24 0
BBX 24 24 0 -6
BITMAP
000000
060700
070380
060300
060300
063300
06BB00
7FF300
063180
0E3180
0FB180
0EF180
1EF180
1E70C0
3630C0
2630C0
463060
066060
066030
064038
06C01C
06801E
07000C
000000
ENDCHAR

STARTCHAR A258
ENCODING 41560
SWIDTH 960 0
DWIDTH 24 0
BBX 24 24 0 -6
BITMAP
000000
030020
038070
07FFF8
060000
0C00C0
1BFFE0
300000
4000C0
0FFFE0
0000C0
0000C0
030CC0
038EC0
030CC0
030CC0
030C60
030C60
030C64
060C34
060C3C
0C0C1E
300C0C
000000
ENDCHAR

STARTCHAR A259
ENCODING 41561
SWIDTH 960 0
DWIDTH 24 0
BBX 24 24 0 -6
BITMAP
000000
004000
003000
001800
003C00
006600
00C300
018180
0318C0
061C70
18183E
60185C
0058E0
3FF980
007E00
007C00
00DB00
0199C0
0318E0
0C187E
70F83C
003800
003000
000000
ENDCHAR

STARTCHAR A25A
ENCODING 41562
SWIDTH 960 0
DWIDTH 24 0
BBX 24 24 0 -6
BITMAP
000000
002000
101800
0C0E00
0E0708
06031C
03FFFE
406000
306000
386000
186000
026000
026000
046000
046000
0C6000
186000
786000
386000
1C6000
0C6000
0C7FFC
003FF8
000000
ENDCHAR

STARTCHAR A25B
ENCODING 41563
SWIDTH 960 0
DWIDTH 24 0
BBX 24 24 0 -6
BITMAP
000000
004018
107FFC
0C6018
0E6018
066018
006018
406018
306018
386018
186018
027FF8
026010
046000
046000
0C6000
186000
786000
386004
1C6004
0C600C
0C7FFE
003FFC
000000
ENDCHAR

STARTCHAR A25C
ENCODING 41564
SWIDTH 960 0
DWIDTH 24 0
BBX 24 24 0 -6
BITMAP
000000
000300
100380
0C0300
0E0300
060300
000300
400308
30031C
38FFFE
180300
020300
020300
040300
040380
0C0680
180680
780CC0
380C60
1C1870
0C3038
0C601E
01800C
000000
ENDCHAR

STARTCHAR A25D
ENCODING 41565
SWIDTH 960 0
DWIDTH 24 0
BBX 24 24 0 -6
BITMAP
000000
00000C
10FFFE
0C400C
0E400C
06460C
00430C
404198
302098
382018
182030
023030
021860
041860
040CC0
0C06C0
180380
780380
3806C0
1C0C60
0C1838
0C301E
01C00C
000000
ENDCHAR

STARTCHAR A25E
ENCODING 41566
SWIDTH 960 0
DWIDTH 24 0
BBX 24 24 0 -6
BITMAP
000000
001800
101C00
0C1800
0E1808
06301C
003FFE
406000
304000
388008
183FFC
020018
020030
040060
0400C0
0C0180
180300
780600
380C04
1C1804
0C300C
0C7FFE
003FFC
000000
ENDCHAR

STARTCHAR A25F
ENCODING 41567
SWIDTH 960 0
DWIDTH 24 0
BBX 24 24 0 -6
BITMAP
000000
000C00
100E00
0C0C00
0E0C00
06180C
001FFE
40300C
30200C
38400C
18800C
020C0C
02070C
04038C
0401CC
0C00CC
18000C
78000C
38000C
1C000C
0C001C
0C00F8
000030
000000
ENDCHAR

STARTCHAR A260
ENCODING 41568
SWIDTH 960 0
DWIDTH 24 0
BBX 24 24 0 -6
BITMAP
000000
00C00C
10E30E
0CC38C
0EC30C
06C30C
00C30C
40C30C
30C30C
38C30C
18C30C
02C30C
02C30C
04C30C
04C30C
0CC30C
18C30C
78C30C
38C30C
1C830C
0D830C
0D030C
02000C
000000
ENDCHAR

STARTCHAR A261
ENCODING 41569
SWIDTH 960 0
DWIDTH 24 0
BBX 24 24 0 -6
BITMAP
000000
060000
07000C
061FFE
06018C
06818C
06C18C
67818C
66018C
76018C
36018C
16018C
16030C
06030C
06030C
07060C
0D860C
0CC60C
08CC0C
18CC18
101838
2031F0
40C060
000000
ENDCHAR

STARTCHAR A262
ENCODING 41570
SWIDTH 960 0
DWIDTH 24 0
BBX 24 24 0 -6
BITMAP
000000
030000
038180
0301C0
1B0180
1B0180
1B6180
1FF18C
331FFE
33030C
23030C
43330C
03C30C
07030C
1F030C
7B060C
330618
030418
030C18
030818
030838
0311F0
032060
000000
ENDCHAR

STARTCHAR A263
ENCODING 41571
SWIDTH 960 0
DWIDTH 24 0
BBX 24 24 0 -6
BITMAP
000000
010000
418000
338030
1B1FF8
0E0180
0C0180
1E0180
330180
43018C
037FFE
070180
0D8180
0D8180
198180
198180
318180
418180
018180
030180
070180
1E0180
0C0180
000000
ENDCHAR

STARTCHAR A264
ENCODING 41572
SWIDTH 960 0
DWIDTH 24 0
BBX 24 24 0 -6
BITMAP
000000
010600
41C700
338600
1B0618
0E0FFC
0C0C00
1E1800
331000
432030
030FF8
078030
0D8060
0D80C0
198180
198180
318300
418304
018604
030604
070C0C
1E0FFE
0C07FC
000000
ENDCHAR

STARTCHAR A265
ENCODING 41573
SWIDTH 960 0
DWIDTH 24 0
BBX 24 24 0 -6
BITMAP
000000
000008
01001C
7FBFFE
0C0180
0C0180
0C0180
0C0180
0C0180
0D0180
7F8180
0C0180
0C0180
0C0180
0C0180
0C8180
0F0180
7C0180
780180
600180
001F80
000780
000300
000000
ENDCHAR

STARTCHAR A266
ENCODING 41574
SWIDTH 960 0
DWIDTH 24 0
BBX 24 24 0 -6
BITMAP
000000
001000
003000
01F800
0F0030
0FFFF8
0C1830
0C1830
0C1830
0FFFF0
0C1830
0C1830
0C1830
0C1830
0FFFF0
0C1830
081830
081830
101830
101830
101BF0
2000F0
400060
000000
ENDCHAR

STARTCHAR A267
ENCODING 41575
SWIDTH 960 0
DWIDTH 24 0
BBX 24 24 0 -6
BITMAP
000000
060600
070700
0C0600
486600
7FF600
606600
606600
606600
606600
606600
606600
7FE600
606600
606600
606600
606600
606604
606604
7FE604
20460C
0007FE
0003FC
000000
ENDCHAR

STARTCHAR A268
ENCODING 41576
SWIDTH 960 0
DWIDTH 24 0
BBX 24 24 0 -6
BITMAP
000000
006000
003800
081818
0FFFFC
18C618
38E630
31C600
0307FE
0C03FC
700000
000300
03FF80
000600
000C00
001800
003000
006010
00C010
018010
030038
03FFF0
01FFE0
000000
ENDCHAR

STARTCHAR A269
ENCODING 41577
SWIDTH 960 0
DWIDTH 24 0
BBX 24 24 0 -6
BITMAP
000000
200018
3FFFFC
300018
300018
300818
382C58
366EF8
366ED8
33C798
318718
318318
33C798
36E6D8
3476F8
3C2E58
300818
300018
300018
300098
300058
300078
300030
000000
ENDCHAR

STARTCHAR A26A
ENCODING 41578
SWIDTH 960 0
DWIDTH 24 0
BBX 24 24 0 -6
BITMAP
000000
000000
040080
0700E0
0600C0
4648C8
667ECE
666CCC
666CCC
666CCC
7FEFFC
2644C8
0600C0
0600C0
0C00C0
0C00C0
0C00C0
0C00C0
1800C0
3000C0
4000C0
0000C0
000000
000000
ENDCHAR

STARTCHAR A26B
ENCODING 41579
SWIDTH 960 0
DWIDTH 24 0
BBX 24 24 0 -6
BITMAP
000000
030180
0381C8
03019C
7FC7FE
030180
030180
0301A0
000070
1FFFF8
001800
001800
001800
001800
001800
001800
001800
001800
001800
001800
00F800
003800
001000
000000
ENDCHAR

STARTCHAR A26C
ENCODING 41580
SWIDTH 960 0
DWIDTH 24 0
BBX 24 24 0 -6
BITMAP
000000
030180
0381C8
03019C
7FC7FE
030180
030180
030180
000020
000070
1FFFF8
006070
006060
006060
006060
006060
006060
00C060
00C060
0187E0
0303C0
040180
080000
000000
ENDCHAR

STARTCHAR A26D
ENCODING 41581
SWIDTH 960 0
DWIDTH 24 0
BBX 24 24 0 -6
BITMAP
000000
030180
0381C8
03019C
7FC7FE
030180
030180
033180
003800
003000
003180
1FFFC0
0031C0
006180
006180
006180
00E302
00C304
018304
018384
03018E
0E01FE
7800FC
000000
ENDCHAR

STARTCHAR A26E
ENCODING 41582
SWIDTH 960 0
DWIDTH 24 0
BBX 24 24 0 -6
BITMAP
000000
018180
01C1C8
01819C
7FE7FE
018180
018180
000030
1FFFF8
006030
006060
0060C0
00C18C
00C1FE
00C18C
01800C
01000C
03000C
06000C
0C0018
080038
1001F0
600060
000000
ENDCHAR

STARTCHAR A26F
ENCODING 41583
SWIDTH 960 0
DWIDTH 24 0
BBX 24 24 0 -6
BITMAP
000000
001C00
001820
001FF0
001800
101804
1FFFFE
18000C
186008
187000
186000
186000
186010
1BFFF8
186000
186000
186000
106000
107FFC
203FF8
200000
200000
400000
000000
ENDCHAR

STARTCHAR A270
ENCODING 41584
SWIDTH 960 0
DWIDTH 24 0
BBX 24 24 0 -6
BITMAP
000000
000010
000038
3FFFFC
00C300
00C300
00C300
10C318
1FFFFC
18C318
18C318
18C318
18C318
18C318
18C318
18FF18
184218
180018
180018
180018
180018
180018
180018
000000
ENDCHAR

STARTCHAR A271
ENCODING 41585
SWIDTH 960 0
DWIDTH 24 0
BBX 24 24 0 -6
BITMAP
000000
0C0000
060208
0303FE
03331C
7FFB18
180310
180330
180320
180360
180330
180318
18031C
18030E
180306
180306
18030E
18031C
1803FC
1FFB38
0FF310
000300
000300
000000
ENDCHAR

STARTCHAR A272
ENCODING 41586
SWIDTH 960 0
DWIDTH 24 0
BBX 24 24 0 -6
BITMAP
000000
003000
1FFA08
0183FE
01831C
018318
018310
019B30
7FFF20
018360
018330
018318
01831C
01830E
018306
018306
01830E
01831C
0183FC
018338
018310
018300
018300
000000
ENDCHAR

STARTCHAR A273
ENCODING 41587
SWIDTH 960 0
DWIDTH 24 0
BBX 24 24 0 -6
BITMAP
000000
003000
1FFA08
0183FE
01831C
018318
018310
019B30
7FFF20
018360
018330
018318
01831C
01830E
018306
018306
01830E
01831C
0183FC
018338
0F8310
078300
030300
000000
ENDCHAR

STARTCHAR A274
ENCODING 41588
SWIDTH 960 0
DWIDTH 24 0
BBX 24 24 0 -6
BITMAP
000000
000000
003208
3FFBFE
03031C
030318
030310
030330
030320
030360
030330
030318
03031C
03030E
030306
030306
03030E
033B1C
07E3FC
7F8338
7C0310
200300
000300
000000
ENDCHAR

STARTCHAR A275
ENCODING 41589
SWIDTH 960 0
DWIDTH 24 0
BBX 24 24 0 -6
BITMAP
000000
000000
006208
7FF3FE
00631C
006318
006310
006330
006320
006360
7FE330
604318
60031C
60030E
600306
600306
60130E
60131C
6013FC
603338
607B10
7FFB00
3FF300
000000
ENDCHAR

STARTCHAR A276
ENCODING 41590
SWIDTH 960 0
DWIDTH 24 0
BBX 24 24 0 -6
BITMAP
000000
410000
7F8000
63800C
637FFE
6606C0
6406C0
6806C0
6406C0
6206C0
6306C0
6186C0
6186C0
618CC0
638CC0
6F0CC0
660CC4
6018C4
6018C4
6018CE
6030CE
6060FC
61C078
000000
ENDCHAR

STARTCHAR A277
ENCODING 41591
SWIDTH 960 0
DWIDTH 24 0
BBX 24 24 0 -6
BITMAP
000000
4100C0
7F80E0
638CC0
630EC0
660CC0
640CC0
680CCC
640CFE
620FCC
633CCC
618CCC
618CCC
618CD8
638CD8
6F0CD8
660CD0
600CC0
600C04
600C04
600C0C
600FFE
6007FC
000000
ENDCHAR

STARTCHAR A278
ENCODING 41592
SWIDTH 960 0
DWIDTH 24 0
BBX 24 24 0 -6
BITMAP
000000
410060
7FBFF0
639860
631C60
661860
641860
681860
641860
621860
631960
61BFE0
619860
619860
639860
6F1860
661860
601864
601864
601876
60187E
60183C
601800
000000
ENDCHAR

STARTCHAR A279
ENCODING 41593
SWIDTH 960 0
DWIDTH 24 0
BBX 24 24 0 -6
BITMAP
000000
410800
7F8E00
639820
631070
663FF8
642000
68C000
640040
623FE0
6300C0
618180
618100
618300
638600
6F0C00
660800
601800
603008
603008
60301C
603FFC
601FF8
000000
ENDCHAR

STARTCHAR A27A
ENCODING 41594
SWIDTH 960 0
DWIDTH 24 0
BBX 24 24 0 -6
BITMAP
000000
06080C
07060E
06030C
06018C
0C1998
0C1C18
1C1830
1C1830
3C1860
2C5860
4C58C0
0C58C0
0C5998
0CD98C
0CDB06
0DDE06
0D9C00
0D9804
0C3804
0C780C
0D9FFE
0C0FFC
000000
ENDCHAR

STARTCHAR A27B
ENCODING 41595
SWIDTH 960 0
DWIDTH 24 0
BBX 24 24 0 -6
BITMAP
000000
060010
070038
06FFFC
060300
0C0300
0C8318
1C631C
1C3318
3C3330
2C3340
4C0308
0C031C
0DFFFE
0C0300
0C0300
0C0300
0C0300
0C0300
0C0300
0C0300
0C0300
0C0300
000000
ENDCHAR

STARTCHAR A27C
ENCODING 41596
SWIDTH 960 0
DWIDTH 24 0
BBX 24 24 0 -6
BITMAP
000000
060008
07001C
067FFE
063000
0C3000
0C3000
1C3000
1C3018
3C3FFC
2C3018
4C3018
0C3018
0C3018
0C3018
0C3FF8
0C3010
0C3000
0C3000
0C3008
0C301C
0C7FFE
0C0000
000000
ENDCHAR

STARTCHAR A27D
ENCODING 41597
SWIDTH 960 0
DWIDTH 24 0
BBX 24 24 0 -6
BITMAP
000000
060300
070380
060300
060300
0C0318
0CFFFC
1C0300
1C0300
3C0300
2C0308
4C031C
0DFFFE
0C0300
0C0600
0C0C00
0C1800
0C3020
0C6018
0CC00C
0DFFFE
0CFE0E
0C7006
000000
ENDCHAR

STARTCHAR A27E
ENCODING 41598
SWIDTH 960 0
DWIDTH 24 0
BBX 24 24 0 -6
BITMAP
000000
060300
070380
060300
060308
0C031C
0DFFFE
1C0700
1C0F80
3C0FC0
2C1BC0
4C1B60
0C3330
0C6318
0CC31C
0D832E
0E3FF4
0C0300
0C0300
0C0300
0C0300
0C0300
0C0300
000000
ENDCHAR

STARTCHAR A2A1
ENCODING 41633
SWIDTH 960 0
DWIDTH 24 0
BBX 24 24 0 -6
BITMAP
000000
000000
007E00
01C380
0700E0
0C0030
1BFFD8
33FFCC
30180C
601806
601806
619FC6
619FC6
619806
619806
31980C
31980C
3FFFFC
1FFFF8
0E0070
03C3C0
007E00
000000
000000
ENDCHAR

STARTCHAR A2A2
ENCODING 41634
SWIDTH 960 0
DWIDTH 24 0
BBX 24 24 0 -6
BITMAP
000000
038002
0EE006
18300C
303018
301030
600060
6000C0
600180
600300
6026F0
306D98
18DB0C
0FB30C
006606
00C606
018606
030606
060606
0C060C
18030C
300198
6000F0
000000
ENDCHAR

STARTCHAR A2A3
ENCODING 41635
SWIDTH 960 0
DWIDTH 24 0
BBX 24 24 0 -6
BITMAP
000000
000000
000000
07FFE0
000000
000000
000000
000000
000000
000000
000000
000000
000000
000000
000000
000000
000000
000000
000000
000000
000000
000000
000000
000000
ENDCHAR

STARTCHAR A2A4
ENCODING 41636
SWIDTH 960 0
DWIDTH 24 0
BBX 24 24 0 -6
BITMAP
000000
000000
000000
07FFE0
07FFE0
000000
000000
000000
000000
000000
000000
000000
000000
000000
000000
000000
000000
000000
000000
000000
000000
000000
000000
000000
ENDCHAR

STARTCHAR A2A5
ENCODING 41637
SWIDTH 960 0
DWIDTH 24 0
BBX 24 24 0 -6
BITMAP
000000
000000
000000
000000
000000
000000
000000
000000
000000
000000
000000
000000
000000
000000
000000
000000
000000
000000
000000
000000
000000
0FFFF8
000000
000000
ENDCHAR

STARTCHAR A2A6
ENCODING 41638
SWIDTH 960 0
DWIDTH 24 0
BBX 24 24 0 -6
BITMAP
000000
000000
000000
000000
000000
000000
000000
000000
000000
000000
000000
000000
000000
000000
000000
000000
000000
000000
000000
000000
1FFFF0
1FFFF0
000000
000000
ENDCHAR

STARTCHAR A2A7
ENCODING 41639
SWIDTH 960 0
DWIDTH 24 0
BBX 24 24 0 -6
BITMAP
000000
000000
3C78F0
000000
000000
000000
000000
000000
000000
000000
000000
000000
000000
000000
000000
000000
000000
000000
000000
000000
000000
000000
000000
000000
ENDCHAR

STARTCHAR A2A8
ENCODING 41640
SWIDTH 960 0
DWIDTH 24 0
BBX 24 24 0 -6
BITMAP
000000
000000
7FB7FC
000000
000000
000000
000000
000000
000000
000000
000000
000000
000000
000000
000000
000000
000000
000000
000000
000000
000000
000000
000000
000000
ENDCHAR

STARTCHAR A2A9
ENCODING 41641
SWIDTH 960 0
DWIDTH 24 0
BBX 24 24 0 -6
BITMAP
000000
000000
000000
000000
000000
000000
000000
000000
000000
000000
000000
000000
000000
000000
000000
000000
000000
000000
000000
000000
000000
000000
1C3870
000000
ENDCHAR

STARTCHAR A2AA
ENCODING 41642
SWIDTH 960 0
DWIDTH 24 0
BBX 24 24 0 -6
BITMAP
000000
000000
000000
000000
000000
000000
000000
000000
000000
000000
000000
000000
000000
000000
000000
000000
000000
000000
000000
000000
000000
000000
3FB7F0
000000
ENDCHAR

STARTCHAR A2AB
ENCODING 41643
SWIDTH 960 0
DWIDTH 24 0
BBX 24 24 0 -6
BITMAP
000000
000000
0701C0
088220
104410
203808
000000
000000
000000
000000
000000
000000
000000
000000
000000
000000
000000
000000
000000
000000
000000
000000
000000
000000
ENDCHAR

STARTCHAR A2AC
ENCODING 41644
SWIDTH 960 0
DWIDTH 24 0
BBX 24 24 0 -6
BITMAP
000000
000000
0380E0
07C1F0
0C6318
183E0C
101C04
000000
000000
000000
000000
000000
000000
000000
000000
000000
000000
000000
000000
000000
000000
000000
000000
000000
ENDCHAR

STARTCHAR A2AD
ENCODING 41645
SWIDTH 960 0
DWIDTH 24 0
BBX 24 24 0 -6
BITMAP
000000
000000
00C000
18C000
18C000
18C000
18F000
1FF000
7FC000
78C000
18C000
18C000
18C000
18F000
1FF000
7FC000
78C000
18C000
18C000
18C000
18C000
180000
000000
000000
ENDCHAR

STARTCHAR A2AE
ENCODING 41646
SWIDTH 960 0
DWIDTH 24 0
BBX 24 24 0 -6
BITMAP
000000
000000
000000
000000
03E000
0C1800
180C00
180C00
0C1800
0C1800
066000
018E00
038400
0CC400
18C800
306800
306800
303200
303200
18CC00
070000
000000
000000
000000
ENDCHAR

STARTCHAR A2AF
ENCODING 41647
SWIDTH 960 0
DWIDTH 24 0
BBX 24 24 0 -6
BITMAP
000000
000000
000000
000000
030000
030000
030000
631800
333000
1B6000
0FC000
030000
0FC000
1B6000
333000
631800
030000
030000
030000
000000
000000
000000
000000
000000
ENDCHAR

STARTCHAR A2B0
ENCODING 41648
SWIDTH 960 0
DWIDTH 24 0
BBX 24 24 0 -6
BITMAP
000000
000000
000000
001800
001800
001800
001800
001800
001800
001800
001800
1FFFF8
1FFFF8
001800
001800
001800
001800
001800
001800
001800
001800
000000
000000
000000
ENDCHAR

STARTCHAR A2B1
ENCODING 41649
SWIDTH 960 0
DWIDTH 24 0
BBX 24 24 0 -6
BITMAP
000000
000000
000000
000000
000000
000000
000000
000000
000000
000000
000000
1FFFF8
1FFFF8
000000
000000
000000
000000
000000
000000
000000
000000
000000
000000
000000
ENDCHAR

STARTCHAR A2B2
ENCODING 41650
SWIDTH 960 0
DWIDTH 24 0
BBX 24 24 0 -6
BITMAP
000000
000000
000000
000000
180030
0C0060
0600C0
030180
018300
00C600
006C00
003800
006C00
00C600
018300
030180
0600C0
0C0060
180030
000000
000000
000000
000000
000000
ENDCHAR

STARTCHAR A2B3
ENCODING 41651
SWIDTH 960 0
DWIDTH 24 0
BBX 24 24 0 -6
BITMAP
000000
000000
000000
001000
003800
007C00
003800
001000
000000
000000
000000
0FFFF0
0FFFF0
000000
000000
000000
000000
001000
003800
007C00
003800
001000
000000
000000
ENDCHAR

STARTCHAR A2B4
ENCODING 41652
SWIDTH 960 0
DWIDTH 24 0
BBX 24 24 0 -6
BITMAP
000000
000000
003000
003000
003000
003000
003000
003000
003000
3FFFF8
3FFFF8
003000
003000
003000
003000
003000
003000
003000
003000
000000
3FFFF8
3FFFF8
000000
000000
ENDCHAR

STARTCHAR A2B5
ENCODING 41653
SWIDTH 960 0
DWIDTH 24 0
BBX 24 24 0 -6
BITMAP
000000
0003FE
0003FE
000400
000400
000400
000800
000800
000800
001000
001000
701000
182000
182000
182000
0C4000
0C4000
0C4000
068000
068000
068000
030000
030000
000000
ENDCHAR

STARTCHAR A2B6
ENCODING 41654
SWIDTH 960 0
DWIDTH 24 0
BBX 24 24 0 -6
BITMAP
000000
000000
000000
000000
000038
0001C0
000700
001C00
007000
01C000
070000
1C0000
070000
01C000
007000
001C00
000700
0001C0
000038
000000
000000
000000
000000
000000
ENDCHAR

STARTCHAR A2B7
ENCODING 41655
SWIDTH 960 0
DWIDTH 24 0
BBX 24 24 0 -6
BITMAP
000000
000000
000000
300000
0E0000
038000
00E000
003800
000E00
000380
0000E0
000038
0000E0
000380
000E00
003800
00E000
038000
0E0000
300000
000000
000000
000000
000000
ENDCHAR

STARTCHAR A2B8
ENCODING 41656
SWIDTH 960 0
DWIDTH 24 0
BBX 24 24 0 -6
BITMAP
000000
000000
000000
000000
000000
000000
000000
000000
1FFFF8
1FFFF8
000000
000000
000000
000000
1FFFF8
1FFFF8
000000
000000
000000
000000
000000
000000
000000
000000
ENDCHAR

STARTCHAR A2B9
ENCODING 41657
SWIDTH 960 0
DWIDTH 24 0
BBX 24 24 0 -6
BITMAP
000000
000000
000000
0000F0
000780
003C00
01E000
070000
1C0000
070000
01E000
003C00
000780
0000F0
000000
000000
0FFFF0
0FFFF0
000000
000000
000000
0FFFF0
0FFFF0
000000
ENDCHAR

STARTCHAR A2BA
ENCODING 41658
SWIDTH 960 0
DWIDTH 24 0
BBX 24 24 0 -6
BITMAP
000000
000000
000000
0F0000
01E000
003C00
000780
0000E0
000038
0000E0
000780
003C00
01E000
0F0000
000000
000000
0FFFF0
0FFFF0
000000
000000
000000
0FFFF0
0FFFF0
000000
ENDCHAR

STARTCHAR A2BB
ENCODING 41659
SWIDTH 960 0
DWIDTH 24 0
BBX 24 24 0 -6
BITMAP
000000
000000
000300
000300
000600
000600
000C00
000C00
0FFFF0
0FFFF0
001800
001800
003000
003000
0FFFF0
0FFFF0
006000
006000
00C000
00C000
018000
018000
000000
000000
ENDCHAR

STARTCHAR A2BC
ENCODING 41660
SWIDTH 960 0
DWIDTH 24 0
BBX 24 24 0 -6
BITMAP
000000
000000
000000
000000
000000
000000
000000
0F00F0
108108
204204
402402
401802
401802
402402
204204
108108
0F00F0
000000
000000
000000
000000
000000
000000
000000
ENDCHAR

STARTCHAR A2BD
ENCODING 41661
SWIDTH 960 0
DWIDTH 24 0
BBX 24 24 0 -6
BITMAP
000000
000000
010000
038000
07C000
038000
010000
000000
0FFFF0
0FFFF0
000000
000000
000000
000000
0FFFF0
0FFFF0
000000
000000
000040
0000E0
0001F0
0000E0
000040
000000
ENDCHAR

STARTCHAR A2BE
ENCODING 41662
SWIDTH 960 0
DWIDTH 24 0
BBX 24 24 0 -6
BITMAP
000000
000000
000000
000000
000000
0FFFF0
0FFFF0
000000
000000
000000
000000
0FFFF0
0FFFF0
000000
000000
000000
000000
0FFFF0
0FFFF0
000000
000000
000000
000000
000000
ENDCHAR

STARTCHAR A2BF
ENCODING 41663
SWIDTH 960 0
DWIDTH 24 0
BBX 24 24 0 -6
BITMAP
000000
000000
000000
000000
060000
060000
060000
060000
060000
060000
7FE000
7FE000
060000
060000
060000
060000
060000
060000
060000
000000
000000
000000
000000
000000
ENDCHAR

STARTCHAR A2C0
ENCODING 41664
SWIDTH 960 0
DWIDTH 24 0
BBX 24 24 0 -6
BITMAP
000000
000000
000000
000000
000000
000000
000000
000000
000000
000000
0FF800
0FF800
000000
000000
000000
000000
000000
000000
000000
000000
000000
000000
000000
000000
ENDCHAR

STARTCHAR A2C1
ENCODING 41665
SWIDTH 960 0
DWIDTH 24 0
BBX 24 24 0 -6
BITMAP
000000
000000
000000
000000
000000
000000
000E00
007000
01C000
070000
1C0000
700000
1C0000
070000
01C000
007000
000E00
000000
000000
000000
000000
000000
000000
000000
ENDCHAR

STARTCHAR A2C2
ENCODING 41666
SWIDTH 960 0
DWIDTH 24 0
BBX 24 24 0 -6
BITMAP
000000
000000
000000
000000
000000
000000
003800
000E00
000380
0000E0
000038
00000E
000038
0000E0
000380
000E00
003800
000000
000000
000000
000000
000000
000000
000000
ENDCHAR

STARTCHAR A2C3
ENCODING 41667
SWIDTH 960 0
DWIDTH 24 0
BBX 24 24 0 -6
BITMAP
000000
000000
000000
000000
000000
000000
000000
7FE000
7FE000
000000
000000
000000
000000
000000
7FE000
7FE000
000000
000000
000000
000000
000000
000000
000000
000000
ENDCHAR

STARTCHAR A2C4
ENCODING 41668
SWIDTH 960 0
DWIDTH 24 0
BBX 24 24 0 -6
BITMAP
000000
000000
000000
000000
000000
000000
000000
000000
078000
1CE00C
30300C
601818
600E70
0003C0
000000
000000
000000
000000
000000
000000
000000
000000
000000
000000
ENDCHAR

STARTCHAR A2C5
ENCODING 41669
SWIDTH 960 0
DWIDTH 24 0
BBX 24 24 0 -6
BITMAP
000000
000000
000000
000000
003C00
01C380
0300C0
0300C0
060060
060060
060060
060060
060060
060060
060060
060060
060060
060060
060060
060060
000000
000000
000000
000000
ENDCHAR

STARTCHAR A2C6
ENCODING 41670
SWIDTH 960 0
DWIDTH 24 0
BBX 24 24 0 -6
BITMAP
000000
000000
000000
000000
060060
060060
060060
060060
060060
060060
060060
060060
060060
060060
060060
060060
0300C0
0300C0
01C380
003C00
000000
000000
000000
000000
ENDCHAR

STARTCHAR A2C7
ENCODING 41671
SWIDTH 960 0
DWIDTH 24 0
BBX 24 24 0 -6
BITMAP
000000
000000
000000
000000
003000
003000
003000
003000
003000
003000
003000
003000
003000
003000
003000
003000
003000
003000
1FFFF0
1FFFF0
000000
000000
000000
000000
ENDCHAR

STARTCHAR A2C8
ENCODING 41672
SWIDTH 960 0
DWIDTH 24 0
BBX 24 24 0 -6
BITMAP
000000
000000
000000
000000
000030
000060
0000C0
000180
000300
000600
000C00
001800
003000
006000
00C000
018000
030000
060000
0FFFF0
0FFFF0
000000
000000
000000
000000
ENDCHAR

STARTCHAR A2C9
ENCODING 41673
SWIDTH 960 0
DWIDTH 24 0
BBX 24 24 0 -6
BITMAP
000000
000000
000000
000000
180000
180000
180000
180000
180000
180000
180000
180000
180000
180000
180000
180000
180000
180000
180000
1FFFF0
1FFFF0
000000
000000
000000
ENDCHAR

STARTCHAR A2CA
ENCODING 41674
SWIDTH 960 0
DWIDTH 24 0
BBX 24 24 0 -6
BITMAP
000000
000000
000000
000018
000038
000078
0000D8
000198
000318
000618
000C18
001818
003018
006018
00C018
018018
030018
060018
0C0018
1FFFF8
1FFFF8
000000
000000
000000
ENDCHAR

STARTCHAR A2CB
ENCODING 41675
SWIDTH 960 0
DWIDTH 24 0
BBX 24 24 0 -6
BITMAP
000000
000000
000000
700000
300000
300000
300000
300000
31C1C2
336334
363618
363618
363370
3631C0
363100
363200
3631C0
363378
36360C
33660C
31C338
7801E0
000000
000000
ENDCHAR

STARTCHAR A2CC
ENCODING 41676
SWIDTH 960 0
DWIDTH 24 0
BBX 24 24 0 -6
BITMAP
000000
000000
000000
1C0000
0C0000
0C0000
0C0000
0C0000
0CE7C0
0C6C60
0C7830
0C6030
0C6030
0C6030
0C6030
0C6030
0C6030
0C6030
0C6030
0C6030
1EF078
000000
000000
000000
ENDCHAR

STARTCHAR A2CD
ENCODING 41677
SWIDTH 960 0
DWIDTH 24 0
BBX 24 24 0 -6
BITMAP
000000
000780
0018E0
001830
003030
003000
003000
003000
003000
003000
003000
001800
001800
001800
001800
001800
001800
001800
001800
181800
183000
0E3000
01C000
000000
ENDCHAR

STARTCHAR A2CE
ENCODING 41678
SWIDTH 960 0
DWIDTH 24 0
BBX 24 24 0 -6
BITMAP
000000
000700
0018C0
001820
003020
003000
003000
003000
00FE00
033180
0330C0
0618C0
0618C0
061980
019980
007E00
001800
001800
001800
081800
083000
063000
01C000
000000
ENDCHAR

STARTCHAR A2CF
ENCODING 41679
SWIDTH 960 0
DWIDTH 24 0
BBX 24 24 0 -6
BITMAP
000000
000000
000000
000000
020040
0700E0
0700E0
020040
000000
000000
000000
000000
000000
000000
000000
001000
003800
003800
001000
000000
000000
000000
000000
000000
ENDCHAR

STARTCHAR A2D0
ENCODING 41680
SWIDTH 960 0
DWIDTH 24 0
BBX 24 24 0 -6
BITMAP
000000
000000
000000
000000
001000
003800
003800
001000
000000
000000
000000
000000
000000
000000
000000
040040
0E00E0
0E00E0
040040
000000
000000
000000
000000
000000
ENDCHAR

STARTCHAR A2D1
ENCODING 41681
SWIDTH 960 0
DWIDTH 24 0
BBX 24 24 0 -6
BITMAP
000000
003C00
00FF00
018180
0300C0
060060
060060
060060
060060
0300C0
018180
007E00
001800
001800
001800
001800
0FFFE0
001800
001800
001800
001800
001800
001800
000000
ENDCHAR

STARTCHAR A2D2
ENCODING 41682
SWIDTH 960 0
DWIDTH 24 0
BBX 24 24 0 -6
BITMAP
000000
000000
001800
003C00
007E00
00DB00
019980
0318C0
061860
0C1830
001800
001800
003C00
01C380
0300C0
060060
060060
060060
060060
0300C0
01C380
003C00
000000
000000
ENDCHAR

STARTCHAR A2D3
ENCODING 41683
SWIDTH 960 0
DWIDTH 24 0
BBX 24 24 0 -6
BITMAP
000000
000000
000000
000000
000000
000000
007E00
00FF00
0318C0
061860
061860
0C1830
0C1830
0FFFF0
0FFFF0
0C1830
0C1830
061860
061860
0318C0
00FF00
007E00
000000
000000
ENDCHAR

STARTCHAR A2D4
ENCODING 41684
SWIDTH 960 0
DWIDTH 24 0
BBX 24 24 0 -6
BITMAP
000000
000000
000000
000000
000000
000000
000000
000000
003C00
007E00
018180
0300C0
0300C0
061860
063C60
063C60
061860
0300C0
0300C0
018180
007E00
003C00
000000
000000
ENDCHAR

STARTCHAR A2D5
ENCODING 41685
SWIDTH 960 0
DWIDTH 24 0
BBX 24 24 0 -6
BITMAP
000000
003000
003000
007800
00FC00
01B600
01B600
033300
033300
023100
003000
003000
003000
003000
003000
003000
003000
003000
003000
003000
003000
003000
000000
000000
ENDCHAR

STARTCHAR A2D6
ENCODING 41686
SWIDTH 960 0
DWIDTH 24 0
BBX 24 24 0 -6
BITMAP
000000
000000
003000
003000
003000
003000
003000
003000
003000
003000
003000
003000
003000
003000
023100
033300
033300
01B600
01B600
00FC00
007800
003000
003000
000000
ENDCHAR

STARTCHAR A2D7
ENCODING 41687
SWIDTH 960 0
DWIDTH 24 0
BBX 24 24 0 -6
BITMAP
000000
000000
000000
000000
000000
000000
000000
000400
000300
0000C0
000030
7FFFFC
7FFFFC
000030
0000C0
000300
000400
000000
000000
000000
000000
000000
000000
000000
ENDCHAR

STARTCHAR A2D8
ENCODING 41688
SWIDTH 960 0
DWIDTH 24 0
BBX 24 24 0 -6
BITMAP
000000
000000
000000
000000
000000
000000
000000
002000
00C000
030000
0C0000
3FFFFE
3FFFFE
0C0000
030000
00C000
002000
000000
000000
000000
000000
000000
000000
000000
ENDCHAR

STARTCHAR A2D9
ENCODING 41689
SWIDTH 960 0
DWIDTH 24 0
BBX 24 24 0 -6
BITMAP
000000
7E0000
600000
700000
580000
4C0000
460000
030000
018000
00C000
006000
003000
001800
000C00
000600
000300
000180
0000C0
000060
000030
000018
00000C
000006
000000
ENDCHAR

STARTCHAR A2DA
ENCODING 41690
SWIDTH 960 0
DWIDTH 24 0
BBX 24 24 0 -6
BITMAP
000000
00007E
000006
00000E
00001A
000032
000062
0000C0
000180
000300
000600
000C00
001800
003000
006000
00C000
018000
030000
060000
0C0000
180000
300000
600000
000000
ENDCHAR

STARTCHAR A2DB
ENCODING 41691
SWIDTH 960 0
DWIDTH 24 0
BBX 24 24 0 -6
BITMAP
000000
000006
00000C
000018
000030
000060
0000C0
000180
000300
000600
000C00
001800
003000
006000
00C000
018000
030000
460000
4C0000
580000
700000
600000
7E0000
000000
ENDCHAR

STARTCHAR A2DC
ENCODING 41692
SWIDTH 960 0
DWIDTH 24 0
BBX 24 24 0 -6
BITMAP
000000
600000
300000
180000
0C0000
060000
030000
018000
00C000
006000
003000
001800
000C00
000600
000300
000180
0000C0
000062
000032
00001A
00000E
000006
00007E
000000
ENDCHAR

STARTCHAR A2DD
ENCODING 41693
SWIDTH 960 0
DWIDTH 24 0
BBX 24 24 0 -6
BITMAP
000000
000000
000000
00C300
00C300
00C300
00C300
00C300
00C300
00C300
00C300
00C300
00C300
00C300
00C300
00C300
00C300
00C300
00C300
00C300
00C300
000000
000000
000000
ENDCHAR

STARTCHAR A2DE
ENCODING 41694
SWIDTH 960 0
DWIDTH 24 0
BBX 24 24 0 -6
BITMAP
000000
000000
000000
001800
001800
001800
001800
001800
001800
001800
001800
001800
001800
001800
001800
001800
001800
001800
001800
001800
001800
000000
000000
000000
ENDCHAR

STARTCHAR A2DF
ENCODING 41695
SWIDTH 960 0
DWIDTH 24 0
BBX 24 24 0 -6
BITMAP
000000
000000
00000C
000018
000030
000060
0000C0
000180
000300
000600
000C00
001800
003000
006000
00C000
018000
030000
060000
0C0000
180000
300000
600000
000000
000000
ENDCHAR

STARTCHAR A2E0
ENCODING 41696
SWIDTH 960 0
DWIDTH 24 0
BBX 24 24 0 -6
BITMAP
000000
000000
300000
180000
0C0000
060000
030000
018000
00C000
006000
003000
001800
000C00
000600
000300
000180
0000C0
000060
000030
000018
00000C
000006
000000
000000
ENDCHAR

STARTCHAR A2E1
ENCODING 41697
SWIDTH 960 0
DWIDTH 24 0
BBX 24 24 0 -6
BITMAP
000000
000000
001800
001800
003000
003000
006000
006000
00C000
00C000
018000
018000
030000
030000
060000
060000
0C0000
0C0000
180000
180000
300000
300000
000000
000000
ENDCHAR

STARTCHAR A2E2
ENCODING 41698
SWIDTH 960 0
DWIDTH 24 0
BBX 24 24 0 -6
BITMAP
000000
000000
000000
000000
000000
060000
030000
018000
00C000
006000
003000
001800
000C00
000600
000300
000180
0000C0
000060
000030
000000
000000
000000
000000
000000
ENDCHAR

STARTCHAR A2E3
ENCODING 41699
SWIDTH 960 0
DWIDTH 24 0
BBX 24 24 0 -6
BITMAP
000000
001800
001800
007F00
019980
0318C0
0319E0
0319E0
0318C0
019800
007E00
001B00
0018C0
001860
001860
061860
0F1860
0F1860
061860
0318C0
00FF80
001800
001800
000000
ENDCHAR

STARTCHAR A2E4
ENCODING 41700
SWIDTH 960 0
DWIDTH 24 0
BBX 24 24 0 -6
BITMAP
000000
1E00F0
0C0060
0600C0
0600C0
030180
030180
018300
0FFFE0
0FFFE0
018600
018600
00CC00
00CC00
0FFFE0
0FFFE0
003000
003000
003000
003000
003000
003000
00FC00
000000
ENDCHAR

STARTCHAR A2E5
ENCODING 41701
SWIDTH 960 0
DWIDTH 24 0
BBX 24 24 0 -6
BITMAP
000000
000000
000000
000000
1FFFF8
1FFFF8
000000
000000
000000
1FFFF8
1FFFF8
001800
001800
001800
001800
001800
001800
001800
001800
001800
001800
000000
000000
000000
ENDCHAR

STARTCHAR A2E6
ENCODING 41702
SWIDTH 960 0
DWIDTH 24 0
BBX 24 24 0 -6
BITMAP
000000
000000
000180
000180
000300
007F80
0186C0
060660
060670
0C0C70
0C0C20
0C0C00
0C1800
0C1800
0C1820
063020
063040
033180
00FE00
006000
00C000
00C000
000000
000000
ENDCHAR

STARTCHAR A2E7
ENCODING 41703
SWIDTH 960 0
DWIDTH 24 0
BBX 24 24 0 -6
BITMAP
000000
000000
000000
000F00
0030C0
006060
0060F0
0060F0
006060
006000
0FFF80
0FFF80
006000
006000
006000
006008
076018
08E018
083030
08CC60
070780
000000
000000
000000
ENDCHAR

STARTCHAR A2E8
ENCODING 41704
SWIDTH 960 0
DWIDTH 24 0
BBX 24 24 0 -6
BITMAP
000000
000000
070006
0F800C
18C018
306030
306060
3060C0
306180
18C300
0F8600
070C00
0018E0
0031F0
006318
00C60C
01860C
03060C
06060C
0C0318
1801F0
3000E0
600000
000000
ENDCHAR

STARTCHAR A2E9
ENCODING 41705
SWIDTH 960 0
DWIDTH 24 0
BBX 24 24 0 -6
BITMAP
000000
000000
000000
000000
007F00
0180C0
030060
060C20
0C3290
186190
184190
18C190
18C120
18C320
186540
0C3980
060010
030020
0180C0
007F00
000000
000000
000000
000000
ENDCHAR

STARTCHAR A2EA
ENCODING 41706
SWIDTH 960 0
DWIDTH 24 0
BBX 24 24 0 -6
BITMAP
000000
000000
1C0000
3E01C2
6303E2
630C1A
633006
3E3002
1C6000
006000
00C000
00C000
00C000
00C000
00C000
00C000
006002
006002
003002
003004
000C18
0003E0
0001C0
000000
ENDCHAR

STARTCHAR A2EB
ENCODING 41707
SWIDTH 960 0
DWIDTH 24 0
BBX 24 24 0 -6
BITMAP
000000
180000
3C0010
66FFF8
66C000
3CC000
18C000
00C000
00C000
00C060
00C060
00FFE0
00C060
00C060
00C000
00C000
00C000
00C000
00C000
00C000
00C000
00C000
000000
000000
ENDCHAR

STARTCHAR A2EC
ENCODING 41708
SWIDTH 960 0
DWIDTH 24 0
BBX 24 24 0 -6
BITMAP
000000
000000
030000
030000
0FC000
133000
233800
233800
231000
330000
1B0000
0F0000
038000
036000
033000
231800
731800
731800
333000
0FC000
030000
030000
000000
000000
ENDCHAR

STARTCHAR A2ED
ENCODING 41709
SWIDTH 960 0
DWIDTH 24 0
BBX 24 24 0 -6
BITMAP
000000
000000
1C1800
361800
633000
633000
636000
636000
36C000
1CC000
018000
018000
030000
030000
067000
06D800
0D8C00
0D8C00
198C00
198C00
30D800
307000
000000
000000
ENDCHAR

STARTCHAR A2EE
ENCODING 41710
SWIDTH 960 0
DWIDTH 24 0
BBX 24 24 0 -6
BITMAP
000000
000000
000000
0F8000
104000
202000
401000
401000
471000
4D9000
4D9000
4D9000
4D9000
4D9000
4D9000
476000
400000
400000
201000
102000
0FC000
000000
000000
000000
ENDCHAR

STARTCHAR A2EF
ENCODING 41711
SWIDTH 960 0
DWIDTH 24 0
BBX 24 24 0 -6
BITMAP
000000
000000
000000
00011C
00038C
00038C
00010C
00000C
64238C
2A518C
31898C
21098C
21098C
21098C
21098C
21098C
21098C
21098C
21098C
21098C
739FDE
000000
000000
000000
ENDCHAR

STARTCHAR A2F0
ENCODING 41712
SWIDTH 960 0
DWIDTH 24 0
BBX 24 24 0 -6
BITMAP
000000
000000
000000
000000
000000
000000
000000
000000
000000
000000
2CC598
332664
222444
222444
222444
222444
222444
222444
222444
222444
727E4E
000000
000000
000000
ENDCHAR

STARTCHAR A2F1
ENCODING 41713
SWIDTH 960 0
DWIDTH 24 0
BBX 24 24 0 -6
BITMAP
000000
000000
000000
000000
000000
000000
000000
000000
000000
000000
070598
18C664
602444
602444
600444
600444
600444
600444
602444
18C444
070E4E
000000
000000
000000
ENDCHAR

STARTCHAR A2F2
ENCODING 41714
SWIDTH 960 0
DWIDTH 24 0
BBX 24 24 0 -6
BITMAP
000000
000000
000000
000000
700000
300000
300000
300000
300000
300000
31C598
308664
310444
320444
340444
3B0444
330444
318444
30C444
30C444
79EE4E
000000
000000
000000
ENDCHAR

STARTCHAR A2F3
ENCODING 41715
SWIDTH 960 0
DWIDTH 24 0
BBX 24 24 0 -6
BITMAP
000000
000000
000000
600C06
700F1E
60FDB6
606CE6
60CC46
618C06
630C06
660C06
6C0C06
740C06
660C06
630C06
618C06
618C06
60CC06
60CC06
61EC06
600C06
000000
000000
000000
ENDCHAR

STARTCHAR A2F4
ENCODING 41716
SWIDTH 960 0
DWIDTH 24 0
BBX 24 24 0 -6
BITMAP
000000
000000
0000F0
000118
000018
000030
0000C0
000180
0001F8
000000
1CE380
0D34C0
0E38C0
0C30C0
0C30C0
0C30C0
0C30C0
0C30C0
0C30C0
0C30C0
1E79E0
000000
000000
000000
ENDCHAR

STARTCHAR A2F5
ENCODING 41717
SWIDTH 960 0
DWIDTH 24 0
BBX 24 24 0 -6
BITMAP
000000
000000
000000
000000
000000
000000
000000
000000
000000
6CC1E6
776618
666C0C
666C0C
666618
6661E0
666200
6661F0
666618
666C0C
666C0C
000C0C
000618
0003F0
000000
ENDCHAR

STARTCHAR A2F6
ENCODING 41718
SWIDTH 960 0
DWIDTH 24 0
BBX 24 24 0 -6
BITMAP
000000
000000
000000
300000
700000
300000
300000
300000
30F000
3061EE
30C630
318C18
330C18
360630
3B01E0
330200
3181F0
30C618
306C0C
30FC0C
300C0C
780618
0003F0
000000
ENDCHAR

STARTCHAR A2F7
ENCODING 41719
SWIDTH 960 0
DWIDTH 24 0
BBX 24 24 0 -6
BITMAP
000000
000000
000000
000000
000000
000000
000000
000000
000000
000000
0700E0
18C318
30E61C
30E61C
304608
300600
300600
300600
302604
18C318
0700E0
000000
000000
000000
ENDCHAR

STARTCHAR A2F8
ENCODING 41720
SWIDTH 960 0
DWIDTH 24 0
BBX 24 24 0 -6
BITMAP
000000
000000
0C0000
1E0000
330000
330000
1E0000
0C0000
000000
000000
000000
000000
000000
000000
000000
000000
000000
000000
000000
000000
000000
000000
000000
000000
ENDCHAR

STARTCHAR A2F9
ENCODING 41721
SWIDTH 960 0
DWIDTH 24 0
BBX 24 24 0 -6
BITMAP
000000
030060
038070
031060
3FF860
030060
030066
3337FE
3FF060
303060
303060
303060
3FF060
2DA060
0D8060
0D8060
0D8064
198064
198064
11800C
11E03E
20FFFC
403FF0
000000
ENDCHAR

STARTCHAR A2FA
ENCODING 41722
SWIDTH 960 0
DWIDTH 24 0
BBX 24 24 0 -6
BITMAP
000000
030018
03803C
0310F0
3FF9E0
030760
030060
333060
3FF066
3037FE
303060
303060
3FF060
2DA060
0D8060
0D8060
0D8064
198064
198064
11800C
11E03E
20FFFC
407FF0
000000
ENDCHAR

STARTCHAR A2FB
ENCODING 41723
SWIDTH 960 0
DWIDTH 24 0
BBX 24 24 0 -6
BITMAP
000000
0C0000
0E001C
0C007E
7FE7F0
0C1D80
0C0180
6CC188
7FDFFC
60C180
60C180
60C184
7FFFFE
1B0180
1B0180
1B0188
1B0188
130198
3301FA
2300F2
23C006
41FFFE
403FF8
000000
ENDCHAR

STARTCHAR A2FC
ENCODING 41724
SWIDTH 960 0
DWIDTH 24 0
BBX 24 24 0 -6
BITMAP
000000
060060
060060
064130
7FE330
060318
060618
06060C
3FCC06
30D800
30C000
30CFF8
30C198
3FC198
0D8198
0D8318
0D8318
198318
19867A
318C12
318006
21FFFE
40FFFC
000000
ENDCHAR

STARTCHAR A2FD
ENCODING 41725
SWIDTH 960 0
DWIDTH 24 0
BBX 24 24 0 -6
BITMAP
000000
060000
07000C
0627FE
7FF040
0600E0
2660C0
3FE988
306FFC
306C18
306C18
3FEC18
2DAC18
0D8FF8
0D8C18
0D8C18
0D8C1A
0D8FFA
0D8C1A
198006
19800E
30FFFC
407FF8
000000
ENDCHAR

STARTCHAR A2FE
ENCODING 41726
SWIDTH 960 0
DWIDTH 24 0
BBX 24 24 0 -6
BITMAP
000000
0C0000
0E200C
0CBFFE
7FF000
0C3618
0C37FC
7FB6D8
61B6D8
61B7F8
61B6D8
61B7F8
7FB6D8
56B0C0
1637F8
1630C0
1620C2
3620C2
367FFE
264002
27800E
43FFFE
40FFFC
000000
ENDCHAR

STARTCHAR A321
ENCODING 41761
SWIDTH 960 0
DWIDTH 24 0
BBX 24 24 0 -6
BITMAP
000000
030008
03801C
07FFFE
063000
0C3000
0C3000
1C3060
1C3FF0
3C3060
2C3060
4C3060
0C3660
0C3360
0C3160
0C3060
0C3060
0C3060
0C33E4
0C3E64
0CF86C
0C607E
0C003C
000000
ENDCHAR

STARTCHAR A322
ENCODING 41762
SWIDTH 960 0
DWIDTH 24 0
BBX 24 24 0 -6
BITMAP
000000
060018
077FFC
060180
0601C0
0C0180
0C0380
1C0300
1C0700
3C0700
2C0F80
4C0F60
0C1B30
0C3318
0C631C
0D830C
0C0300
0C0300
0C0300
0C0308
0C031C
0DFFFE
0C0000
000000
ENDCHAR

STARTCHAR A323
ENCODING 41763
SWIDTH 960 0
DWIDTH 24 0
BBX 24 24 0 -6
BITMAP
000000
060600
070700
060600
060660
0C07F0
0C0600
1C0608
1C061C
3DFFFE
2C0600
4C0600
0C0680
0C0660
0C0638
0C061C
0C060C
0C0600
0C0600
0C0600
0C0600
0C0600
0C0600
000000
ENDCHAR

STARTCHAR A324
ENCODING 41764
SWIDTH 960 0
DWIDTH 24 0
BBX 24 24 0 -6
BITMAP
000000
060600
070700
060600
060600
0C8630
0CFFF8
1CC630
1CC630
3CC630
2CC630
4CC630
0CC634
0FFFFE
0C0600
0C0600
0C0C00
0C0C80
0C1860
0C1838
0C301C
0C600E
0D8006
000000
ENDCHAR

STARTCHAR A325
ENCODING 41765
SWIDTH 960 0
DWIDTH 24 0
BBX 24 24 0 -6
BITMAP
000000
060C00
070E00
060C00
061808
0C1FFC
0C3018
1C7018
1C8C30
3D0660
2C03C0
4C01C0
0C0370
0C0C3E
0C701C
0C0600
0C01C0
0C0060
0C1800
0C0700
0C01C0
0C00E0
0C0060
000000
ENDCHAR

STARTCHAR A326
ENCODING 41766
SWIDTH 960 0
DWIDTH 24 0
BBX 24 24 0 -6
BITMAP
000000
060600
070700
060E00
060C00
0C1800
0C3020
1C6018
1CC00C
3DFFFE
2CFE06
4C7006
0C0000
0C4018
0C7FFC
0C6018
0C6018
0C6018
0C6018
0C6018
0C6018
0C7FF8
0C2010
000000
ENDCHAR

STARTCHAR A327
ENCODING 41767
SWIDTH 960 0
DWIDTH 24 0
BBX 24 24 0 -6
BITMAP
000000
001800
001C00
003800
007C00
00C600
018300
030180
0600C0
0C0370
19FFBE
60001C
000000
000060
0FFFF0
001800
011900
0398C0
061870
0C1838
101818
001800
001800
000000
ENDCHAR

STARTCHAR A328
ENCODING 41768
SWIDTH 960 0
DWIDTH 24 0
BBX 24 24 0 -6
BITMAP
000000
060800
070600
060308
06031C
0DFFFE
0C0300
1C0600
1C0C00
3C1830
2C3038
4C6070
0CC0E0
0CFFC0
0C4300
0C0600
0C0C00
0C1820
0C3018
0C600C
0CFFFE
0C7E06
0C3006
000000
ENDCHAR

STARTCHAR A329
ENCODING 41769
SWIDTH 960 0
DWIDTH 24 0
BBX 24 24 0 -6
BITMAP
000000
066660
077770
066660
066660
0C6660
0C6660
1C666C
1FFFFE
3C6660
2C6660
4C6660
0C6660
0C6660
0C6660
0C6660
0C6660
0C67E0
0C6240
0C6008
0C601C
0C7FFE
0C2000
000000
ENDCHAR

STARTCHAR A32A
ENCODING 41770
SWIDTH 960 0
DWIDTH 24 0
BBX 24 24 0 -6
BITMAP
000000
060000
072018
063FFC
063018
0C3018
0C3018
1C3018
1C3018
3C3018
2C3018
4C3018
0C3FF8
0C1010
0C0000
0C0000
0C0440
0C0E30
0C1C18
0C380C
0C600E
0D8006
0C0000
000000
ENDCHAR

STARTCHAR A32B
ENCODING 41771
SWIDTH 960 0
DWIDTH 24 0
BBX 24 24 0 -6
BITMAP
000000
060300
070380
060700
060700
0C0D80
0C18C0
1C3060
1C6038
3CC31E
2D038C
4C0300
0C6318
0C731C
0C6318
0C6318
0C6318
0C6318
0C6318
0C6318
0C6318
0C7FF8
0C2010
000000
ENDCHAR

STARTCHAR A32C
ENCODING 41772
SWIDTH 960 0
DWIDTH 24 0
BBX 24 24 0 -6
BITMAP
000000
20000C
3FFFFE
30C60C
30C60C
30C60C
30C60C
31C60C
3387FC
3F03EC
30000C
31018C
31FFCC
31818C
31818C
31818C
31818C
31818C
31FF8C
30810C
30007C
30001C
300018
000000
ENDCHAR

STARTCHAR A32D
ENCODING 41773
SWIDTH 960 0
DWIDTH 24 0
BBX 24 24 0 -6
BITMAP
000000
000C00
400EC0
300C70
380C30
180C00
000C0C
01FFFE
000C00
000C30
040E38
040E30
0C1A30
081B60
181B60
1831C0
3031C0
7061C0
306360
38C670
388C38
19181E
02600C
000000
ENDCHAR

STARTCHAR A32E
ENCODING 41774
SWIDTH 960 0
DWIDTH 24 0
BBX 24 24 0 -6
BITMAP
000000
06600C
07700E
0660CC
0666EC
7FFFCC
0666CC
0666CC
4666CC
7FFECC
6664CC
6660CC
6666CC
7FFFCC
2666CC
0666CC
0666CC
067ECC
066C0C
0C600C
0C607C
18601C
606018
000000
ENDCHAR

STARTCHAR A32F
ENCODING 41775
SWIDTH 960 0
DWIDTH 24 0
BBX 24 24 0 -6
BITMAP
000000
00000C
10600E
1FF18C
1861CC
18618C
18618C
18618C
1FE18C
18618C
18618C
18618C
18618C
1FE18C
18618C
18618C
18618C
18618C
18F80C
7FC00C
7E007C
30001C
000018
000000
ENDCHAR

STARTCHAR A330
ENCODING 41776
SWIDTH 960 0
DWIDTH 24 0
BBX 24 24 0 -6
BITMAP
000000
40180C
7FFC0E
60198C
6019CC
60198C
60198C
7FF98C
63118C
63018C
63018C
63198C
7FFD8C
61818C
61818C
61818C
60C18C
60C18C
60640C
61F40C
7E3C7C
7C1E1C
300C18
000000
ENDCHAR

STARTCHAR A331
ENCODING 41777
SWIDTH 960 0
DWIDTH 24 0
BBX 24 24 0 -6
BITMAP
000000
000180
0031C0
7FF980
0C3180
0C3180
0C318C
0C3FFE
0C318C
18318C
30718C
63E18C
00C18C
40618C
7FF18C
60618C
60630C
60630C
60630C
60660C
606C1C
7FF8F8
206030
000000
ENDCHAR

STARTCHAR A332
ENCODING 41778
SWIDTH 960 0
DWIDTH 24 0
BBX 24 24 0 -6
BITMAP
000000
018180
19C1C0
1D8180
198180
198180
19998C
1FFFFE
31818C
21818C
41818C
018D8C
7FFF8C
01818C
01818C
01818C
03C30C
03730C
063B0C
0C1E0C
180C1C
3018F8
406030
000000
ENDCHAR

STARTCHAR A333
ENCODING 41779
SWIDTH 960 0
DWIDTH 24 0
BBX 24 24 0 -6
BITMAP
000000
030000
038000
03000C
07FFFE
06000C
0C010C
0C038C
1FFFCC
30300C
46330C
03338C
01B60C
00BCCC
1FFFEC
00300C
00300C
00300C
00300C
00301C
003038
0033F0
0000E0
000000
ENDCHAR

STARTCHAR A334
ENCODING 41780
SWIDTH 960 0
DWIDTH 24 0
BBX 24 24 0 -6
BITMAP
000000
001800
001C00
001810
001838
001FFC
001800
001800
101818
1FFFFC
180018
180018
180318
1FFF98
180318
180318
180318
1FFF18
180218
180018
180018
1FFFF8
080010
000000
ENDCHAR

STARTCHAR A335
ENCODING 41781
SWIDTH 960 0
DWIDTH 24 0
BBX 24 24 0 -6
BITMAP
000000
00320C
7FFBFE
06330C
06330C
06330C
0C330C
0C330C
18330C
18330C
30730C
67E30C
01C30C
40630C
7FF30C
60637C
60631C
606318
606300
606300
606300
7FE300
204300
000000
ENDCHAR

STARTCHAR A336
ENCODING 41782
SWIDTH 960 0
DWIDTH 24 0
BBX 24 24 0 -6
BITMAP
000000
000008
10001C
1FFFFE
1800C0
1803E0
191F80
19FE00
198600
198610
198638
19FFFC
198600
198600
198300
198300
198180
198380
198EC4
11F864
31E03C
20C0DE
407FEC
000000
ENDCHAR

STARTCHAR A337
ENCODING 41783
SWIDTH 960 0
DWIDTH 24 0
BBX 24 24 0 -6
BITMAP
000000
000008
10001C
1FFFFE
186000
187000
186010
186038
18FFFC
18C600
18C600
198660
1907F0
1A0600
180600
180660
1807F0
180600
180600
100600
300600
200600
400600
000000
ENDCHAR

STARTCHAR A338
ENCODING 41784
SWIDTH 960 0
DWIDTH 24 0
BBX 24 24 0 -6
BITMAP
000000
000300
000380
430300
7F8300
630308
63031C
63FFFE
630600
630600
630600
6306C0
630CE0
630CC0
630D80
631980
7F1B00
223300
003610
00660C
00CC06
019FFE
060E06
000000
ENDCHAR

STARTCHAR A339
ENCODING 41785
SWIDTH 960 0
DWIDTH 24 0
BBX 24 24 0 -6
BITMAP
000000
000600
000700
430600
7F8600
630630
637FF8
630630
630630
630630
630630
630634
63FFFE
630600
630600
630600
7F0C80
220C60
001830
001818
00301C
00600E
018006
000000
ENDCHAR

STARTCHAR A33A
ENCODING 41786
SWIDTH 960 0
DWIDTH 24 0
BBX 24 24 0 -6
BITMAP
000000
000CC0
000EE0
430CC0
7F8CC0
6318C0
6318C0
6318C0
6338C0
6338CC
6378FE
6358C0
6398C0
6318C0
6318C0
6318C0
7F18C0
2218C0
0018C4
0018C4
0018CC
0018FE
00187C
000000
ENDCHAR

STARTCHAR A33B
ENCODING 41787
SWIDTH 960 0
DWIDTH 24 0
BBX 24 24 0 -6
BITMAP
000000
000300
000380
430300
7F8300
630300
630308
63031C
63FFFE
630300
630300
630300
630300
630700
630680
630C80
7F0CC0
2218C0
001860
003C70
006738
00C31E
03000C
000000
ENDCHAR

STARTCHAR A33C
ENCODING 41788
SWIDTH 960 0
DWIDTH 24 0
BBX 24 24 0 -6
BITMAP
000000
000C00
000600
430708
7F831C
637FFE
631030
631038
631030
630830
630830
630C60
630460
6306C0
6303C0
630380
7F0380
2206C0
000CE0
001870
003038
00601E
01800C
000000
ENDCHAR

STARTCHAR A33D
ENCODING 41789
SWIDTH 960 0
DWIDTH 24 0
BBX 24 24 0 -6
BITMAP
000000
000300
000380
430300
7F8318
63631C
637318
633330
633B60
631B40
630300
630300
630300
630300
630680
630680
7F06C0
220CC0
000C60
001870
003038
00601E
01800C
000000
ENDCHAR

STARTCHAR A33E
ENCODING 41790
SWIDTH 960 0
DWIDTH 24 0
BBX 24 24 0 -6
BITMAP
000000
000060
00FFF0
430C60
7F8C60
630C60
630C60
630C60
630C60
630C60
630C68
63FFFC
6318C0
6318C0
6318C0
6318C0
7F18C0
2218C0
0018C0
0018C0
0018C0
0018CC
03FFFE
000000
ENDCHAR

STARTCHAR A33F
ENCODING 41791
SWIDTH 960 0
DWIDTH 24 0
BBX 24 24 0 -6
BITMAP
000000
000008
00001C
437FFE
7F80C0
6300E0
6300C0
6301C0
630380
630380
6307A0
630798
630D8C
63198E
633186
636186
7F8180
220180
000180
000180
000180
000180
000180
000000
ENDCHAR

STARTCHAR A340
ENCODING 41792
SWIDTH 960 0
DWIDTH 24 0
BBX 24 24 0 -6
BITMAP
000000
001800
001C00
431810
7F9838
631FFC
633180
633180
636180
63C180
638180
630188
63019C
637FFE
630180
630180
7F0180
220180
000180
000180
000180
000180
000180
000000
ENDCHAR

STARTCHAR A341
ENCODING 41793
SWIDTH 960 0
DWIDTH 24 0
BBX 24 24 0 -6
BITMAP
000000
000180
0019C0
431D80
7F9980
631980
633198
633FFC
636180
63C180
638180
630188
63019C
637FFE
630180
630180
7F0180
220180
000180
000180
000180
000180
000180
000000
ENDCHAR

STARTCHAR A342
ENCODING 41794
SWIDTH 960 0
DWIDTH 24 0
BBX 24 24 0 -6
BITMAP
000000
000260
000770
430E60
7F9C60
636C60
630C60
630C60
630C60
630C6C
63FFFE
630C60
630C60
630C60
630C60
630C60
7F0C60
221860
001860
003060
003060
006060
018060
000000
ENDCHAR

STARTCHAR A343
ENCODING 41795
SWIDTH 960 0
DWIDTH 24 0
BBX 24 24 0 -6
BITMAP
000000
001800
001C00
431800
7F9800
63180C
633FFE
63300C
63600C
63600C
63818C
633FCC
63000C
63000C
63000C
63018C
7F3FCC
22000C
00000C
00000C
00001C
0000F8
000030
000000
ENDCHAR

STARTCHAR A344
ENCODING 41796
SWIDTH 960 0
DWIDTH 24 0
BBX 24 24 0 -6
BITMAP
000000
000300
000380
430300
7F8308
63031C
63FFFE
630300
630300
636318
63731C
636318
636318
636318
636318
637FF8
7F2310
220300
000304
000304
00030C
0003FE
0001FC
000000
ENDCHAR

STARTCHAR A345
ENCODING 41797
SWIDTH 960 0
DWIDTH 24 0
BBX 24 24 0 -6
BITMAP
000000
000300
000380
430300
7F8780
6306C0
630C60
631830
63301C
63C00E
631864
631C70
631860
631860
631860
631860
7F1860
221860
001860
003060
003060
006060
008060
000000
ENDCHAR

STARTCHAR A346
ENCODING 41798
SWIDTH 960 0
DWIDTH 24 0
BBX 24 24 0 -6
BITMAP
000000
001800
001C00
001810
009838
3FD8F0
00FB80
00DC00
019E00
031B00
0619C0
0C18FE
30F87C
003000
080060
0FFFF0
0C0060
0C0060
0C0060
0C0060
0C0060
0FFFE0
040040
000000
ENDCHAR

STARTCHAR A347
ENCODING 41799
SWIDTH 960 0
DWIDTH 24 0
BBX 24 24 0 -6
BITMAP
000000
20000C
3FFFFE
30CC0C
30EE0C
30CC0C
31CC0C
318C0C
338C4C
338CEC
378FFC
3D8C0C
398C0C
318C0C
318C0C
318C2C
318C2C
318C6C
318FFC
3187EC
30000C
3FFFFC
100008
000000
ENDCHAR

STARTCHAR A348
ENCODING 41800
SWIDTH 960 0
DWIDTH 24 0
BBX 24 24 0 -6
BITMAP
000000
20000C
3FFFFE
30C60C
30C60C
30C60C
30C60C
30C60C
31860C
31860C
3307FC
3C03EC
30000C
30000C
31018C
31FFCC
31818C
31818C
31818C
31818C
31818C
3FFFFC
100008
000000
ENDCHAR

STARTCHAR A349
ENCODING 41801
SWIDTH 960 0
DWIDTH 24 0
BBX 24 24 0 -6
BITMAP
000000
20000C
3FFFFE
30600C
30384C
3018EC
3FFFFC
30000C
30860C
30FF0C
30C60C
30C60C
30C60C
30C60C
30C60C
30C62C
31862C
31866C
3307FC
3C03EC
30000C
3FFFFC
100008
000000
ENDCHAR

STARTCHAR A34A
ENCODING 41802
SWIDTH 960 0
DWIDTH 24 0
BBX 24 24 0 -6
BITMAP
000000
060030
0700F8
0623F0
063FC0
0630C0
0630C0
06B0C0
3FF0C0
0630CC
063FFE
0630C0
0630C0
0630C0
0630C0
0630C0
0630C0
07F060
7F3064
7C3074
303F3C
003C1E
00180C
000000
ENDCHAR

STARTCHAR A34B
ENCODING 41803
SWIDTH 960 0
DWIDTH 24 0
BBX 24 24 0 -6
BITMAP
000000
060600
070700
060600
060F00
060D80
0618C0
069860
3FF038
06605E
06FFEC
070000
060000
060020
067FF0
060038
060030
07E060
7F0060
7C00C0
300080
000100
000200
000000
ENDCHAR

STARTCHAR A34C
ENCODING 41804
SWIDTH 960 0
DWIDTH 24 0
BBX 24 24 0 -6
BITMAP
000000
000700
00C180
00E180
0180C0
0300F0
07FFF8
0C30DE
3030CC
0030C0
0060C0
00C7C0
0181C0
061980
001C00
001840
0018E0
0FFFF0
001800
001800
001808
00181C
7FFFFE
000000
ENDCHAR

STARTCHAR A34D
ENCODING 41805
SWIDTH 960 0
DWIDTH 24 0
BBX 24 24 0 -6
BITMAP
000000
060180
0701C0
060180
06018C
067FFE
060180
068180
3FF18C
06398E
06318C
06318C
06318C
06318C
06318C
063FFC
061188
07C180
7F0184
7C0184
30018C
0001FE
0000FC
000000
ENDCHAR

STARTCHAR A34E
ENCODING 41806
SWIDTH 960 0
DWIDTH 24 0
BBX 24 24 0 -6
BITMAP
000000
060380
070180
0618C0
061CC0
061860
063060
06B030
3FE038
06FFFE
07863C
060630
060630
060630
060630
060630
060C30
07EC30
7F1830
7C3070
3063F0
00C0E0
0300C0
000000
ENDCHAR

STARTCHAR A34F
ENCODING 41807
SWIDTH 960 0
DWIDTH 24 0
BBX 24 24 0 -6
BITMAP
000000
300C00
380E00
300C00
300C10
30CC38
3FEFFC
300C00
300C04
300C04
300C0C
3F8FFE
3E07FC
181800
001C00
001840
0018E0
0FFFF0
001800
001800
001808
00181C
7FFFFE
000000
ENDCHAR

STARTCHAR A350
ENCODING 41808
SWIDTH 960 0
DWIDTH 24 0
BBX 24 24 0 -6
BITMAP
000000
018000
01C000
038080
03FFC0
0641E0
0C3380
301E00
003F00
00E3E0
0398FE
7C1C38
001820
0FFFF0
001800
0018C0
07FFE0
001808
00181C
7FFFFE
001800
001800
001800
000000
ENDCHAR

STARTCHAR A351
ENCODING 41809
SWIDTH 960 0
DWIDTH 24 0
BBX 24 24 0 -6
BITMAP
000000
000010
000038
3FFFFC
001C00
003C00
007800
00DB80
0198E0
061870
181830
001800
001800
001C00
001808
00181C
7FFFFE
003000
006300
00C0E0
018038
06001C
38000C
000000
ENDCHAR

STARTCHAR A352
ENCODING 41810
SWIDTH 960 0
DWIDTH 24 0
BBX 24 24 0 -6
BITMAP
000000
0C0180
0E01C0
0C0198
0C01FC
0C8FF0
0CC180
7FF180
18C180
18C198
18DFFC
18C180
18C180
10C188
11819C
19BFFE
070180
038180
06C180
0CE180
186180
300180
400180
000000
ENDCHAR

STARTCHAR A353
ENCODING 41811
SWIDTH 960 0
DWIDTH 24 0
BBX 24 24 0 -6
BITMAP
000000
0C0010
0E0038
0C1FFC
0C0000
0C8000
0CC000
7FF000
18C008
18C01C
18FFFE
18C180
18C180
10C180
118300
198300
070600
038620
06CC18
0CF80C
187FFE
303F8E
401C06
000000
ENDCHAR

STARTCHAR A354
ENCODING 41812
SWIDTH 960 0
DWIDTH 24 0
BBX 24 24 0 -6
BITMAP
000000
180300
1C0180
180180
18218C
193FFE
19B18C
7FF18C
19B18C
19B18C
19B1CC
31B1CC
31B34C
31B36C
33367C
333C2C
0E300C
07300C
07B00C
0CF00C
18707C
30301C
403018
000000
ENDCHAR

STARTCHAR A355
ENCODING 41813
SWIDTH 960 0
DWIDTH 24 0
BBX 24 24 0 -6
BITMAP
000000
180300
1C0380
180300
180380
190680
19A6C0
7FFC60
198C30
199818
19B02E
31EFF4
318000
318000
330010
331FF8
0E001C
070018
078030
0DC060
18C0C0
30C180
400200
000000
ENDCHAR

STARTCHAR A356
ENCODING 41814
SWIDTH 960 0
DWIDTH 24 0
BBX 24 24 0 -6
BITMAP
000000
180300
1C0380
180300
180380
190680
1986C0
7FEC60
198C30
199818
19BC3E
31EE34
318C30
318C30
330C30
330C30
0E0C30
070C30
078C30
0DC830
18D830
301030
402030
000000
ENDCHAR

STARTCHAR A357
ENCODING 41815
SWIDTH 960 0
DWIDTH 24 0
BBX 24 24 0 -6
BITMAP
000000
180080
1C0C40
180E40
180C40
190C60
198C60
7FEC30
199838
19981C
19BFFE
31E634
318630
318630
330630
330630
0E0630
070C30
078C30
0DCC30
18D870
3033E0
40C0C0
000000
ENDCHAR

STARTCHAR A358
ENCODING 41816
SWIDTH 960 0
DWIDTH 24 0
BBX 24 24 0 -6
BITMAP
000000
1800C0
1C0040
180C40
180E60
190C60
198C30
7FF838
19901E
19A00C
198300
318380
318300
318300
330600
330600
0E0C00
070C20
079818
0DD80C
18FFFE
303F8E
401C06
000000
ENDCHAR

STARTCHAR A359
ENCODING 41817
SWIDTH 960 0
DWIDTH 24 0
BBX 24 24 0 -6
BITMAP
000000
180400
1C0300
180180
18018C
193FFE
198818
7FE81C
198818
198818
198430
318430
318630
318660
330360
3301C0
0E0180
0703C0
078660
0DCC30
18D838
30301E
40C00C
000000
ENDCHAR

STARTCHAR A35A
ENCODING 41818
SWIDTH 960 0
DWIDTH 24 0
BBX 24 24 0 -6
BITMAP
000000
0C0010
0E0038
0C1FFC
0C0000
0C8000
0CC000
7FF008
18C01C
18FFFE
18C660
18C660
18C660
10C660
118660
198660
070660
038660
06CC64
0CEC64
18786C
30307E
40C03C
000000
ENDCHAR

STARTCHAR A35B
ENCODING 41819
SWIDTH 960 0
DWIDTH 24 0
BBX 24 24 0 -6
BITMAP
000000
0C0030
0E0078
0C09E0
0C0F80
0C8C00
0CCC00
7FFC08
18CC1C
18CFFE
18CC60
18CC60
18CC60
10CC60
118C60
198C60
070C60
038C60
06CC60
0CE860
187860
301060
402060
000000
ENDCHAR

STARTCHAR A35C
ENCODING 41820
SWIDTH 960 0
DWIDTH 24 0
BBX 24 24 0 -6
BITMAP
000000
006000
003800
101808
1FFFFC
30000E
700018
600060
000000
000780
003FE0
0FF800
003800
00300C
7FFFFE
003800
006C00
00E600
01C380
0381C0
0E00F0
18007C
600038
000000
ENDCHAR

STARTCHAR A35D
ENCODING 41821
SWIDTH 960 0
DWIDTH 24 0
BBX 24 24 0 -6
BITMAP
000000
006000
003800
101808
1FFFFC
30000E
700398
600FC0
007E00
0FF000
003040
0030E0
1FFFF0
003000
003010
003038
7FFFFC
003000
003004
003004
00300C
003FFE
001FFC
000000
ENDCHAR

STARTCHAR A35E
ENCODING 41822
SWIDTH 960 0
DWIDTH 24 0
BBX 24 24 0 -6
BITMAP
000000
060000
076000
063820
061870
0600E0
0661C0
7FF310
060638
060C70
0630E0
060188
0E031C
0F0C38
0F3070
0F00C0
0F0180
1B0600
1B3804
1B0004
33000C
23FFFE
41FFFC
000000
ENDCHAR

STARTCHAR A35F
ENCODING 41823
SWIDTH 960 0
DWIDTH 24 0
BBX 24 24 0 -6
BITMAP
000000
060000
070010
060038
063FFC
060180
066180
7FF180
060180
060180
0601B0
061FF8
0E0180
0F0180
0F0180
0F0180
0F0180
1B0198
1B3FFC
1B0004
33000C
23FFFE
41FFFC
000000
ENDCHAR

STARTCHAR A360
ENCODING 41824
SWIDTH 960 0
DWIDTH 24 0
BBX 24 24 0 -6
BITMAP
000000
0C0010
0E0038
0C3FFC
0C0C60
0C0C60
4D8C60
6DCC60
6D8C60
6D8C6C
6DFFFE
6D8C60
6D8C60
6D8C60
6D8C60
6D8C60
6D8C60
6D8C60
7F9860
211860
003060
006060
00C060
000000
ENDCHAR

STARTCHAR A361
ENCODING 41825
SWIDTH 960 0
DWIDTH 24 0
BBX 24 24 0 -6
BITMAP
000000
0C0010
0E0038
0C1FFC
0C0000
0C0000
4D8008
6DC01C
6DBFFE
6D8660
6D8660
6D8660
6D8660
6D8660
6D8660
6D8660
6D8660
6D8660
7F8C64
210C64
00186C
00307E
00C03C
000000
ENDCHAR

STARTCHAR A362
ENCODING 41826
SWIDTH 960 0
DWIDTH 24 0
BBX 24 24 0 -6
BITMAP
000000
0C0008
0E001C
0C3FFE
0C1860
0C1860
4D9860
6DD860
6DB060
6DB060
6DB064
6DBFFE
6D90E0
6D81E0
6D8360
6D8660
6D8C60
6D9860
7FB060
216060
0183E0
0000E0
0000C0
000000
ENDCHAR

STARTCHAR A363
ENCODING 41827
SWIDTH 960 0
DWIDTH 24 0
BBX 24 24 0 -6
BITMAP
000000
0C0030
0E7FF8
0C1830
0C1830
0C1830
4D9860
6DD860
6D9860
6D98C8
6D9FFC
6D9C0E
6D9C0C
6D9E0C
6D9B18
6D9B18
6DB1B0
6DB0E0
7FB0E0
2161F0
00C338
01861E
06380C
000000
ENDCHAR

STARTCHAR A364
ENCODING 41828
SWIDTH 960 0
DWIDTH 24 0
BBX 24 24 0 -6
BITMAP
000000
0C0C00
0E0E00
0C0C00
0C0C00
0C0C0C
4D9FFE
6DDB6C
6D9B6C
6DB36C
6DE66C
6DC66C
6D86CC
6D8CCC
6D8CCC
6D998C
6D998C
6DB18C
7FE30C
21460C
000C1C
0018F8
006030
000000
ENDCHAR

STARTCHAR A365
ENCODING 41829
SWIDTH 960 0
DWIDTH 24 0
BBX 24 24 0 -6
BITMAP
000000
0C0300
0E0380
0C0300
0C0300
0C0780
4D86C0
6DCC60
6D9830
6DB038
6DFFFE
6DC00C
6D8000
6D8010
6DBFF8
6D801C
6D8018
6D8030
7F8060
2100C0
000180
000300
000400
000000
ENDCHAR

STARTCHAR A366
ENCODING 41830
SWIDTH 960 0
DWIDTH 24 0
BBX 24 24 0 -6
BITMAP
000000
080030
0FFFF8
0C1830
0C1830
0C1830
0C1830
0FFFF0
0C0020
0C0008
0C0008
0C0018
0FFFFC
07FFF8
001800
181C18
1C181C
181818
181818
181818
181818
1FFFF8
080010
000000
ENDCHAR

STARTCHAR A367
ENCODING 41831
SWIDTH 960 0
DWIDTH 24 0
BBX 24 24 0 -6
BITMAP
000000
0C00E0
0E01F0
0C07C0
0C7F00
0C0300
4D8300
6DC300
6D8308
6D831C
6DFFFE
6D8300
6D8300
6D8780
6D8680
6D86C0
6D8C60
6D8C60
7F9830
211838
00301C
00600E
018004
000000
ENDCHAR

STARTCHAR A368
ENCODING 41832
SWIDTH 960 0
DWIDTH 24 0
BBX 24 24 0 -6
BITMAP
000000
0C0038
0E007C
0C11F0
0C1F80
0C1800
4D9800
6DD808
6D981C
6D9FFE
6D98C0
6D98C0
6D98C0
6D98C0
6D98C0
6D98C0
6D98C0
6D98C0
7FB0C0
2130C0
0060C0
00C0C0
0300C0
000000
ENDCHAR

STARTCHAR A369
ENCODING 41833
SWIDTH 960 0
DWIDTH 24 0
BBX 24 24 0 -6
BITMAP
000000
001800
181C18
1C181C
181818
181818
181818
1FFFF8
081810
003C00
007600
00E300
0181C0
03C1F0
0EE1FE
70C1BC
00C180
00C180
018180
018180
030180
060180
180180
000000
ENDCHAR

STARTCHAR A36A
ENCODING 41834
SWIDTH 960 0
DWIDTH 24 0
BBX 24 24 0 -6
BITMAP
000000
000018
3FFFFC
000000
020408
070E1C
0C1830
183060
3060C0
0C1830
060C18
03060C
03060C
000030
1FFFF8
001800
001800
001800
001800
001800
001808
00181C
7FFFFE
000000
ENDCHAR

STARTCHAR A36B
ENCODING 41835
SWIDTH 960 0
DWIDTH 24 0
BBX 24 24 0 -6
BITMAP
000000
0C200C
0E3FFE
0C318C
0C318C
4D318C
7FB18C
6DF18C
6DB18C
6DB18C
6DBFFC
6DB008
6DB000
6DB000
6DB000
6DB000
6FB000
6D3000
0C3004
0C3004
0C300C
0C3FFE
0C1FFC
000000
ENDCHAR

STARTCHAR A36C
ENCODING 41836
SWIDTH 960 0
DWIDTH 24 0
BBX 24 24 0 -6
BITMAP
000000
0C0180
0E01C0
0C0180
0C0180
4D9188
7FDFFC
6DB18E
6DF198
6DE180
6D8180
6D81C0
6D83C0
6D83C0
6D86C0
6D86C0
6F8CC0
6D0CC0
0C18C4
0C30C4
0C60CC
0CC0FE
0D807C
000000
ENDCHAR

STARTCHAR A36D
ENCODING 41837
SWIDTH 960 0
DWIDTH 24 0
BBX 24 24 0 -6
BITMAP
000000
003800
001C08
100C1C
1FFFFE
180C00
180E10
180C38
1FFFFC
180C00
180C00
180C10
1BFFF8
190030
188060
1840C0
183180
181B00
180E00
101F00
3071C0
21C07C
4E0038
000000
ENDCHAR

STARTCHAR A36E
ENCODING 41838
SWIDTH 960 0
DWIDTH 24 0
BBX 24 24 0 -6
BITMAP
000000
003800
001C08
200C1C
3FFFFE
300C00
300E00
300C10
300C38
3FFFFC
300C00
330C30
338C38
330C30
330C30
330C30
33FFF0
310C20
300C04
300C04
200C0C
200FFE
4007FC
000000
ENDCHAR

STARTCHAR A36F
ENCODING 41839
SWIDTH 960 0
DWIDTH 24 0
BBX 24 24 0 -6
BITMAP
000000
003800
001C08
100C1C
1FFFFE
180000
180030
1BFFF8
18C180
18C180
198180
1B0198
1BFFFC
190780
180D80
181980
183180
186180
18C180
118180
360F80
200380
400300
000000
ENDCHAR

STARTCHAR A370
ENCODING 41840
SWIDTH 960 0
DWIDTH 24 0
BBX 24 24 0 -6
BITMAP
000000
003800
001C08
100C1C
1FFFFE
180000
180C00
180E00
180E00
181B00
183180
1860E0
18C378
19FFBE
1E001C
180040
18FFE0
1800C0
180180
100300
300600
200C00
401000
000000
ENDCHAR

STARTCHAR A371
ENCODING 41841
SWIDTH 960 0
DWIDTH 24 0
BBX 24 24 0 -6
BITMAP
000000
003800
001C08
100C1C
1FFFFE
180000
1801C0
190FE0
19FF00
198010
198038
19FFFC
198300
198300
198300
198300
198300
198300
190300
130300
320300
240300
400300
000000
ENDCHAR

STARTCHAR A372
ENCODING 41842
SWIDTH 960 0
DWIDTH 24 0
BBX 24 24 0 -6
BITMAP
000000
000E00
010700
038380
0600C0
0C0170
1FFFFE
60619C
006180
00C180
018380
031F00
1C0600
018300
01C388
01831C
7FFFFE
018300
018300
018300
030300
060300
180300
000000
ENDCHAR

STARTCHAR A373
ENCODING 41843
SWIDTH 960 0
DWIDTH 24 0
BBX 24 24 0 -6
BITMAP
000000
03200C
7FBFFE
03318C
03318C
03318C
43318C
7F318C
62318C
60318C
603FFC
633008
7FB000
233000
033000
033000
033000
033000
033004
033004
07300C
3E3FFE
0C1FFC
000000
ENDCHAR

STARTCHAR A374
ENCODING 41844
SWIDTH 960 0
DWIDTH 24 0
BBX 24 24 0 -6
BITMAP
000000
060180
070080
0E18C0
0C1CC0
1818C0
331860
439860
071860
063030
0E3338
1E639E
36C30C
460600
060600
060C00
060C00
061810
061808
06300C
067FFE
063F86
061C00
000000
ENDCHAR

STARTCHAR A375
ENCODING 41845
SWIDTH 960 0
DWIDTH 24 0
BBX 24 24 0 -6
BITMAP
000000
060030
077FF8
0E1830
0C1830
181830
331860
439860
071860
061864
0E1FFE
1E180C
361C0C
461E18
061A18
061B30
0631B0
0630E0
0660E0
0661B0
06C31C
07860E
063804
000000
ENDCHAR

STARTCHAR A376
ENCODING 41846
SWIDTH 960 0
DWIDTH 24 0
BBX 24 24 0 -6
BITMAP
000000
000600
000730
000618
000608
000600
00060C
7FFFFE
000300
000300
000300
010180
00C180
066180
0760C0
1608C0
1606C0
360360
360B64
760B34
66183C
07FC1E
03F80C
000000
ENDCHAR

STARTCHAR A377
ENCODING 41847
SWIDTH 960 0
DWIDTH 24 0
BBX 24 24 0 -6
BITMAP
000000
00000C
7FFFFE
003000
003000
003000
003C00
003780
0031C0
0030C0
003000
003000
003000
003800
030C00
138620
130618
13000C
33002E
330026
730060
63FFF0
01FFE0
000000
ENDCHAR

STARTCHAR A378
ENCODING 41848
SWIDTH 960 0
DWIDTH 24 0
BBX 24 24 0 -6
BITMAP
000000
003000
003800
003000
003040
0030E0
003FF0
003000
003000
003000
003008
00301C
7FFFFE
000000
031000
138C20
130618
13060C
33002E
330026
730060
63FFF0
01FFE0
000000
ENDCHAR

STARTCHAR A379
ENCODING 41849
SWIDTH 960 0
DWIDTH 24 0
BBX 24 24 0 -6
BITMAP
000000
0C0C00
0E0700
0C0380
0C0180
0C0008
0C001C
2F7FFE
2D8300
2D8300
6C8340
6C0330
0C0318
0C031C
0C030C
0C030C
0C0300
0C0300
0C0300
0C0300
0C0300
0C0300
0C0300
000000
ENDCHAR

STARTCHAR A37A
ENCODING 41850
SWIDTH 960 0
DWIDTH 24 0
BBX 24 24 0 -6
BITMAP
000000
0C0020
0E0070
0C3FF8
0C0000
0C0000
0C0000
2F0008
2D801C
2DFFFE
6C8CC0
6C0CC0
0C0CC0
0C0CC0
0C0CC0
0C0CC0
0C0CC0
0C0CC0
0C18C4
0C18C4
0C30CC
0C60FE
0CC07C
000000
ENDCHAR

STARTCHAR A37B
ENCODING 41851
SWIDTH 960 0
DWIDTH 24 0
BBX 24 24 0 -6
BITMAP
000000
0C0180
0E01C0
0C0180
0C0188
0C019C
0C7FFE
2F0180
2D8180
2D8188
6CBFFC
6C1018
0C0818
0C0830
0C0430
0C0660
0C03C0
0C0180
0C03C0
0C0660
0C0C38
0C301E
0CC00C
000000
ENDCHAR

STARTCHAR A37C
ENCODING 41852
SWIDTH 960 0
DWIDTH 24 0
BBX 24 24 0 -6
BITMAP
000000
0C0180
0E01C0
0C0180
0C0188
0C019C
0C7FFE
2F0180
2DB18C
2DB98E
6CB18C
6C318C
0C318C
0C318C
0C3FFC
0C1188
0C0180
0C0180
0C0184
0C0184
0C018C
0C01FE
0C00FC
000000
ENDCHAR

STARTCHAR A37D
ENCODING 41853
SWIDTH 960 0
DWIDTH 24 0
BBX 24 24 0 -6
BITMAP
000000
0C0180
0E01C0
0C0180
0C0180
0C218C
0C3FFE
2F318C
2DB18C
2DB18C
6CB18C
6C318C
0C318C
0C3FFC
0C1188
0C0180
0C0180
0C0180
0C0180
0C0180
0C0180
0C0180
0C0180
000000
ENDCHAR

STARTCHAR A37E
ENCODING 41854
SWIDTH 960 0
DWIDTH 24 0
BBX 24 24 0 -6
BITMAP
000000
0C1800
0E1C00
0C1810
0C1838
0C3FFC
0C3180
2F6180
2D8180
2D8180
6C8188
6C019C
0C7FFE
0C0180
0C0180
0C0180
0C0180
0C0180
0C0180
0C0180
0C0180
0C0180
0C0180
000000
ENDCHAR

STARTCHAR A3A1
ENCODING 41889
SWIDTH 960 0
DWIDTH 24 0
BBX 24 24 0 -6
BITMAP
000000
060000
070000
06660C
7FF7FE
06760E
0C660C
0C660C
18E60C
37C7FC
41B60C
007800
00E600
01C180
0306F0
0EFF3E
76006C
07FFF0
066638
07FFF0
066630
066670
066620
000000
ENDCHAR

STARTCHAR A3A2
ENCODING 41890
SWIDTH 960 0
DWIDTH 24 0
BBX 24 24 0 -6
BITMAP
000000
006000
7FF070
0C01F8
0C0FC0
0C00C0
0C40C0
0FF0C0
1860CC
186FFE
1C60C0
1A60C0
1B60C0
1960C0
18C0C0
18C0C0
30C0C0
30C0C4
33C0C4
7CC004
70E00E
207FFE
003FF0
000000
ENDCHAR

STARTCHAR A3A3
ENCODING 41891
SWIDTH 960 0
DWIDTH 24 0
BBX 24 24 0 -6
BITMAP
000000
060000
061004
069FFE
26D800
369A04
371BFC
165A64
7FDA64
061BFC
0E1A64
0F1A64
0EDA64
0EDBFC
1E5A64
161860
161068
2633FC
263060
462060
066060
064064
0687FE
000000
ENDCHAR

STARTCHAR A3A4
ENCODING 41892
SWIDTH 960 0
DWIDTH 24 0
BBX 24 24 0 -6
BITMAP
000000
000000
000000
000000
000000
000000
000000
000000
000000
000000
000000
000000
000000
000000
000000
000000
000000
000000
000000
000000
000000
FFFFFF
FFFFFF
FFFFFF
ENDCHAR

STARTCHAR A3A5
ENCODING 41893
SWIDTH 960 0
DWIDTH 24 0
BBX 24 24 0 -6
BITMAP
000000
000000
000000
000000
000000
000000
000000
000000
000000
000000
000000
000000
000000
000000
000000
000000
000000
000000
FFFFFF
FFFFFF
FFFFFF
FFFFFF
FFFFFF
FFFFFF
ENDCHAR

STARTCHAR A3A6
ENCODING 41894
SWIDTH 960 0
DWIDTH 24 0
BBX 24 24 0 -6
BITMAP
000000
000000
000000
000000
000000
000000
000000
000000
000000
000000
000000
000000
000000
000000
000000
FFFFFF
FFFFFF
FFFFFF
FFFFFF
FFFFFF
FFFFFF
FFFFFF
FFFFFF
FFFFFF
ENDCHAR

STARTCHAR A3A7
ENCODING 41895
SWIDTH 960 0
DWIDTH 24 0
BBX 24 24 0 -6
BITMAP
000000
000000
000000
000000
000000
000000
000000
000000
000000
000000
000000
000000
FFFFFF
FFFFFF
FFFFFF
FFFFFF
FFFFFF
FFFFFF
FFFFFF
FFFFFF
FFFFFF
FFFFFF
FFFFFF
FFFFFF
ENDCHAR

STARTCHAR A3A8
ENCODING 41896
SWIDTH 960 0
DWIDTH 24 0
BBX 24 24 0 -6
BITMAP
000000
000000
000000
000000
000000
000000
000000
000000
000000
FFFFFF
FFFFFF
FFFFFF
FFFFFF
FFFFFF
FFFFFF
FFFFFF
FFFFFF
FFFFFF
FFFFFF
FFFFFF
FFFFFF
FFFFFF
FFFFFF
FFFFFF
ENDCHAR

STARTCHAR A3A9
ENCODING 41897
SWIDTH 960 0
DWIDTH 24 0
BBX 24 24 0 -6
BITMAP
000000
000000
000000
000000
000000
000000
FFFFFF
FFFFFF
FFFFFF
FFFFFF
FFFFFF
FFFFFF
FFFFFF
FFFFFF
FFFFFF
FFFFFF
FFFFFF
FFFFFF
FFFFFF
FFFFFF
FFFFFF
FFFFFF
FFFFFF
FFFFFF
ENDCHAR

STARTCHAR A3AA
ENCODING 41898
SWIDTH 960 0
DWIDTH 24 0
BBX 24 24 0 -6
BITMAP
000000
000000
000000
FFFFFF
FFFFFF
FFFFFF
FFFFFF
FFFFFF
FFFFFF
FFFFFF
FFFFFF
FFFFFF
FFFFFF
FFFFFF
FFFFFF
FFFFFF
FFFFFF
FFFFFF
FFFFFF
FFFFFF
FFFFFF
FFFFFF
FFFFFF
FFFFFF
ENDCHAR

STARTCHAR A3AB
ENCODING 41899
SWIDTH 960 0
DWIDTH 24 0
BBX 24 24 0 -6
BITMAP
FFFFFF
FFFFFF
FFFFFF
FFFFFF
FFFFFF
FFFFFF
FFFFFF
FFFFFF
FFFFFF
FFFFFF
FFFFFF
FFFFFF
FFFFFF
FFFFFF
FFFFFF
FFFFFF
FFFFFF
FFFFFF
FFFFFF
FFFFFF
FFFFFF
FFFFFF
FFFFFF
FFFFFF
ENDCHAR

STARTCHAR A3AC
ENCODING 41900
SWIDTH 960 0
DWIDTH 24 0
BBX 24 24 0 -6
BITMAP
E00000
E00000
E00000
E00000
E00000
E00000
E00000
E00000
E00000
E00000
E00000
E00000
E00000
E00000
E00000
E00000
E00000
E00000
E00000
E00000
E00000
E00000
E00000
E00000
ENDCHAR

STARTCHAR A3AD
ENCODING 41901
SWIDTH 960 0
DWIDTH 24 0
BBX 24 24 0 -6
BITMAP
FC0000
FC0000
FC0000
FC0000
FC0000
FC0000
FC0000
FC0000
FC0000
FC0000
FC0000
FC0000
FC0000
FC0000
FC0000
FC0000
FC0000
FC0000
FC0000
FC0000
FC0000
FC0000
FC0000
FC0000
ENDCHAR

STARTCHAR A3AE
ENCODING 41902
SWIDTH 960 0
DWIDTH 24 0
BBX 24 24 0 -6
BITMAP
FF8000
FF8000
FF8000
FF8000
FF8000
FF8000
FF8000
FF8000
FF8000
FF8000
FF8000
FF8000
FF8000
FF8000
FF8000
FF8000
FF8000
FF8000
FF8000
FF8000
FF8000
FF8000
FF8000
FF8000
ENDCHAR

STARTCHAR A3AF
ENCODING 41903
SWIDTH 960 0
DWIDTH 24 0
BBX 24 24 0 -6
BITMAP
FFF000
FFF000
FFF000
FFF000
FFF000
FFF000
FFF000
FFF000
FFF000
FFF000
FFF000
FFF000
FFF000
FFF000
FFF000
FFF000
FFF000
FFF000
FFF000
FFF000
FFF000
FFF000
FFF000
FFF000
ENDCHAR

STARTCHAR A3B0
ENCODING 41904
SWIDTH 960 0
DWIDTH 24 0
BBX 24 24 0 -6
BITMAP
FFFE00
FFFE00
FFFE00
FFFE00
FFFE00
FFFE00
FFFE00
FFFE00
FFFE00
FFFE00
FFFE00
FFFE00
FFFE00
FFFE00
FFFE00
FFFE00
FFFE00
FFFE00
FFFE00
FFFE00
FFFE00
FFFE00
FFFE00
FFFE00
ENDCHAR

STARTCHAR A3B1
ENCODING 41905
SWIDTH 960 0
DWIDTH 24 0
BBX 24 24 0 -6
BITMAP
FFFFC0
FFFFC0
FFFFC0
FFFFC0
FFFFC0
FFFFC0
FFFFC0
FFFFC0
FFFFC0
FFFFC0
FFFFC0
FFFFC0
FFFFC0
FFFFC0
FFFFC0
FFFFC0
FFFFC0
FFFFC0
FFFFC0
FFFFC0
FFFFC0
FFFFC0
FFFFC0
FFFFC0
ENDCHAR

STARTCHAR A3B2
ENCODING 41906
SWIDTH 960 0
DWIDTH 24 0
BBX 24 24 0 -6
BITMAP
FFFFF8
FFFFF8
FFFFF8
FFFFF8
FFFFF8
FFFFF8
FFFFF8
FFFFF8
FFFFF8
FFFFF8
FFFFF8
FFFFF8
FFFFF8
FFFFF8
FFFFF8
FFFFF8
FFFFF8
FFFFF8
FFFFF8
FFFFF8
FFFFF8
FFFFF8
FFFFF8
FFFFF8
ENDCHAR

STARTCHAR A3B3
ENCODING 41907
SWIDTH 960 0
DWIDTH 24 0
BBX 24 24 0 -6
BITMAP
001800
001800
001800
001800
001800
001800
001800
001800
001800
001800
001800
FFFFFF
FFFFFF
001800
001800
001800
001800
001800
001800
001800
001800
001800
001800
001800
ENDCHAR

STARTCHAR A3B4
ENCODING 41908
SWIDTH 960 0
DWIDTH 24 0
BBX 24 24 0 -6
BITMAP
001800
001800
001800
001800
001800
001800
001800
001800
001800
001800
001800
FFFFFF
FFFFFF
000000
000000
000000
000000
000000
000000
000000
000000
000000
000000
000000
ENDCHAR

STARTCHAR A3B5
ENCODING 41909
SWIDTH 960 0
DWIDTH 24 0
BBX 24 24 0 -6
BITMAP
000000
000000
000000
000000
000000
000000
000000
000000
000000
000000
000000
FFFFFF
FFFFFF
001800
001800
001800
001800
001800
001800
001800
001800
001800
001800
001800
ENDCHAR

STARTCHAR A3B6
ENCODING 41910
SWIDTH 960 0
DWIDTH 24 0
BBX 24 24 0 -6
BITMAP
001800
001800
001800
001800
001800
001800
001800
001800
001800
001800
001800
FFF800
FFF800
001800
001800
001800
001800
001800
001800
001800
001800
001800
001800
001800
ENDCHAR

STARTCHAR A3B7
ENCODING 41911
SWIDTH 960 0
DWIDTH 24 0
BBX 24 24 0 -6
BITMAP
001800
001800
001800
001800
001800
001800
001800
001800
001800
001800
001800
001FFF
001FFF
001800
001800
001800
001800
001800
001800
001800
001800
001800
001800
001800
ENDCHAR

STARTCHAR A3B8
ENCODING 41912
SWIDTH 960 0
DWIDTH 24 0
BBX 24 24 0 -6
BITMAP
FFFFFF
FFFFFF
FFFFFF
000000
000000
000000
000000
000000
000000
000000
000000
000000
000000
000000
000000
000000
000000
000000
000000
000000
000000
000000
000000
000000
ENDCHAR

STARTCHAR A3B9
ENCODING 41913
SWIDTH 960 0
DWIDTH 24 0
BBX 24 24 0 -6
BITMAP
000000
000000
000000
000000
000000
000000
000000
000000
000000
000000
000000
FFFFFF
FFFFFF
000000
000000
000000
000000
000000
000000
000000
000000
000000
000000
000000
ENDCHAR

STARTCHAR A3BA
ENCODING 41914
SWIDTH 960 0
DWIDTH 24 0
BBX 24 24 0 -6
BITMAP
001800
001800
001800
001800
001800
001800
001800
001800
001800
001800
001800
001800
001800
001800
001800
001800
001800
001800
001800
001800
001800
001800
001800
001800
ENDCHAR

STARTCHAR A3BB
ENCODING 41915
SWIDTH 960 0
DWIDTH 24 0
BBX 24 24 0 -6
BITMAP
000007
000007
000007
000007
000007
000007
000007
000007
000007
000007
000007
000007
000007
000007
000007
000007
000007
000007
000007
000007
000007
000007
000007
000007
ENDCHAR

STARTCHAR A3BC
ENCODING 41916
SWIDTH 960 0
DWIDTH 24 0
BBX 24 24 0 -6
BITMAP
000000
000000
000000
000000
000000
000000
000000
000000
000000
000000
000000
001FFF
001FFF
001800
001800
001800
001800
001800
001800
001800
001800
001800
001800
001800
ENDCHAR

STARTCHAR A3BD
ENCODING 41917
SWIDTH 960 0
DWIDTH 24 0
BBX 24 24 0 -6
BITMAP
000000
000000
000000
000000
000000
000000
000000
000000
000000
000000
000000
FFF800
FFF800
001800
001800
001800
001800
001800
001800
001800
001800
001800
001800
001800
ENDCHAR

STARTCHAR A3BE
ENCODING 41918
SWIDTH 960 0
DWIDTH 24 0
BBX 24 24 0 -6
BITMAP
001800
001800
001800
001800
001800
001800
001800
001800
001800
001800
001800
001FFF
001FFF
000000
000000
000000
000000
000000
000000
000000
000000
000000
000000
000000
ENDCHAR

STARTCHAR A3BF
ENCODING 41919
SWIDTH 960 0
DWIDTH 24 0
BBX 24 24 0 -6
BITMAP
001800
001800
001800
001800
001800
001800
001800
001800
001800
001800
001800
FFF800
FFF800
000000
000000
000000
000000
000000
000000
000000
000000
000000
000000
000000
ENDCHAR

STARTCHAR A3C0
ENCODING 41920
SWIDTH 960 0
DWIDTH 24 0
BBX 24 24 0 -6
BITMAP
000000
000000
000000
000000
000000
000000
000000
000000
000000
000000
000000
000007
00001F
000078
0000E0
0001C0
000380
000700
000600
000E00
000C00
001800
001800
001800
ENDCHAR

STARTCHAR A3C1
ENCODING 41921
SWIDTH 960 0
DWIDTH 24 0
BBX 24 24 0 -6
BITMAP
000000
000000
000000
000000
000000
000000
000000
000000
000000
000000
000000
E00000
F80000
1E0000
070000
038000
01C000
00E000
006000
007000
003000
001800
001800
001800
ENDCHAR

STARTCHAR A3C2
ENCODING 41922
SWIDTH 960 0
DWIDTH 24 0
BBX 24 24 0 -6
BITMAP
001800
001800
001800
000C00
000C00
000600
000600
000380
0001C0
0000F0
000038
00001F
000007
000000
000000
000000
000000
000000
000000
000000
000000
000000
000000
000000
ENDCHAR

STARTCHAR A3C3
ENCODING 41923
SWIDTH 960 0
DWIDTH 24 0
BBX 24 24 0 -6
BITMAP
001800
001800
001800
003000
003000
006000
00E000
01C000
038000
070000
1E0000
F80000
E00000
000000
000000
000000
000000
000000
000000
000000
000000
000000
000000
000000
ENDCHAR

STARTCHAR A3C4
ENCODING 41924
SWIDTH 960 0
DWIDTH 24 0
BBX 24 24 0 -6
BITMAP
000000
000000
000000
000000
000000
000000
FFFFFF
FFFFFF
000000
000000
000000
000000
000000
000000
000000
000000
FFFFFF
FFFFFF
000000
000000
000000
000000
000000
000000
ENDCHAR

STARTCHAR A3C5
ENCODING 41925
SWIDTH 960 0
DWIDTH 24 0
BBX 24 24 0 -6
BITMAP
001800
001800
001800
001800
001800
001800
001FFF
001FFF
001800
001800
001800
001800
001800
001800
001800
001800
001FFF
001FFF
001800
001800
001800
001800
001800
001800
ENDCHAR

STARTCHAR A3C6
ENCODING 41926
SWIDTH 960 0
DWIDTH 24 0
BBX 24 24 0 -6
BITMAP
001800
001800
001800
001800
001800
001800
FFFFFF
FFFFFF
001800
001800
001800
001800
001800
001800
001800
001800
FFFFFF
FFFFFF
001800
001800
001800
001800
001800
001800
ENDCHAR

STARTCHAR A3C7
ENCODING 41927
SWIDTH 960 0
DWIDTH 24 0
BBX 24 24 0 -6
BITMAP
001800
001800
001800
001800
001800
001800
FFF800
FFF800
001800
001800
001800
001800
001800
001800
001800
001800
FFF800
FFF800
001800
001800
001800
001800
001800
001800
ENDCHAR

STARTCHAR A3C8
ENCODING 41928
SWIDTH 960 0
DWIDTH 24 0
BBX 24 24 0 -6
BITMAP
000001
000003
000007
00000F
00001F
00003F
00007F
0000FF
0001FF
0003FF
0007FF
000FFF
001FFF
003FFF
007FFF
00FFFF
01FFFF
03FFFF
07FFFF
0FFFFF
1FFFFF
3FFFFF
7FFFFF
FFFFFF
ENDCHAR

STARTCHAR A3C9
ENCODING 41929
SWIDTH 960 0
DWIDTH 24 0
BBX 24 24 0 -6
BITMAP
800000
C00000
E00000
F00000
F80000
FC0000
FE0000
FF0000
FF8000
FFC000
FFE000
FFF000
FFF800
FFFC00
FFFE00
FFFF00
FFFF80
FFFFC0
FFFFE0
FFFFF0
FFFFF8
FFFFFC
FFFFFE
FFFFFF
ENDCHAR

STARTCHAR A3CA
ENCODING 41930
SWIDTH 960 0
DWIDTH 24 0
BBX 24 24 0 -6
BITMAP
FFFFFF
7FFFFF
3FFFFF
1FFFFF
0FFFFF
07FFFF
03FFFF
01FFFF
00FFFF
007FFF
003FFF
001FFF
000FFF
0007FF
0003FF
0001FF
0000FF
00007F
00003F
00001F
00000F
000007
000003
000001
ENDCHAR

STARTCHAR A3CB
ENCODING 41931
SWIDTH 960 0
DWIDTH 24 0
BBX 24 24 0 -6
BITMAP
FFFFFF
FFFFFE
FFFFFC
FFFFF8
FFFFF0
FFFFE0
FFFFC0
FFFF80
FFFF00
FFFE00
FFFC00
FFF800
FFF000
FFE000
FFC000
FF8000
FF0000
FE0000
FC0000
F80000
F00000
E00000
C00000
800000
ENDCHAR

STARTCHAR A3CC
ENCODING 41932
SWIDTH 960 0
DWIDTH 24 0
BBX 24 24 0 -6
BITMAP
000003
000006
00000C
000018
000030
000060
0000C0
000180
000300
000600
000C00
001800
003000
006000
00C000
018000
030000
060000
0C0000
180000
300000
600000
C00000
800000
ENDCHAR

STARTCHAR A3CD
ENCODING 41933
SWIDTH 960 0
DWIDTH 24 0
BBX 24 24 0 -6
BITMAP
800000
C00000
600000
300000
180000
0C0000
060000
030000
018000
00C000
006000
003000
001800
000C00
000600
000300
000180
0000C0
000060
000030
000018
00000C
000006
000003
ENDCHAR

STARTCHAR A3CE
ENCODING 41934
SWIDTH 960 0
DWIDTH 24 0
BBX 24 24 0 -6
BITMAP
C00001
600003
300006
18000C
0C0018
060030
030060
0180C0
00C180
006300
003600
001C00
001C00
003600
006300
00C180
0180C0
030060
060030
0C0018
18000C
300006
600003
C00001
ENDCHAR

STARTCHAR A421
ENCODING 42017
SWIDTH 960 0
DWIDTH 24 0
BBX 24 24 0 -6
BITMAP
000000
0C0060
0EFFF0
0C3060
0C3060
0C3060
0C30C0
2F30C0
2DB0C0
2DB0D0
6CBFF8
6C301C
0C6818
0C6C18
0C6630
0C6330
0C61E0
0CC0C0
0CC1E0
0CC370
0D8638
0D0C1E
0E300C
000000
ENDCHAR

STARTCHAR A422
ENCODING 42018
SWIDTH 960 0
DWIDTH 24 0
BBX 24 24 0 -6
BITMAP
000000
0C0C00
0E0E00
0C0C00
0C0C00
0C1800
0C1808
2F1FFC
2DB30E
2DE318
6C8300
6C0300
0C0300
0C0300
0C0380
0C0680
0C06C0
0C0CC0
0C0C60
0C1870
0C3038
0C601E
0D800C
000000
ENDCHAR

STARTCHAR A423
ENCODING 42019
SWIDTH 960 0
DWIDTH 24 0
BBX 24 24 0 -6
BITMAP
000000
0C0030
0E00F8
0C23F0
0C3FC0
0C30C0
0C30C0
2F30C0
2DB0C8
2DB0DC
6CBFFE
6C30C0
0C30C0
0C30C0
0C30C0
0C30C0
0C3060
0C3060
0C3064
0C3074
0C3F3C
0C3C1E
0C180C
000000
ENDCHAR

STARTCHAR A424
ENCODING 42020
SWIDTH 960 0
DWIDTH 24 0
BBX 24 24 0 -6
BITMAP
000000
0C600C
0E702E
0C603C
0C703C
0C783C
0C6C6C
2F666C
2DE66C
2DE3CC
6CE3CC
6C61CC
0C61CC
0C63EC
0C636C
0C667C
0C6C3C
0C783C
0C701C
0C600C
0C600C
0C7FFC
0C2008
000000
ENDCHAR

STARTCHAR A425
ENCODING 42021
SWIDTH 960 0
DWIDTH 24 0
BBX 24 24 0 -6
BITMAP
000000
0C0070
0E01F8
0C27C0
0C3E00
0C3000
0C3008
2F301C
2DBFFE
2DB0C0
6CB0C0
6C30C0
0C30C0
0C30C0
0C30C0
0C30C0
0C30C0
0C30C0
0C30C0
0C60C0
0C60C0
0CC0C0
0D80C0
000000
ENDCHAR

STARTCHAR A426
ENCODING 42022
SWIDTH 960 0
DWIDTH 24 0
BBX 24 24 0 -6
BITMAP
000000
0C0008
0E001C
0C3FFE
0C0180
0C01C0
0C0180
2F0380
2D8380
2D8380
6C87A0
6C0798
0C0D8C
0C198E
0C318E
0CC186
0C0180
0C0180
0C0180
0C0180
0C0180
0C0180
0C0180
000000
ENDCHAR

STARTCHAR A427
ENCODING 42023
SWIDTH 960 0
DWIDTH 24 0
BBX 24 24 0 -6
BITMAP
000000
0C0300
0E0380
0C0300
0C0780
0C06C0
0C0C60
2F1838
2DB01E
2DE06C
6CBFF0
6C0000
0C0000
0C0010
0C7FF8
0C001C
0C0018
0C0030
0C0060
0C00C0
0C0180
0C0300
0C0400
000000
ENDCHAR

STARTCHAR A428
ENCODING 42024
SWIDTH 960 0
DWIDTH 24 0
BBX 24 24 0 -6
BITMAP
000000
00C000
01E40C
1387FE
1E060C
18060C
18060C
18260C
1FF60C
183E0C
1837FC
183608
183600
1FF600
182600
180600
180600
180600
180604
100604
30060C
2007FE
4003FC
000000
ENDCHAR

STARTCHAR A429
ENCODING 42025
SWIDTH 960 0
DWIDTH 24 0
BBX 24 24 0 -6
BITMAP
000000
060600
070380
0601C0
0600C0
064008
7FE01C
063FFE
060180
064180
068180
0701A0
0E0198
7E018C
76018E
260186
060180
060180
060180
060180
3E0180
0E0180
0C0180
000000
ENDCHAR

STARTCHAR A42A
ENCODING 42026
SWIDTH 960 0
DWIDTH 24 0
BBX 24 24 0 -6
BITMAP
000000
060180
0701C0
060180
060180
069188
7FDFFC
06318E
067198
066180
068180
070180
0E0380
7E03C0
7603C0
2606C0
0606C0
060CC0
060CC4
0618C4
3E30CC
0E60FE
0D807C
000000
ENDCHAR

STARTCHAR A42B
ENCODING 42027
SWIDTH 960 0
DWIDTH 24 0
BBX 24 24 0 -6
BITMAP
000000
060000
070010
060038
063FFC
064000
7FE000
060000
060008
06401C
06FFFE
070300
0E0380
7E0300
760600
260600
060C00
061820
063018
06600C
3EFFFE
0E7F0E
0C3806
000000
ENDCHAR

STARTCHAR A42C
ENCODING 42028
SWIDTH 960 0
DWIDTH 24 0
BBX 24 24 0 -6
BITMAP
000000
060010
070038
061FFC
060000
064000
7FE000
060008
06001C
067FFE
068660
070660
0E0660
7E0660
760660
260660
060660
060660
060C64
060C64
3E186C
0E307E
0CC03C
000000
ENDCHAR

STARTCHAR A42D
ENCODING 42029
SWIDTH 960 0
DWIDTH 24 0
BBX 24 24 0 -6
BITMAP
000000
060008
07001C
067FFE
060180
0641C0
7FE1C0
060380
060380
064380
0687A0
070790
0E0D98
7E198C
76318E
266186
068186
060180
060180
060180
3E0180
0E0180
0C0180
000000
ENDCHAR

STARTCHAR A42E
ENCODING 42030
SWIDTH 960 0
DWIDTH 24 0
BBX 24 24 0 -6
BITMAP
000000
060000
07100C
061FFE
06180C
06580C
7FF80C
06180C
06180C
06180C
06D80C
07180C
0E1FFC
7E180C
76180C
26180C
06180C
06180C
06180C
06180C
3E180C
0E1FFC
0C0808
000000
ENDCHAR

STARTCHAR A42F
ENCODING 42031
SWIDTH 960 0
DWIDTH 24 0
BBX 24 24 0 -6
BITMAP
000000
060030
073FF8
061830
061830
065830
7FF830
061860
061860
065864
069FFE
07180C
0E180C
7E340C
763418
263218
063330
0631E0
0630C0
0661E0
3E6338
0EC61E
0D980C
000000
ENDCHAR

STARTCHAR A430
ENCODING 42032
SWIDTH 960 0
DWIDTH 24 0
BBX 24 24 0 -6
BITMAP
000000
060C00
070E00
060C00
060C00
065800
7FF808
061FFC
06318E
066198
068180
070180
0E0180
7E0180
7601C0
260340
060360
060360
060630
060630
3E0C18
0E181E
0C600C
000000
ENDCHAR

STARTCHAR A431
ENCODING 42033
SWIDTH 960 0
DWIDTH 24 0
BBX 24 24 0 -6
BITMAP
000000
060038
07007C
0621F0
063FC0
0630C0
7FF0C0
0630C0
0630C0
0630CC
06BFFE
0730C0
0E30C0
7E30C0
7630C0
2630C0
063060
063060
063064
063034
3E3F3C
0E3C1E
0C180C
000000
ENDCHAR

STARTCHAR A432
ENCODING 42034
SWIDTH 960 0
DWIDTH 24 0
BBX 24 24 0 -6
BITMAP
000000
060180
0701D8
06018C
060184
064180
7FE188
06019C
063FFE
064180
068180
070180
0E0380
7E03C0
7603C0
2607C0
0606C0
060CC0
060CC4
0618C4
3E30CC
0E60FE
0D807C
000000
ENDCHAR

STARTCHAR A433
ENCODING 42035
SWIDTH 960 0
DWIDTH 24 0
BBX 24 24 0 -6
BITMAP
000000
060200
070300
060300
060600
064C00
7FF820
063018
06600C
06FFFE
077CC6
060CC0
0E0CC0
7E0CC0
760CC0
260CC0
060CC0
060CC0
0618C4
0618C4
3E30CC
0E60FE
0D807C
000000
ENDCHAR

STARTCHAR A434
ENCODING 42036
SWIDTH 960 0
DWIDTH 24 0
BBX 24 24 0 -6
BITMAP
000000
06100C
071FFE
06180C
06180C
06580C
7FF80C
06180C
061FFC
06580C
06980C
07180C
0E180C
7E180C
761FFC
26180C
06180C
06180C
06180C
06300C
3E307C
0E601C
0CC018
000000
ENDCHAR

STARTCHAR A435
ENCODING 42037
SWIDTH 960 0
DWIDTH 24 0
BBX 24 24 0 -6
BITMAP
000000
060030
070078
0601F0
061FC0
064180
7FE180
060180
060188
06419C
06FFFE
070180
0E0180
7E01C0
760340
260340
060660
060660
060C30
060C38
3E181C
0E301E
0CC00C
000000
ENDCHAR

STARTCHAR A436
ENCODING 42038
SWIDTH 960 0
DWIDTH 24 0
BBX 24 24 0 -6
BITMAP
000000
060180
0701C0
060180
060180
06418C
7FFFFE
060180
060180
06318C
06B98E
07318C
0E318C
7E318C
76318C
263FFC
061188
060180
060184
060184
3E018C
0E01FE
0C00FC
000000
ENDCHAR

STARTCHAR A437
ENCODING 42039
SWIDTH 960 0
DWIDTH 24 0
BBX 24 24 0 -6
BITMAP
000000
060300
070380
060300
060380
0646C0
7FEC60
061830
06301C
06606E
069FF4
070000
0E0000
7E0030
763FF8
260030
060030
060060
060060
0600C0
3E00C0
0E0180
0C0300
000000
ENDCHAR

STARTCHAR A438
ENCODING 42040
SWIDTH 960 0
DWIDTH 24 0
BBX 24 24 0 -6
BITMAP
000000
060300
070380
060300
060380
0646C0
7FEC60
061830
06301C
06600E
068C64
070E70
0E0C60
7E0C60
760C60
260C60
060C60
060C60
060C60
061860
3E1860
0E3060
0C6060
000000
ENDCHAR

STARTCHAR A439
ENCODING 42041
SWIDTH 960 0
DWIDTH 24 0
BBX 24 24 0 -6
BITMAP
000000
000010
418038
7FDFFC
618180
618180
618180
618180
618180
618180
618188
7F819C
61FFFE
618180
618180
618180
618180
618180
618180
7F8180
210180
000180
000180
000000
ENDCHAR

STARTCHAR A43A
ENCODING 42042
SWIDTH 960 0
DWIDTH 24 0
BBX 24 24 0 -6
BITMAP
000000
000010
418038
7FDFFC
618180
618180
618180
618180
618180
61818C
61FFFE
7F8180
618180
618180
618180
618180
618180
618180
618180
7F8180
210F80
000380
000300
000000
ENDCHAR

STARTCHAR A43B
ENCODING 42043
SWIDTH 960 0
DWIDTH 24 0
BBX 24 24 0 -6
BITMAP
000000
000C00
418E00
7FCC00
618C00
61980C
619FFE
61B00C
61A00C
61C00C
618C0C
7F870C
61838C
6181CC
6180CC
61800C
61800C
61800C
61800C
7F800C
21001C
0001F8
000070
000000
ENDCHAR

STARTCHAR A43C
ENCODING 42044
SWIDTH 960 0
DWIDTH 24 0
BBX 24 24 0 -6
BITMAP
000000
080030
0FFFF8
0C0030
0C0030
0C0030
0FFFF0
0C0030
0C0030
0C0030
0FFFF0
041820
001C00
001808
00181C
7FFFFE
003400
003600
006300
00C180
0180E0
06007C
380038
000000
ENDCHAR

STARTCHAR A43D
ENCODING 42045
SWIDTH 960 0
DWIDTH 24 0
BBX 24 24 0 -6
BITMAP
000000
080030
0FFFF8
0C0030
0C0030
0C0030
0FFFF0
0C0030
0C0030
0C0030
0FFFF0
041820
001C00
001800
30180C
38180E
30180C
30180C
30180C
30180C
30180C
3FFFFC
100008
000000
ENDCHAR

STARTCHAR A43E
ENCODING 42046
SWIDTH 960 0
DWIDTH 24 0
BBX 24 24 0 -6
BITMAP
000000
060030
071FF8
060180
060180
060180
06C180
7FE180
060188
0E019C
0FBFFE
0EC180
1EC180
1E4180
360180
260180
460180
060180
060180
060180
060F80
060380
060300
000000
ENDCHAR

STARTCHAR A43F
ENCODING 42047
SWIDTH 960 0
DWIDTH 24 0
BBX 24 24 0 -6
BITMAP
000000
060030
070FF8
060000
060000
060008
06C01C
7FFFFE
060600
0E0600
0F8600
0ECC00
1ECC18
1E4FFC
360418
260018
460018
060018
060018
060018
060038
0603F0
0600E0
000000
ENDCHAR

STARTCHAR A440
ENCODING 42048
SWIDTH 960 0
DWIDTH 24 0
BBX 24 24 0 -6
BITMAP
000000
060300
0703B0
06031C
06030C
060300
06630C
7FFFFE
060300
0E0300
0F8300
0EC300
1EC300
1E4180
360180
260180
460180
0600C0
0600C4
0600E4
06007C
06003E
06001C
000000
ENDCHAR

STARTCHAR A441
ENCODING 42049
SWIDTH 960 0
DWIDTH 24 0
BBX 24 24 0 -6
BITMAP
000000
060180
0701C0
060180
060180
060180
06C180
7FE188
06019C
0E7FFE
0F8180
0EC180
1EC180
1E4180
3601C0
260340
460340
060660
060660
060C30
061838
06301E
06C00C
000000
ENDCHAR

STARTCHAR A442
ENCODING 42050
SWIDTH 960 0
DWIDTH 24 0
BBX 24 24 0 -6
BITMAP
000000
060008
07001C
063FFE
060660
060660
06C660
7FE660
060660
0E0660
0F8660
0EC660
1EC660
1E4660
360660
260660
460660
060660
060C64
060C64
06186C
06307E
06C03C
000000
ENDCHAR

STARTCHAR A443
ENCODING 42051
SWIDTH 960 0
DWIDTH 24 0
BBX 24 24 0 -6
BITMAP
000000
060008
077FFC
06200E
06200C
06230C
06318C
3FF198
061818
0E1818
0F9830
0ECC30
1ECC60
1E4660
3606C0
2603C0
460180
060380
0606C0
060C60
061838
06301E
06C00C
000000
ENDCHAR

STARTCHAR A444
ENCODING 42052
SWIDTH 960 0
DWIDTH 24 0
BBX 24 24 0 -6
BITMAP
000000
0600C0
0700E0
060CC0
060EC0
060CC0
06CCC0
7FECCC
060CFE
0E0FCC
0FBCCC
0ECCCC
1ECCCC
1E4CD8
360CD8
260CD8
460CD0
060CC0
060C04
060C04
060C0C
060FFE
0607FC
000000
ENDCHAR

STARTCHAR A445
ENCODING 42053
SWIDTH 960 0
DWIDTH 24 0
BBX 24 24 0 -6
BITMAP
000000
060030
071FF8
06001C
060018
060030
06C040
7FE180
060180
0E0188
0F819C
0EFFFE
1EC180
1E4180
360180
260180
460180
060180
060180
060180
060F80
060380
060300
000000
ENDCHAR

STARTCHAR A446
ENCODING 42054
SWIDTH 960 0
DWIDTH 24 0
BBX 24 24 0 -6
BITMAP
000000
060600
070700
060600
060608
060E1C
06CFFE
7FF800
063000
0E6008
0F8FFC
0EC018
1EC030
1E4060
3600C0
260180
460300
060600
060C04
061804
06300C
063FFE
061FFC
000000
ENDCHAR

STARTCHAR A447
ENCODING 42055
SWIDTH 960 0
DWIDTH 24 0
BBX 24 24 0 -6
BITMAP
000000
061060
071FF0
061860
061860
061860
06D860
7FF860
061860
0E1E60
0F9BE0
0ED9E0
1ED860
1E5860
361860
261860
461860
061860
061864
063064
06306C
06607E
07803C
000000
ENDCHAR

STARTCHAR A448
ENCODING 42056
SWIDTH 960 0
DWIDTH 24 0
BBX 24 24 0 -6
BITMAP
000000
001800
001C08
00181C
7FFFFE
001800
001820
001870
1FFFF8
000000
040030
07FFF8
061830
061830
061834
7FFFFE
0C3060
0C3060
0C3068
0FFFFC
0401C0
001F80
000700
000000
ENDCHAR

STARTCHAR A449
ENCODING 42057
SWIDTH 960 0
DWIDTH 24 0
BBX 24 24 0 -6
BITMAP
000000
030020
038070
07FFF8
060000
0C00C0
1BFFE0
300000
4000C0
0FFFE0
0000C0
0000C0
00C0C0
00E0C0
00C0C0
18C6C0
1CC760
18C660
18C664
18C634
18C63C
1FFE1E
08040C
000000
ENDCHAR

STARTCHAR A44A
ENCODING 42058
SWIDTH 960 0
DWIDTH 24 0
BBX 24 24 0 -6
BITMAP
000000
030020
038070
07FFF8
060000
0C00C0
1BFFE0
300000
4000C0
0FFFE0
0000C0
0664C0
0776C0
0666C0
0666C0
0666C0
066660
066660
066664
0C6634
0C663C
18661E
60660C
000000
ENDCHAR

STARTCHAR A44B
ENCODING 42059
SWIDTH 960 0
DWIDTH 24 0
BBX 24 24 0 -6
BITMAP
000000
000800
100600
0C0308
0E031C
06FFFE
000600
400600
300600
380618
1807FC
020618
020618
040618
040C18
0C0C18
180C18
781818
381818
1C3038
0C6070
0CC3E0
0300C0
000000
ENDCHAR

STARTCHAR A44C
ENCODING 42060
SWIDTH 960 0
DWIDTH 24 0
BBX 24 24 0 -6
BITMAP
000000
000010
100038
0CFFFC
0E1860
061860
001860
401860
301860
381860
18186C
03FFFE
021860
041860
041860
0C1860
181860
781860
381860
1C3060
0C3060
0C6060
018060
000000
ENDCHAR

STARTCHAR A44D
ENCODING 42061
SWIDTH 960 0
DWIDTH 24 0
BBX 24 24 0 -6
BITMAP
000000
001860
101C70
0C1860
0E1860
061860
001868
40FFFC
301860
381860
181860
021860
021864
05FFFE
041860
0C1860
181860
781860
381860
1C1860
0C3060
0C6060
018060
000000
ENDCHAR

STARTCHAR A44E
ENCODING 42062
SWIDTH 960 0
DWIDTH 24 0
BBX 24 24 0 -6
BITMAP
000000
000010
100038
0C7FFC
0E0000
060000
000000
600000
300008
38001C
1BFFFE
020600
020600
040C00
040C00
0C1800
181800
783020
383018
1C600C
0CFFFE
0C7F0E
003006
000000
ENDCHAR

STARTCHAR A44F
ENCODING 42063
SWIDTH 960 0
DWIDTH 24 0
BBX 24 24 0 -6
BITMAP
000000
000300
1003B0
0C031C
0E030C
060300
000308
40031C
30FFFE
380300
180300
020300
020380
040780
040780
0C0D80
180D80
781980
381984
1C3184
0C618C
0CC1FE
0300FC
000000
ENDCHAR

STARTCHAR A450
ENCODING 42064
SWIDTH 960 0
DWIDTH 24 0
BBX 24 24 0 -6
BITMAP
000000
00600C
107FFE
0C618C
0E618C
06618C
00698C
43FD8C
30618C
38618C
18618C
02618C
02618C
04618C
04618C
0C618C
18678C
787D8C
38798C
1C330C
0C037C
0C061C
001818
000000
ENDCHAR

STARTCHAR A451
ENCODING 42065
SWIDTH 960 0
DWIDTH 24 0
BBX 24 24 0 -6
BITMAP
000000
000300
1003B0
0C031C
0E030C
060300
000300
400308
30031C
38FFFE
180300
020300
020300
040300
040380
0C0680
1806C0
780CC0
380C60
1C1870
0C3038
0C601E
01800C
000000
ENDCHAR

STARTCHAR A452
ENCODING 42066
SWIDTH 960 0
DWIDTH 24 0
BBX 24 24 0 -6
BITMAP
000000
000C00
100E00
0C0C00
0E0C00
060C08
000C1C
41FFFE
301800
381800
181800
021980
0231C0
043180
043180
0C3300
186300
786600
38C640
18CC30
1D9818
1F3FFC
0C1C0C
000000
ENDCHAR

STARTCHAR A453
ENCODING 42067
SWIDTH 960 0
DWIDTH 24 0
BBX 24 24 0 -6
BITMAP
000000
000000
100000
0C0000
0E400C
067FFE
00600C
40600C
30600C
38600C
18600C
02600C
027FFC
04600C
04600C
0C600C
18600C
78600C
38600C
1C7FFC
0C2008
0C0000
000000
000000
ENDCHAR

STARTCHAR A454
ENCODING 42068
SWIDTH 960 0
DWIDTH 24 0
BBX 24 24 0 -6
BITMAP
000000
000300
100380
0C0300
0E0300
060300
000300
406300
307308
38631C
1863FE
026300
026300
046300
046300
0C6300
186300
786300
386300
1C6300
0C6308
0C631C
03FFFE
000000
ENDCHAR

STARTCHAR A455
ENCODING 42069
SWIDTH 960 0
DWIDTH 24 0
BBX 24 24 0 -6
BITMAP
000000
000600
100300
0C0300
0E0300
06830C
00FFFE
40C30C
30C30C
38C30C
18C30C
02C38C
02C68C
04C6CC
04CC7C
0CF02C
18C00C
78C00C
38C00C
1CC00C
0CC07C
0CC01C
00C018
000000
ENDCHAR

STARTCHAR A456
ENCODING 42070
SWIDTH 960 0
DWIDTH 24 0
BBX 24 24 0 -6
BITMAP
000000
000600
100700
0C0600
0E0C00
061800
003000
406010
30C00C
39FFFE
18FCC6
020CC0
020CC0
040CC0
040CC0
0C0CC0
180CC0
7818C0
3818C4
1C18C4
0C30CC
0C60FE
01807C
000000
ENDCHAR

STARTCHAR A457
ENCODING 42071
SWIDTH 960 0
DWIDTH 24 0
BBX 24 24 0 -6
BITMAP
000000
001800
101C00
0C1800
0E1800
06180C
003FFE
40366C
30666C
38C66C
198CCC
020CCC
020CCC
04198C
04198C
0C198C
18330C
78330C
38660C
1D8C18
0C1838
0C31F0
00C060
000000
ENDCHAR

STARTCHAR A458
ENCODING 42072
SWIDTH 960 0
DWIDTH 24 0
BBX 24 24 0 -6
BITMAP
000000
00600C
10700E
0C600C
0E600C
06600C
00600C
40600C
30600C
387FFC
186008
026000
026000
04600C
047FFE
0C600C
18600C
78600C
38600C
1CC00C
0CC00C
0D800C
03000C
000000
ENDCHAR

STARTCHAR A459
ENCODING 42073
SWIDTH 960 0
DWIDTH 24 0
BBX 24 24 0 -6
BITMAP
000000
000038
10007C
0C81F0
0EFFC0
06C300
00C300
40C300
30C308
38C31C
18FFFE
02C180
02C180
04C180
04C180
0CC0C0
18C0C0
78C0C0
38C064
1CC3F4
0CFE3C
0CF81E
00600C
000000
ENDCHAR

STARTCHAR A45A
ENCODING 42074
SWIDTH 960 0
DWIDTH 24 0
BBX 24 24 0 -6
BITMAP
000000
00400C
107FFE
0C6000
0E6000
066000
006000
40600C
307FFE
38680C
18680C
02680C
026818
046418
046630
0C6630
1863E0
7861C0
3861E0
1CC370
0CC638
0D8C1E
03700C
000000
ENDCHAR

STARTCHAR A45B
ENCODING 42075
SWIDTH 960 0
DWIDTH 24 0
BBX 24 24 0 -6
BITMAP
000000
000300
100380
0C0300
0E0308
06031C
01FFFE
400300
300300
380300
180308
02FFFC
024018
042030
041060
0C0CC0
180780
780300
380780
1C0CC0
0C1870
0C303E
01C01C
000000
ENDCHAR

STARTCHAR A45C
ENCODING 42076
SWIDTH 960 0
DWIDTH 24 0
BBX 24 24 0 -6
BITMAP
000000
003000
103800
0C3020
0E3070
067FF8
00C300
408300
310300
380300
180300
020308
02031C
05FFFE
040300
0C0300
180300
780300
380300
1C0300
0C0300
0C0300
000300
000000
ENDCHAR

STARTCHAR A45D
ENCODING 42077
SWIDTH 960 0
DWIDTH 24 0
BBX 24 24 0 -6
BITMAP
000000
001980
101DC0
0C1980
0E1980
061980
003180
403180
307180
38718C
18F1FE
01B180
023180
043180
043180
0C3180
183180
783180
383184
1C3184
0C318C
0C31FE
0030FC
000000
ENDCHAR

STARTCHAR A45E
ENCODING 42078
SWIDTH 960 0
DWIDTH 24 0
BBX 24 24 0 -6
BITMAP
000000
060000
070000
060018
061FFC
068180
06C180
678180
660180
760180
360180
160180
160180
060180
060180
070180
0D8180
0CC180
08C180
18C188
10019C
203FFE
400000
000000
ENDCHAR

STARTCHAR A45F
ENCODING 42079
SWIDTH 960 0
DWIDTH 24 0
BBX 24 24 0 -6
BITMAP
000000
060000
070180
0601C0
060180
069980
06DD98
6799BC
661BD8
761F98
367998
161998
161998
0619B0
0619B0
0719B0
0D99A0
0CD980
08D984
18D804
10180C
201FFE
4007FC
000000
ENDCHAR

STARTCHAR A460
ENCODING 42080
SWIDTH 960 0
DWIDTH 24 0
BBX 24 24 0 -6
BITMAP
000000
030000
03800C
030FFE
1B00CC
1B00CC
1B40CC
1FE0CC
3300CC
3308CC
230CCC
4366CC
03C78C
07038C
1F018C
7B018C
33030C
03030C
03020C
03060C
03041C
0308F8
031030
000000
ENDCHAR

STARTCHAR A461
ENCODING 42081
SWIDTH 960 0
DWIDTH 24 0
BBX 24 24 0 -6
BITMAP
000000
010600
418300
338180
1B0180
0E0100
0C000C
1E7FFE
330300
430300
030340
070320
0D8330
0D8318
19831C
19830C
318300
418300
018300
030300
070300
1E0300
0C0300
000000
ENDCHAR

STARTCHAR A462
ENCODING 42082
SWIDTH 960 0
DWIDTH 24 0
BBX 24 24 0 -6
BITMAP
000000
010018
41BFFC
3398C0
1B18C0
0E18C0
0C18C0
1E18C0
3318C0
4318CC
031FFE
0701C0
0D81C0
0D83C0
1986C0
1984C0
318CC0
4198C0
0190C0
0320C0
0740C0
1E07C0
0C0180
000000
ENDCHAR

STARTCHAR A463
ENCODING 42083
SWIDTH 960 0
DWIDTH 24 0
BBX 24 24 0 -6
BITMAP
000000
010000
41C060
339FF0
1B0660
0E0660
0C0660
1E0660
330660
430660
03066C
077FFE
0D8660
0D8660
198660
198C60
318C60
418C60
018C60
030C60
070C6C
1E7FFE
0C0000
000000
ENDCHAR

STARTCHAR A464
ENCODING 42084
SWIDTH 960 0
DWIDTH 24 0
BBX 24 24 0 -6
BITMAP
000000
010180
41C1C0
338180
1B0180
0E218C
0C3FFE
1E318C
33318C
43318C
03318C
07318C
0DBFFC
0D9188
198180
198180
318180
418180
018180
030180
070180
1E0180
0C0180
000000
ENDCHAR

STARTCHAR A465
ENCODING 42085
SWIDTH 960 0
DWIDTH 24 0
BBX 24 24 0 -6
BITMAP
000000
010180
4181C0
338180
1B0300
0E0200
0C0620
1E0C18
333FFC
431EEE
0306C6
0706C0
0D86C0
0D86C0
1986C0
198CC0
318CC0
418CC0
018CC4
0318C4
0710CC
1E20FE
0C407C
000000
ENDCHAR

STARTCHAR A466
ENCODING 42086
SWIDTH 960 0
DWIDTH 24 0
BBX 24 24 0 -6
BITMAP
000000
010C00
418600
338300
1B0318
0E7FFC
0C0000
1E0000
330860
430FF0
030C60
070C60
0D8C60
0D8C60
198C60
199860
319860
419860
019864
033064
07206C
1E407E
0C803C
000000
ENDCHAR

STARTCHAR A467
ENCODING 42087
SWIDTH 960 0
DWIDTH 24 0
BBX 24 24 0 -6
BITMAP
000000
010000
418030
3380F8
1B03F0
0E1F80
0C0180
1E0180
330180
430180
030180
070180
0D8198
0D9FFC
198180
198180
318180
418180
018180
030180
07018C
1E7FFE
0C0000
000000
ENDCHAR

STARTCHAR A468
ENCODING 42088
SWIDTH 960 0
DWIDTH 24 0
BBX 24 24 0 -6
BITMAP
000000
000010
010038
7F9FFC
0C0180
0C0180
0C0180
0C0180
0C0180
0D018C
7FBFFE
0C0180
0C0180
0C0180
0C0180
0C8180
0F0180
7C0180
780180
600180
000180
000180
000180
000000
ENDCHAR

STARTCHAR A469
ENCODING 42089
SWIDTH 960 0
DWIDTH 24 0
BBX 24 24 0 -6
BITMAP
000000
000010
010038
7F9FFC
0C0180
0C0180
0C0180
0C0180
0C0180
0D018C
7FBFFE
0C0180
0C0180
0C0180
0C0180
0C8180
0F0180
7C0180
780180
600180
000F80
000380
000300
000000
ENDCHAR

STARTCHAR A46A
ENCODING 42090
SWIDTH 960 0
DWIDTH 24 0
BBX 24 24 0 -6
BITMAP
000000
000600
010700
7F8600
0C0600
0C0C0C
0C0FFE
0C180C
0C100C
0D200C
7F800C
0C080C
0C060C
0C030C
0C038C
0C818C
0F000C
7C000C
78000C
60001C
00003C
0001F8
000070
000000
ENDCHAR

STARTCHAR A46B
ENCODING 42091
SWIDTH 960 0
DWIDTH 24 0
BBX 24 24 0 -6
BITMAP
000000
00300C
01380E
7FB18C
0C318C
0C318C
0C318C
0C318C
0C318C
0D318C
7FB18C
0C318C
0C318C
0C318C
0C318C
0CB18C
0F318C
7C618C
78618C
60618C
00C18C
01800C
06000C
000000
ENDCHAR

STARTCHAR A46C
ENCODING 42092
SWIDTH 960 0
DWIDTH 24 0
BBX 24 24 0 -6
BITMAP
000000
000000
010020
7F8070
0C3FF8
0C0300
0C0300
0C0300
0C0300
0D0300
7F8300
0C0300
0C0300
0C0300
0C0300
0C8300
0F0300
7C0300
780300
600308
00031C
00FFFE
000000
000000
ENDCHAR

STARTCHAR A46D
ENCODING 42093
SWIDTH 960 0
DWIDTH 24 0
BBX 24 24 0 -6
BITMAP
000000
000008
00001C
001FFE
4060C0
7FF0C0
6660C0
6660C0
6660C0
6660C0
7FE0C0
6660C0
6660C0
6660C0
6660C0
7FE0C0
2040C0
0000C0
0000C0
0000C0
0007C0
0001C0
000180
000000
ENDCHAR

STARTCHAR A46E
ENCODING 42094
SWIDTH 960 0
DWIDTH 24 0
BBX 24 24 0 -6
BITMAP
000000
003000
003800
103060
1FFFF0
183060
183060
1FFFE0
183060
183060
1FFFE0
080048
00001C
7FFFFE
018000
0300C0
07FFE0
0200C0
0000C0
0001C0
000380
003F00
000E00
000000
ENDCHAR

STARTCHAR A46F
ENCODING 42095
SWIDTH 960 0
DWIDTH 24 0
BBX 24 24 0 -6
BITMAP
000000
003000
001C08
040C1C
07FFFE
660000
360000
160020
0E0070
06FFF8
060600
1E0600
760600
260600
060600
060600
0C0600
0C0600
0C0600
180600
183E00
100E00
200C00
000000
ENDCHAR

STARTCHAR A470
ENCODING 42096
SWIDTH 960 0
DWIDTH 24 0
BBX 24 24 0 -6
BITMAP
000000
001800
000E08
04061C
07FFFE
660000
360000
166000
0E7000
066020
066038
1E6070
7660E0
2663C0
066F00
067800
0C6000
0C6004
0C6004
186004
18700C
103FFE
201FFC
000000
ENDCHAR

STARTCHAR A471
ENCODING 42097
SWIDTH 960 0
DWIDTH 24 0
BBX 24 24 0 -6
BITMAP
000000
003000
007800
04C030
07FFF8
060030
060030
07FFF0
060030
060030
07FFF0
020020
001800
001C10
001838
1FFFFC
001800
001800
001800
001800
001800
001800
001800
000000
ENDCHAR

STARTCHAR A472
ENCODING 42098
SWIDTH 960 0
DWIDTH 24 0
BBX 24 24 0 -6
BITMAP
000000
180000
0C00C0
0C7FE0
060CC0
064CC0
7FECC0
01CCC0
018CC0
030CCC
060CFE
0F8C4C
1ECC0C
36580C
46180C
06180C
061818
061818
063018
063038
0661F0
064070
068060
000000
ENDCHAR

STARTCHAR A473
ENCODING 42099
SWIDTH 960 0
DWIDTH 24 0
BBX 24 24 0 -6
BITMAP
000000
002300
007380
7FFB00
18C300
18C300
18C300
1FC300
18C300
18C300
18C300
1FC300
18C300
18C300
18C300
1FC300
7CC300
70C304
20C304
00C304
00C30C
00C3FE
00C1FC
000000
ENDCHAR

STARTCHAR A474
ENCODING 42100
SWIDTH 960 0
DWIDTH 24 0
BBX 24 24 0 -6
BITMAP
000000
000008
10801C
1FCFFE
18C18E
18C18C
18C18C
1CC18C
1EC18C
1BD18C
19CD8C
18C78C
19C38C
1BC38C
1EC30C
1CC30C
18C20C
18C20C
18C60C
10C418
33CC38
20C9F0
409060
000000
ENDCHAR

STARTCHAR A475
ENCODING 42101
SWIDTH 960 0
DWIDTH 24 0
BBX 24 24 0 -6
BITMAP
000000
0200C0
03FFE0
0300C0
0300C0
0300C0
0300C0
03FFC0
000080
0000C0
03FFE0
0300C0
0360C0
0338C0
030EC0
0306C0
0300C0
0306C0
061CC0
06F0C0
0667C0
0C01C0
100180
000000
ENDCHAR

STARTCHAR A476
ENCODING 42102
SWIDTH 960 0
DWIDTH 24 0
BBX 24 24 0 -6
BITMAP
000000
000200
108380
1FC708
18C61C
18CFFE
18C800
1CD000
1EC040
1BDFF0
19C060
18C0C0
19C080
1BC180
1EC300
1CC600
18CC00
18C804
18D804
10D804
33D80E
20CFFE
4087FC
000000
ENDCHAR

STARTCHAR A477
ENCODING 42103
SWIDTH 960 0
DWIDTH 24 0
BBX 24 24 0 -6
BITMAP
000000
000300
108380
1FC300
18C300
18C300
18C330
1CDFF8
1EC330
1BC330
19C330
18C330
19C330
1BC3B0
1EC3F0
1CC370
18C330
18C330
18C634
10C634
33CC36
20D03E
40801C
000000
ENDCHAR

STARTCHAR A478
ENCODING 42104
SWIDTH 960 0
DWIDTH 24 0
BBX 24 24 0 -6
BITMAP
000000
000020
108070
1FC078
18C0E0
18C180
18C310
1CC438
1EC03C
1BC070
19C0E0
18C180
19C300
1BC610
1EC81C
1CC038
18C070
18C0E0
18C1C0
10C300
33CC00
20D000
408000
000000
ENDCHAR

STARTCHAR A479
ENCODING 42105
SWIDTH 960 0
DWIDTH 24 0
BBX 24 24 0 -6
BITMAP
000000
030180
0381C8
03019C
7FC7FE
030180
030180
030190
000038
3FFFFC
001800
001800
001800
001C00
001E00
001F00
001B80
001980
001880
001800
001800
001800
001800
000000
ENDCHAR

STARTCHAR A47A
ENCODING 42106
SWIDTH 960 0
DWIDTH 24 0
BBX 24 24 0 -6
BITMAP
000000
030180
0381C8
03019C
7FC7FE
030180
030180
030180
001800
001C00
001800
001880
0019C0
07FFE0
001800
001800
001800
001800
001800
001800
001808
00181C
7FFFFE
000000
ENDCHAR

STARTCHAR A47B
ENCODING 42107
SWIDTH 960 0
DWIDTH 24 0
BBX 24 24 0 -6
BITMAP
000000
030180
0381C8
03019C
7FC7FE
030180
030180
030180
006000
007300
006188
00609C
7FFFFE
003000
003000
001000
001800
000808
000C10
000610
0003B0
0001F8
000070
000000
ENDCHAR

STARTCHAR A47C
ENCODING 42108
SWIDTH 960 0
DWIDTH 24 0
BBX 24 24 0 -6
BITMAP
000000
030180
0381C8
03019C
7FC7FE
030180
030180
030180
000060
07FFF0
000060
000060
040060
07FFE0
060040
060018
07FFFC
00001C
000018
000018
0003F8
0000F0
000060
000000
ENDCHAR

STARTCHAR A47D
ENCODING 42109
SWIDTH 960 0
DWIDTH 24 0
BBX 24 24 0 -6
BITMAP
000000
030180
0381C8
03019C
7FC7FE
030180
030180
030180
000060
1FFFF0
000060
000060
000060
100060
1FFFE0
180040
180008
180008
18000C
18001C
18001C
1FFFFC
0FFFF8
000000
ENDCHAR

STARTCHAR A47E
ENCODING 42110
SWIDTH 960 0
DWIDTH 24 0
BBX 24 24 0 -6
BITMAP
000000
030180
0381C8
03019C
7FC7FE
030180
030180
030180
000080
07FFC0
000380
002600
001C00
001808
00181C
7FFFFE
001800
001800
001800
001800
001800
00F800
003000
000000
ENDCHAR

STARTCHAR A4A1
ENCODING 42145
SWIDTH 960 0
DWIDTH 24 0
BBX 24 24 0 -6
BITMAP
000000
000000
000000
003C00
00C300
018180
018180
0300C0
0300C0
0300C0
0300C0
0300C0
0300C0
0300C0
0300C0
0300C0
0300C0
018180
018180
00C300
003C00
000000
000000
000000
ENDCHAR

STARTCHAR A4A2
ENCODING 42146
SWIDTH 960 0
DWIDTH 24 0
BBX 24 24 0 -6
BITMAP
000000
000000
000000
001800
007800
001800
001800
001800
001800
001800
001800
001800
001800
001800
001800
001800
001800
001800
001800
001800
00FF00
000000
000000
000000
ENDCHAR

STARTCHAR A4A3
ENCODING 42147
SWIDTH 960 0
DWIDTH 24 0
BBX 24 24 0 -6
BITMAP
000000
000000
000000
007C00
01C300
018180
030080
0300C0
0000C0
0000C0
000180
000380
000F00
001C00
007000
00C000
018040
010040
0300C0
03FFC0
03FFC0
000000
000000
000000
ENDCHAR

STARTCHAR A4A4
ENCODING 42148
SWIDTH 960 0
DWIDTH 24 0
BBX 24 24 0 -6
BITMAP
000000
000000
000000
00FE00
018380
030180
0300C0
0000C0
0000C0
0000C0
000180
007F00
000180
0000C0
0000C0
0000C0
0300C0
0300C0
030180
018380
00FE00
000000
000000
000000
ENDCHAR

STARTCHAR A4A5
ENCODING 42149
SWIDTH 960 0
DWIDTH 24 0
BBX 24 24 0 -6
BITMAP
000000
000000
000000
000C00
000C00
001C00
002C00
002C00
004C00
008C00
008C00
010C00
020C00
020C00
040C00
07FF80
000C00
000C00
000C00
000C00
003F00
000000
000000
000000
ENDCHAR

STARTCHAR A4A6
ENCODING 42150
SWIDTH 960 0
DWIDTH 24 0
BBX 24 24 0 -6
BITMAP
000000
000000
000000
03FF80
03FF00
020000
020000
020000
020000
027C00
038300
020180
000080
0000C0
0000C0
0000C0
0000C0
030080
030180
018300
007C00
000000
000000
000000
ENDCHAR

STARTCHAR A4A7
ENCODING 42151
SWIDTH 960 0
DWIDTH 24 0
BBX 24 24 0 -6
BITMAP
000000
000000
000000
003E00
00C180
018080
0100C0
0300C0
030000
030000
037E00
038180
030080
0300C0
0300C0
0300C0
0300C0
010080
018180
00C300
003C00
000000
000000
000000
ENDCHAR

STARTCHAR A4A8
ENCODING 42152
SWIDTH 960 0
DWIDTH 24 0
BBX 24 24 0 -6
BITMAP
000000
000000
000000
03FFC0
030040
020040
020080
000080
000100
000100
000200
000600
000400
000C00
000800
001800
001800
001000
003000
003000
003000
000000
000000
000000
ENDCHAR

STARTCHAR A4A9
ENCODING 42153
SWIDTH 960 0
DWIDTH 24 0
BBX 24 24 0 -6
BITMAP
000000
000000
000000
007E00
018180
010080
030040
030040
030040
018080
01F180
007E00
018F80
010180
0200C0
0200C0
0200C0
0200C0
010180
018380
007E00
000000
000000
000000
ENDCHAR

STARTCHAR A4AA
ENCODING 42154
SWIDTH 960 0
DWIDTH 24 0
BBX 24 24 0 -6
BITMAP
000000
000000
000000
003C00
00C300
018180
010080
0300C0
0300C0
0300C0
0300C0
0100C0
0181C0
007EC0
0000C0
0000C0
0000C0
018080
018180
00C300
003C00
000000
000000
000000
ENDCHAR

STARTCHAR A4AB
ENCODING 42155
SWIDTH 960 0
DWIDTH 24 0
BBX 24 24 0 -6
BITMAP
000000
000000
00FF00
00FF00
001800
001800
001800
001800
001800
001800
001800
001800
001800
001800
001800
001800
001800
001800
001800
001800
00FF00
00FF00
000000
000000
ENDCHAR

STARTCHAR A4AC
ENCODING 42156
SWIDTH 960 0
DWIDTH 24 0
BBX 24 24 0 -6
BITMAP
000000
000000
0FFFF0
0FFFF0
018180
018180
018180
018180
018180
018180
018180
018180
018180
018180
018180
018180
018180
018180
018180
018180
0FFFF0
0FFFF0
000000
000000
ENDCHAR

STARTCHAR A4AD
ENCODING 42157
SWIDTH 960 0
DWIDTH 24 0
BBX 24 24 0 -6
BITMAP
000000
000000
3FFFFC
3FFFFC
061860
061860
061860
061860
061860
061860
061860
061860
061860
061860
061860
061860
061860
061860
061860
061860
3FFFFC
3FFFFC
000000
000000
ENDCHAR

STARTCHAR A4AE
ENCODING 42158
SWIDTH 960 0
DWIDTH 24 0
BBX 24 24 0 -6
BITMAP
000000
000000
7EF01E
7EF01E
18600C
18600C
18600C
183018
183018
183018
181830
181830
181830
180C60
180C60
180C60
180C60
1806C0
1806C0
180380
7E0380
7E0100
000000
000000
ENDCHAR

STARTCHAR A4AF
ENCODING 42159
SWIDTH 960 0
DWIDTH 24 0
BBX 24 24 0 -6
BITMAP
000000
000000
1E00F0
1E00F0
0C0060
0C0060
0600C0
0600C0
0600C0
030180
030180
018300
018300
018300
00C600
00C600
006C00
006C00
006C00
003800
003800
001000
000000
000000
ENDCHAR

STARTCHAR A4B0
ENCODING 42160
SWIDTH 960 0
DWIDTH 24 0
BBX 24 24 0 -6
BITMAP
000000
000000
780F7E
780F7E
300618
300618
300618
180C18
180C18
180C18
0C1818
0C1818
0C1818
063018
063018
063018
036018
036018
036018
01C018
01C07E
00807E
000000
000000
ENDCHAR

STARTCHAR A4B1
ENCODING 42161
SWIDTH 960 0
DWIDTH 24 0
BBX 24 24 0 -6
BITMAP
000000
000000
78F7BC
78F7BC
306318
306318
306318
306318
306318
18C318
18C318
18C318
18C318
18C318
0D8318
0D8318
0D8318
0D8318
0D8318
070318
0707BC
0207BC
000000
000000
ENDCHAR

STARTCHAR A4B2
ENCODING 42162
SWIDTH 960 0
DWIDTH 24 0
BBX 24 24 0 -6
BITMAP
000000
000000
787EEE
787EEE
303444
303444
303444
303444
303444
186444
186444
186444
186444
186444
0CC444
0CC444
0CC444
0CC444
0CC444
078444
078EEE
030EEE
000000
000000
ENDCHAR

STARTCHAR A4B3
ENCODING 42163
SWIDTH 960 0
DWIDTH 24 0
BBX 24 24 0 -6
BITMAP
000000
000000
7E783C
7E783C
183018
181830
181830
180C60
180C60
1806C0
1806C0
180380
180380
1806C0
1806C0
180C60
180C60
181830
181830
183018
7E783C
7E783C
000000
000000
ENDCHAR

STARTCHAR A4B4
ENCODING 42164
SWIDTH 960 0
DWIDTH 24 0
BBX 24 24 0 -6
BITMAP
000000
000000
1F83F0
1F83F0
0600C0
030180
030180
018300
00C600
00C600
006C00
003800
003800
006C00
00C600
018300
018300
030180
0600C0
0C0060
3F01F8
3F01F8
000000
000000
ENDCHAR

STARTCHAR A4B5
ENCODING 42165
SWIDTH 960 0
DWIDTH 24 0
BBX 24 24 0 -6
BITMAP
000000
003000
003800
003000
003000
003000
003000
003000
003000
003000
003000
003000
003000
003000
003000
003000
003000
003000
003000
003000
003000
003000
000000
000000
ENDCHAR

STARTCHAR A4B6
ENCODING 42166
SWIDTH 960 0
DWIDTH 24 0
BBX 24 24 0 -6
BITMAP
000000
0000C0
0000E0
0000C0
0300C0
0380C0
0300C0
0300C0
0300C0
0300C0
0300C0
0300C0
0300C0
0300C0
0300C0
0300C0
0300C0
0300C0
0300C0
0300C0
0000C0
0000C0
000000
000000
ENDCHAR

STARTCHAR A4B7
ENCODING 42167
SWIDTH 960 0
DWIDTH 24 0
BBX 24 24 0 -6
BITMAP
000000
0000C0
0C00E0
0E00C0
0C30C0
0C38C0
0C30C0
0C30C0
0C30C0
0C30C0
0C30C0
0C30C0
0C30C0
0C30C0
0C30C0
0C30C0
0C30C0
0C30C0
0C30C0
0C30C0
0C00C0
0C00C0
0000C0
000000
ENDCHAR

STARTCHAR A4B8
ENCODING 42168
SWIDTH 960 0
DWIDTH 24 0
BBX 24 24 0 -6
BITMAP
000000
000000
000000
000000
000000
0C0060
0600C0
030180
018300
00C600
00C600
006C00
006C00
003800
003800
006C00
00C600
018300
0301C0
060070
0C003C
000018
000000
000000
ENDCHAR

STARTCHAR A4B9
ENCODING 42169
SWIDTH 960 0
DWIDTH 24 0
BBX 24 24 0 -6
BITMAP
000000
000000
000000
000006
00000C
000018
000630
000C60
0018C0
003180
003F00
000700
001CC0
007060
00C060
00C0C0
0180C0
018180
018180
00C300
00C300
006600
003C00
000000
ENDCHAR

STARTCHAR A4BA
ENCODING 42170
SWIDTH 960 0
DWIDTH 24 0
BBX 24 24 0 -6
BITMAP
000000
000000
000000
001800
001C00
001800
001810
1FFFF8
1FFFF8
000000
000000
000000
000000
000000
000000
000000
000000
000000
000000
000000
000000
000000
000000
000000
ENDCHAR

STARTCHAR A4BB
ENCODING 42171
SWIDTH 960 0
DWIDTH 24 0
BBX 24 24 0 -6
BITMAP
000000
000000
000C00
000E00
000C00
000C20
07FFF0
07FFF0
000000
000000
000000
000000
000080
01FFC0
01FFC0
000000
000000
000000
000000
000000
000000
000000
000000
000000
ENDCHAR

STARTCHAR A4BC
ENCODING 42172
SWIDTH 960 0
DWIDTH 24 0
BBX 24 24 0 -6
BITMAP
000000
000000
001800
001C00
001820
07FFF0
07FFF0
000000
000000
000000
000080
01FFC0
01FFC0
000000
000000
000000
000000
000020
07FFF0
07FFF0
000000
000000
000000
000000
ENDCHAR

STARTCHAR A4BD
ENCODING 42173
SWIDTH 960 0
DWIDTH 24 0
BBX 24 24 0 -6
BITMAP
000000
000000
060000
060000
060000
0C0000
0C0000
0FFFF0
000030
020030
030060
0180C0
00C180
006300
003600
001C00
003600
006300
00C180
0180E0
030078
0C0030
000000
000000
ENDCHAR

STARTCHAR A4BE
ENCODING 42174
SWIDTH 960 0
DWIDTH 24 0
BBX 24 24 0 -6
BITMAP
000000
001800
001C00
001800
001800
001800
001800
001800
001800
001804
7FFFFE
7FFFFE
001800
001800
001800
001800
001800
001800
001800
001800
001800
001800
001800
000000
ENDCHAR

STARTCHAR A4BF
ENCODING 42175
SWIDTH 960 0
DWIDTH 24 0
BBX 24 24 0 -6
BITMAP
000000
000000
018180
01C1C0
018180
018180
018180
018180
018180
018188
3FFFFC
3FFFFC
018180
018180
018180
018180
018180
018180
018180
018180
018180
018180
018180
000000
ENDCHAR

STARTCHAR A4C0
ENCODING 42176
SWIDTH 960 0
DWIDTH 24 0
BBX 24 24 0 -6
BITMAP
000000
061860
071C70
061860
061860
061860
061860
061860
061864
7FFFFE
7FFFFE
061860
061860
061860
061860
061860
061860
061860
061860
061860
061860
061860
000060
000000
ENDCHAR

STARTCHAR A4C1
ENCODING 42177
SWIDTH 960 0
DWIDTH 24 0
BBX 24 24 0 -6
BITMAP
000000
000000
000000
001800
001800
002C00
002C00
004600
004600
008300
008300
010180
010180
0200C0
03FFC0
040060
040060
040060
080030
080030
3E00FC
000000
000000
000000
ENDCHAR

STARTCHAR A4C2
ENCODING 42178
SWIDTH 960 0
DWIDTH 24 0
BBX 24 24 0 -6
BITMAP
000000
000000
000000
0FFF80
0300E0
030060
030030
030030
030030
030020
030060
03FFC0
030060
030020
030030
030030
030030
030030
030060
0300E0
0FFF80
000000
000000
000000
ENDCHAR

STARTCHAR A4C3
ENCODING 42179
SWIDTH 960 0
DWIDTH 24 0
BBX 24 24 0 -6
BITMAP
000000
000000
000000
007F10
01C0D0
030070
060030
060030
0C0000
0C0000
0C0000
0C0000
0C0000
0C0000
0C0000
0C0030
060030
060020
030060
01C1C0
007F00
000000
000000
000000
ENDCHAR

STARTCHAR A4C4
ENCODING 42180
SWIDTH 960 0
DWIDTH 24 0
BBX 24 24 0 -6
BITMAP
000000
000000
000000
0FFF00
0301C0
030060
030030
030030
030018
030018
030018
030018
030018
030018
030018
030018
030030
030030
030060
0301C0
0FFF00
000000
000000
000000
ENDCHAR

STARTCHAR A4C5
ENCODING 42181
SWIDTH 960 0
DWIDTH 24 0
BBX 24 24 0 -6
BITMAP
000000
000000
000000
0FFFC0
0300C0
030040
030040
030000
030000
030100
030100
03FF00
030100
030100
030000
030000
030040
030040
030040
0300C0
0FFFC0
000000
000000
000000
ENDCHAR

STARTCHAR A4C6
ENCODING 42182
SWIDTH 960 0
DWIDTH 24 0
BBX 24 24 0 -6
BITMAP
000000
000000
000000
0FFFE0
030060
030020
030020
030000
030000
030080
030080
03FF80
030080
030080
030000
030000
030000
030000
030000
030000
0FE000
000000
000000
000000
ENDCHAR

STARTCHAR A4C7
ENCODING 42183
SWIDTH 960 0
DWIDTH 24 0
BBX 24 24 0 -6
BITMAP
000000
000000
000000
00FE20
0383A0
0600E0
0C0060
0C0020
180000
180000
180000
180000
1803F8
180060
180060
180060
0C0060
0C0060
060060
0381E0
00FF00
000000
000000
000000
ENDCHAR

STARTCHAR A4C8
ENCODING 42184
SWIDTH 960 0
DWIDTH 24 0
BBX 24 24 0 -6
BITMAP
000000
000000
000000
1F81F8
060060
060060
060060
060060
060060
060060
060060
07FFE0
060060
060060
060060
060060
060060
060060
060060
060060
1F81F8
000000
000000
000000
ENDCHAR

STARTCHAR A4C9
ENCODING 42185
SWIDTH 960 0
DWIDTH 24 0
BBX 24 24 0 -6
BITMAP
000000
000000
000000
007E00
001800
001800
001800
001800
001800
001800
001800
001800
001800
001800
001800
001800
001800
001800
001800
001800
007E00
000000
000000
000000
ENDCHAR

STARTCHAR A4CA
ENCODING 42186
SWIDTH 960 0
DWIDTH 24 0
BBX 24 24 0 -6
BITMAP
000000
000000
000000
003F80
000600
000600
000600
000600
000600
000600
000600
000600
000600
000600
000600
000600
000600
070600
070600
060400
030C00
00F000
000000
000000
ENDCHAR

STARTCHAR A4CB
ENCODING 42187
SWIDTH 960 0
DWIDTH 24 0
BBX 24 24 0 -6
BITMAP
000000
000000
000000
1F8FF0
060180
060300
060600
060C00
061800
063000
066000
06E000
07F000
073800
061C00
060E00
060700
060380
0601C0
0600E0
1F87F8
000000
000000
000000
ENDCHAR

STARTCHAR A4CC
ENCODING 42188
SWIDTH 960 0
DWIDTH 24 0
BBX 24 24 0 -6
BITMAP
000000
000000
000000
0FE000
030000
030000
030000
030000
030000
030000
030000
030000
030000
030000
030000
030000
030010
030010
030010
030030
0FFFF0
000000
000000
000000
ENDCHAR

STARTCHAR A4CD
ENCODING 42189
SWIDTH 960 0
DWIDTH 24 0
BBX 24 24 0 -6
BITMAP
000000
000000
000000
3E007C
0E0070
0F00B0
0B00B0
0B00B0
098130
098130
098130
08C230
08C230
08C230
086430
086430
086430
083830
083830
081030
3E10FC
000000
000000
000000
ENDCHAR

STARTCHAR A4CE
ENCODING 42190
SWIDTH 960 0
DWIDTH 24 0
BBX 24 24 0 -6
BITMAP
000000
000000
000000
0F00F8
038020
038020
03C020
02E020
026020
023020
023820
021820
020C20
020E20
020620
020320
0203A0
0201A0
0200E0
0200E0
0F8060
000000
000000
000000
ENDCHAR

STARTCHAR A4CF
ENCODING 42191
SWIDTH 960 0
DWIDTH 24 0
BBX 24 24 0 -6
BITMAP
000000
000000
000000
00FE00
038380
0600C0
0C0060
0C0060
180070
180030
180030
180030
180030
180030
180030
180030
0C0060
0C0060
0600C0
038380
00FE00
000000
000000
000000
ENDCHAR

STARTCHAR A4D0
ENCODING 42192
SWIDTH 960 0
DWIDTH 24 0
BBX 24 24 0 -6
BITMAP
000000
000000
000000
07FF00
0181C0
018060
018020
018030
018030
018030
018020
018060
0181C0
01FF00
018000
018000
018000
018000
018000
018000
07E000
000000
000000
000000
ENDCHAR

STARTCHAR A4D1
ENCODING 42193
SWIDTH 960 0
DWIDTH 24 0
BBX 24 24 0 -6
BITMAP
000000
000000
000000
00FC00
038700
060180
0C00C0
0C00C0
180060
180060
180060
180060
180060
180060
187860
0C8CC0
0D06C0
070780
038700
00FF00
000308
000390
0001E0
000000
ENDCHAR

STARTCHAR A4D2
ENCODING 42194
SWIDTH 960 0
DWIDTH 24 0
BBX 24 24 0 -6
BITMAP
000000
000000
000000
1FFE00
060380
060180
0600C0
0600C0
0600C0
0600C0
060180
060300
07FC00
060600
060300
060300
060180
060180
060180
0600C0
1F80F0
000000
000000
000000
ENDCHAR

STARTCHAR A4D3
ENCODING 42195
SWIDTH 960 0
DWIDTH 24 0
BBX 24 24 0 -6
BITMAP
000000
000000
000000
00FE40
0303C0
0200C0
060060
060020
060020
030000
03F800
00FF00
000FC0
0000C0
000060
040060
040060
060060
030040
03C0C0
027F00
000000
000000
000000
ENDCHAR

STARTCHAR A4D4
ENCODING 42196
SWIDTH 960 0
DWIDTH 24 0
BBX 24 24 0 -6
BITMAP
000000
000000
000000
0FFFF0
0C1830
081810
081810
081810
001800
001800
001800
001800
001800
001800
001800
001800
001800
001800
001800
001800
00FF00
000000
000000
000000
ENDCHAR

STARTCHAR A4D5
ENCODING 42197
SWIDTH 960 0
DWIDTH 24 0
BBX 24 24 0 -6
BITMAP
000000
000000
000000
1F81F8
060060
060060
060060
060060
060060
060060
060060
060060
060060
060060
060060
060060
060060
0300C0
0300C0
018180
007E00
000000
000000
000000
ENDCHAR

STARTCHAR A4D6
ENCODING 42198
SWIDTH 960 0
DWIDTH 24 0
BBX 24 24 0 -6
BITMAP
000000
000000
000000
1F80F8
060020
060020
030040
030040
030040
018080
018080
00C100
00C100
00C100
006200
006200
003400
003400
003C00
001800
001800
000000
000000
000000
ENDCHAR

STARTCHAR A4D7
ENCODING 42199
SWIDTH 960 0
DWIDTH 24 0
BBX 24 24 0 -6
BITMAP
000000
000000
000000
7E7F3E
181C08
181C08
181C08
0C2610
0C2610
0C2610
0C2610
064320
064320
064320
064320
0381C0
0381C0
0381C0
0381C0
010080
010080
000000
000000
000000
ENDCHAR

STARTCHAR A4D8
ENCODING 42200
SWIDTH 960 0
DWIDTH 24 0
BBX 24 24 0 -6
BITMAP
000000
000000
000000
1F83E0
060080
030100
030200
018200
00C400
00C800
007800
003000
003800
004C00
004C00
008600
010300
010300
020180
0400C0
1F07F0
000000
000000
000000
ENDCHAR

STARTCHAR A4D9
ENCODING 42201
SWIDTH 960 0
DWIDTH 24 0
BBX 24 24 0 -6
BITMAP
000000
000000
000000
1F80F8
060020
060020
030040
018080
018080
00C100
006200
006200
003400
001800
001800
001800
001800
001800
001800
001800
007E00
000000
000000
000000
ENDCHAR

STARTCHAR A4DA
ENCODING 42202
SWIDTH 960 0
DWIDTH 24 0
BBX 24 24 0 -6
BITMAP
000000
000000
000000
07FFC0
0601C0
040180
040380
000700
000600
000E00
001C00
001800
003800
007000
006000
00E000
01C000
018040
038040
0700C0
07FFC0
000000
000000
000000
ENDCHAR

STARTCHAR A4DB
ENCODING 42203
SWIDTH 960 0
DWIDTH 24 0
BBX 24 24 0 -6
BITMAP
000000
000000
000000
000000
000000
000000
000000
000000
00FC00
018600
030300
030300
000300
007F00
018300
030300
030300
030300
030320
018720
00F9C0
000000
000000
000000
ENDCHAR

STARTCHAR A4DC
ENCODING 42204
SWIDTH 960 0
DWIDTH 24 0
BBX 24 24 0 -6
BITMAP
000000
000000
000000
00C000
03C000
00C000
00C000
00C000
00DE00
00E380
00C180
00C0C0
00C0C0
00C0C0
00C0C0
00C0C0
00C0C0
00C0C0
00C180
00E380
009E00
000000
000000
000000
ENDCHAR

STARTCHAR A4DD
ENCODING 42205
SWIDTH 960 0
DWIDTH 24 0
BBX 24 24 0 -6
BITMAP
000000
000000
000000
000000
000000
000000
000000
000000
007C00
018600
030300
020300
060000
060000
060000
060000
060000
020300
030300
018600
007C00
000000
000000
000000
ENDCHAR

STARTCHAR A4DE
ENCODING 42206
SWIDTH 960 0
DWIDTH 24 0
BBX 24 24 0 -6
BITMAP
000000
000000
000000
000180
000780
000180
000180
000180
003D80
00C380
018180
010180
030180
030180
030180
030180
030180
010180
018180
00C380
003CC0
000000
000000
000000
ENDCHAR

STARTCHAR A4DF
ENCODING 42207
SWIDTH 960 0
DWIDTH 24 0
BBX 24 24 0 -6
BITMAP
000000
000000
000000
000000
000000
000000
000000
000000
003800
00C600
018300
010100
030180
030180
03FF80
030000
030000
010180
018100
00C200
003C00
000000
000000
000000
ENDCHAR

STARTCHAR A4E0
ENCODING 42208
SWIDTH 960 0
DWIDTH 24 0
BBX 24 24 0 -6
BITMAP
000000
000000
000000
003C00
004600
004600
00C000
00C000
00C000
03F800
00C000
00C000
00C000
00C000
00C000
00C000
00C000
00C000
00C000
00C000
03F000
000000
000000
000000
ENDCHAR

STARTCHAR A4E1
ENCODING 42209
SWIDTH 960 0
DWIDTH 24 0
BBX 24 24 0 -6
BITMAP
000000
000000
000000
000000
000000
000000
000000
0000C0
00FDC0
018600
030300
030300
018600
01FC00
030000
030000
01FC00
03FF00
060380
060180
060180
030300
00FE00
000000
ENDCHAR

STARTCHAR A4E2
ENCODING 42210
SWIDTH 960 0
DWIDTH 24 0
BBX 24 24 0 -6
BITMAP
000000
000000
000000
018000
078000
018000
018000
018000
01BE00
01C300
018180
018180
018180
018180
018180
018180
018180
018180
018180
018180
07E7E0
000000
000000
000000
ENDCHAR

STARTCHAR A4E3
ENCODING 42211
SWIDTH 960 0
DWIDTH 24 0
BBX 24 24 0 -6
BITMAP
000000
000000
000000
001800
001800
000000
000000
000000
007800
001800
001800
001800
001800
001800
001800
001800
001800
001800
001800
001800
007E00
000000
000000
000000
ENDCHAR

STARTCHAR A4E4
ENCODING 42212
SWIDTH 960 0
DWIDTH 24 0
BBX 24 24 0 -6
BITMAP
000000
000000
000000
000C00
000C00
000000
000000
000000
000C00
007C00
000C00
000C00
000C00
000C00
000C00
000C00
000C00
000C00
000C00
000C00
018C00
018800
00F000
000000
ENDCHAR

STARTCHAR A4E5
ENCODING 42213
SWIDTH 960 0
DWIDTH 24 0
BBX 24 24 0 -6
BITMAP
000000
000000
000000
030000
0F0000
030000
030000
030000
030FC0
030200
030400
030800
031000
032000
037000
039800
030C00
030600
030300
030180
0FC7E0
000000
000000
000000
ENDCHAR

STARTCHAR A4E6
ENCODING 42214
SWIDTH 960 0
DWIDTH 24 0
BBX 24 24 0 -6
BITMAP
000000
000000
000000
007800
001800
001800
001800
001800
001800
001800
001800
001800
001800
001800
001800
001800
001800
001800
001800
001800
007E00
000000
000000
000000
ENDCHAR

STARTCHAR A4E7
ENCODING 42215
SWIDTH 960 0
DWIDTH 24 0
BBX 24 24 0 -6
BITMAP
000000
000000
000000
000000
000000
000000
000000
000000
39F1E0
1A3A30
1C1C18
181818
181818
181818
181818
181818
181818
181818
181818
181818
3C3C3C
000000
000000
000000
ENDCHAR

STARTCHAR A4E8
ENCODING 42216
SWIDTH 960 0
DWIDTH 24 0
BBX 24 24 0 -6
BITMAP
000000
000000
000000
000000
000000
000000
000000
000000
03BF00
01C180
0180C0
0180C0
0180C0
0180C0
0180C0
0180C0
0180C0
0180C0
0180C0
0180C0
03C1E0
000000
000000
000000
ENDCHAR

STARTCHAR A4E9
ENCODING 42217
SWIDTH 960 0
DWIDTH 24 0
BBX 24 24 0 -6
BITMAP
000000
000000
000000
000000
000000
000000
000000
000000
003C00
00C300
018180
010080
0300C0
0300C0
0300C0
0300C0
0300C0
010080
018180
00C300
003C00
000000
000000
000000
ENDCHAR

STARTCHAR A4EA
ENCODING 42218
SWIDTH 960 0
DWIDTH 24 0
BBX 24 24 0 -6
BITMAP
000000
000000
000000
000000
000000
000000
000000
000000
01BC00
03C300
018180
018080
0180C0
0180C0
0180C0
0180C0
018080
018180
01C300
01BC00
018000
018000
03C000
000000
ENDCHAR

STARTCHAR A4EB
ENCODING 42219
SWIDTH 960 0
DWIDTH 24 0
BBX 24 24 0 -6
BITMAP
000000
000000
000000
000000
000000
000000
000000
000000
003C80
00C380
018180
010180
030180
030180
030180
030180
010180
018180
00C380
003D80
000180
000180
0003C0
000000
ENDCHAR

STARTCHAR A4EC
ENCODING 42220
SWIDTH 960 0
DWIDTH 24 0
BBX 24 24 0 -6
BITMAP
000000
000000
000000
000000
000000
000000
000000
000000
00C300
01CF00
00D000
00E000
00E000
00C000
00C000
00C000
00C000
00C000
00C000
00C000
01F000
000000
000000
000000
ENDCHAR

STARTCHAR A4ED
ENCODING 42221
SWIDTH 960 0
DWIDTH 24 0
BBX 24 24 0 -6
BITMAP
000000
000000
000000
000000
000000
000000
000000
000000
007D00
00C300
018180
018080
018000
00E000
003E00
000300
010180
010180
018180
01C300
013E00
000000
000000
000000
ENDCHAR

STARTCHAR A4EE
ENCODING 42222
SWIDTH 960 0
DWIDTH 24 0
BBX 24 24 0 -6
BITMAP
000000
000000
000000
000000
002000
002000
002000
006000
01FE00
006000
006000
006000
006000
006000
006000
006000
006000
006000
006100
003300
001E00
000000
000000
000000
ENDCHAR

STARTCHAR A4EF
ENCODING 42223
SWIDTH 960 0
DWIDTH 24 0
BBX 24 24 0 -6
BITMAP
000000
000000
000000
000000
000000
000000
000000
000000
030180
0F0780
030180
030180
030180
030180
030180
030180
030180
030180
030180
018380
00FCE0
000000
000000
000000
ENDCHAR

STARTCHAR A4F0
ENCODING 42224
SWIDTH 960 0
DWIDTH 24 0
BBX 24 24 0 -6
BITMAP
000000
000000
000000
000000
000000
000000
000000
000000
0FC3E0
030080
030080
018100
018100
00C200
00C200
006400
006400
003800
003800
001000
001000
000000
000000
000000
ENDCHAR

STARTCHAR A4F1
ENCODING 42225
SWIDTH 960 0
DWIDTH 24 0
BBX 24 24 0 -6
BITMAP
000000
000000
000000
000000
000000
000000
000000
000000
3F7EF8
0C1820
0C1820
0C1820
062C40
062C40
062C40
034680
034680
034680
018300
018300
018300
000000
000000
000000
ENDCHAR

STARTCHAR A4F2
ENCODING 42226
SWIDTH 960 0
DWIDTH 24 0
BBX 24 24 0 -6
BITMAP
000000
000000
000000
000000
000000
000000
000000
000000
07E3E0
018080
01C180
00E300
007600
003C00
001800
003C00
006E00
00C700
018380
010180
0787E0
000000
000000
000000
ENDCHAR

STARTCHAR A4F3
ENCODING 42227
SWIDTH 960 0
DWIDTH 24 0
BBX 24 24 0 -6
BITMAP
000000
000000
000000
000000
000000
000000
000000
000000
07E3E0
018080
00C080
00C100
00C100
006100
006200
006200
003400
003400
003800
001800
063000
066000
03C000
000000
ENDCHAR

STARTCHAR A4F4
ENCODING 42228
SWIDTH 960 0
DWIDTH 24 0
BBX 24 24 0 -6
BITMAP
000000
000000
000000
000000
000000
000000
000000
000000
01FF80
018180
010300
010600
010400
000C00
001800
003000
002000
006080
00C080
018180
01FF80
000000
000000
000000
ENDCHAR

STARTCHAR A4F5
ENCODING 42229
SWIDTH 960 0
DWIDTH 24 0
BBX 24 24 0 -6
BITMAP
000000
001800
001C00
003600
002600
006300
004300
00C300
008180
008180
018180
010180
0100C0
03FFC0
0200C0
020060
060060
040060
0C0030
080030
180018
100018
7C007E
000000
ENDCHAR

STARTCHAR A4F6
ENCODING 42230
SWIDTH 960 0
DWIDTH 24 0
BBX 24 24 0 -6
BITMAP
000000
0FFF80
0300C0
030060
030030
030030
030030
030060
0300C0
0300C0
030180
03FE00
030180
030060
030030
030018
030018
030018
030030
030030
030060
0300C0
0FFF80
000000
ENDCHAR

STARTCHAR A4F7
ENCODING 42231
SWIDTH 960 0
DWIDTH 24 0
BBX 24 24 0 -6
BITMAP
000000
000000
3FFFF8
0C0038
0C0018
0C0018
0C0008
0C0008
0C0000
0C0000
0C0000
0C0000
0C0000
0C0000
0C0000
0C0000
0C0000
0C0000
0C0000
0C0000
0C0000
0C0000
3F0000
000000
ENDCHAR

STARTCHAR A4F8
ENCODING 42232
SWIDTH 960 0
DWIDTH 24 0
BBX 24 24 0 -6
BITMAP
000000
001000
003800
002C00
006C00
004600
004600
00C300
008300
018300
010180
030180
0200C0
0200C0
0600C0
040060
040060
0C0030
080030
180018
100018
3FFFFC
7FFFFE
000000
ENDCHAR

STARTCHAR A4F9
ENCODING 42233
SWIDTH 960 0
DWIDTH 24 0
BBX 24 24 0 -6
BITMAP
000000
000000
3FFFFC
0C001C
0C000C
0C0004
0C0000
0C0000
0C0300
0C0300
0C0300
0FFF00
0C0300
0C0300
0C0300
0C0000
0C0000
0C0004
0C000C
0C001C
0C003C
3FFFFC
000000
000000
ENDCHAR

STARTCHAR A4FA
ENCODING 42234
SWIDTH 960 0
DWIDTH 24 0
BBX 24 24 0 -6
BITMAP
000000
000000
03FFE0
070030
0E0030
0C0060
1800C0
100180
000300
000600
000C00
001800
003000
006000
00C000
018000
030000
060008
0C0018
180038
300078
3FFFFC
000000
000000
ENDCHAR

STARTCHAR A4FB
ENCODING 42235
SWIDTH 960 0
DWIDTH 24 0
BBX 24 24 0 -6
BITMAP
000000
1F81F8
060060
060060
060060
060060
060060
060060
060060
060060
060060
07FFE0
060060
060060
060060
060060
060060
060060
060060
060060
060060
060060
1F81F8
000000
ENDCHAR

STARTCHAR A4FC
ENCODING 42236
SWIDTH 960 0
DWIDTH 24 0
BBX 24 24 0 -6
BITMAP
000000
003C00
00C300
018180
060060
060060
0C0030
0C0030
190098
190098
190098
19FF98
19FF98
190098
190098
190098
0C0030
0C0030
060060
060060
0300C0
00C300
003C00
000000
ENDCHAR

STARTCHAR A4FD
ENCODING 42237
SWIDTH 960 0
DWIDTH 24 0
BBX 24 24 0 -6
BITMAP
000000
000000
007E00
001800
001800
001800
001800
001800
001800
001800
001800
001800
001800
001800
001800
001800
001800
001800
001800
001800
001800
007E00
000000
000000
ENDCHAR

STARTCHAR A4FE
ENCODING 42238
SWIDTH 960 0
DWIDTH 24 0
BBX 24 24 0 -6
BITMAP
000000
3C03E0
1800C0
180180
180300
180600
180C00
181800
183000
186000
18C000
19B000
1B1800
1E0C00
180600
180300
180300
180180
180180
1800C0
180060
180030
3C0078
000000
ENDCHAR

STARTCHAR A521
ENCODING 42273
SWIDTH 960 0
DWIDTH 24 0
BBX 24 24 0 -6
BITMAP
000000
030180
0381C8
03019C
7FC7FE
030180
030180
030180
000060
0007F8
007F80
3FF000
001800
001C08
00181C
7FFFFE
001800
001800
001800
001800
001800
001800
001800
000000
ENDCHAR

STARTCHAR A522
ENCODING 42274
SWIDTH 960 0
DWIDTH 24 0
BBX 24 24 0 -6
BITMAP
000000
030180
0381C8
03019C
7FC7FE
030180
030180
030180
000000
020180
03FFC0
030180
034180
032180
033180
031980
061980
060184
040184
0C0184
08018E
1001FE
2000FC
000000
ENDCHAR

STARTCHAR A523
ENCODING 42275
SWIDTH 960 0
DWIDTH 24 0
BBX 24 24 0 -6
BITMAP
000000
030180
0381C8
03019C
7FC7FE
030180
030180
033180
003800
003180
1FFFC0
003180
006180
006180
00E180
00E180
00F180
01B984
031984
060184
18018E
2001FE
0000FC
000000
ENDCHAR

STARTCHAR A524
ENCODING 42276
SWIDTH 960 0
DWIDTH 24 0
BBX 24 24 0 -6
BITMAP
000000
001E00
007F00
03E000
0E9840
38C860
006FE0
001C00
003800
00CC00
030E00
0C1F00
703180
0030C0
00C1E0
018360
060670
180C70
003070
00C060
0707C0
0001C0
000080
000000
ENDCHAR

STARTCHAR A525
ENCODING 42277
SWIDTH 960 0
DWIDTH 24 0
BBX 24 24 0 -6
BITMAP
000000
30200C
183FFE
18300C
00300C
18300C
7C300C
0C3FFC
0C3008
183000
303000
643000
7E3000
0E3000
0C3000
0C3000
183000
186000
188000
3F0002
37800E
41FFFC
00FFF8
000000
ENDCHAR

STARTCHAR A526
ENCODING 42278
SWIDTH 960 0
DWIDTH 24 0
BBX 24 24 0 -6
BITMAP
000000
300300
180380
180300
000300
180300
7C630C
0C730E
0C630C
18630C
30630C
64630C
7E630C
0E630C
0C630C
0C630C
187FFC
182008
180000
3E0002
37800E
41FFFC
00FFF8
000000
ENDCHAR

STARTCHAR A527
ENCODING 42279
SWIDTH 960 0
DWIDTH 24 0
BBX 24 24 0 -6
BITMAP
000000
0C0000
060208
0303FE
03331C
7FFB18
000310
08C330
0FE320
0CC360
0CC330
0CC318
0CC31C
0CC30E
0CC306
18C306
18C30E
18C31C
18C3FC
30CF38
20FB10
40F300
006300
000000
ENDCHAR

STARTCHAR A528
ENCODING 42280
SWIDTH 960 0
DWIDTH 24 0
BBX 24 24 0 -6
BITMAP
000000
000000
180208
0C03FE
06031C
063318
7FFB10
030330
060320
063360
07FB30
063318
06331C
0C330E
0C3306
0C3306
18330E
18331C
1063FC
106338
23C310
41C300
008300
000000
ENDCHAR

STARTCHAR A529
ENCODING 42281
SWIDTH 960 0
DWIDTH 24 0
BBX 24 24 0 -6
BITMAP
000000
020000
038208
0303FE
03031C
130318
132310
1FF330
333B20
736360
630330
030318
07031C
06C30E
06C306
06C306
06C30E
0CC31C
0CC3FC
18CF38
10FB10
20F300
406300
000000
ENDCHAR

STARTCHAR A52A
ENCODING 42282
SWIDTH 960 0
DWIDTH 24 0
BBX 24 24 0 -6
BITMAP
000000
030000
038208
0303FE
03031C
030318
036310
3FF330
030320
030360
032330
037318
7FFB1C
03030E
030306
078306
05830E
0DC31C
08C3FC
186338
303310
601B00
400F00
000000
ENDCHAR

STARTCHAR A52B
ENCODING 42283
SWIDTH 960 0
DWIDTH 24 0
BBX 24 24 0 -6
BITMAP
000000
000000
00C208
3FE3FE
00031C
000318
000310
003330
7FFB20
0D8360
0D8330
0D8318
0D831C
0D830E
0D8306
0D8306
19830E
19831C
1983FC
319B38
31F310
21E300
40C300
000000
ENDCHAR

STARTCHAR A52C
ENCODING 42284
SWIDTH 960 0
DWIDTH 24 0
BBX 24 24 0 -6
BITMAP
000000
000000
008208
01C3FE
0CC31C
0E6318
1C3310
181B30
300F20
200760
401330
0FFB18
03331C
03330E
033306
063306
06630E
04631C
0C63FC
086338
11E310
60C300
008300
000000
ENDCHAR

STARTCHAR A52D
ENCODING 42285
SWIDTH 960 0
DWIDTH 24 0
BBX 24 24 0 -6
BITMAP
000000
413180
7FB9C0
63B180
633180
663180
643180
683180
643180
623388
633FFC
61B180
61B180
61B180
63B180
6F3180
663180
603180
603184
603184
603F86
603DFE
6018FC
000000
ENDCHAR

STARTCHAR A52E
ENCODING 42286
SWIDTH 960 0
DWIDTH 24 0
BBX 24 24 0 -6
BITMAP
000000
41200C
7FBFFE
63B000
633000
663000
643418
6837FC
643618
623618
633618
61B618
61B618
61B678
63B638
6F6610
666600
606600
604604
60C604
60870E
6083FE
6101F8
000000
ENDCHAR

STARTCHAR A52F
ENCODING 42287
SWIDTH 960 0
DWIDTH 24 0
BBX 24 24 0 -6
BITMAP
000000
410180
7F81C0
638180
630180
660180
640180
680180
643180
623188
6331FC
61B180
61B180
61B180
63B180
6F3180
663180
603180
603180
603180
60318C
61FFFE
600000
000000
ENDCHAR

STARTCHAR A530
ENCODING 42288
SWIDTH 960 0
DWIDTH 24 0
BBX 24 24 0 -6
BITMAP
000000
410600
7F8700
638600
630C00
661800
643010
68600C
64FFFE
627CC6
630CC0
618CC0
618CC0
618CC0
638CC0
6F0CC0
660CC0
6018C0
6018C4
6018C4
6030CE
6060FE
61807C
000000
ENDCHAR

STARTCHAR A531
ENCODING 42289
SWIDTH 960 0
DWIDTH 24 0
BBX 24 24 0 -6
BITMAP
000000
006300
007380
086318
0FFFFC
0C6318
0C6318
0C6318
0FFFF8
046310
006300
10630C
1FFFFE
18630C
18630C
18630C
1FFFFC
08C308
00C300
018300
030300
0E0300
700300
000000
ENDCHAR

STARTCHAR A532
ENCODING 42290
SWIDTH 960 0
DWIDTH 24 0
BBX 24 24 0 -6
BITMAP
000000
060C00
070700
062308
063FFC
0C600E
0CE018
1CC0C0
1C01E0
3C0780
2C3E00
4C0600
0C0600
0C0630
0CFFF8
0C0600
0C0600
0C0600
0C0604
0C0604
0C060C
0C07FE
0C03FC
000000
ENDCHAR

STARTCHAR A533
ENCODING 42291
SWIDTH 960 0
DWIDTH 24 0
BBX 24 24 0 -6
BITMAP
000000
060800
070600
060308
06031C
0DFFFE
0C0000
1C1840
1C1C30
3C3818
2C306C
4C707E
0CD066
0D1060
0C1860
0C0CC0
0C0CC0
0C0780
0C0380
0C07C0
0C0CF0
0C307E
0DC03C
000000
ENDCHAR

STARTCHAR A534
ENCODING 42292
SWIDTH 960 0
DWIDTH 24 0
BBX 24 24 0 -6
BITMAP
000000
060800
070600
060308
06031C
0DFFFE
0C0300
1C0600
1C0C30
3C1838
2C3060
4C60C0
0CFF98
0C431C
0C0630
0C0C60
0C18C0
0C6180
0D83C0
0C0660
0C0C38
0C301C
0DC00C
000000
ENDCHAR

STARTCHAR A535
ENCODING 42293
SWIDTH 960 0
DWIDTH 24 0
BBX 24 24 0 -6
BITMAP
000000
060300
070380
060300
060300
0C2608
0DF7FC
1C06CE
1C0CCC
3C10D0
2C00C0
4C00C0
0C20C0
0DF0C0
0C00C0
0C01E0
0C01E0
0C0320
0C0330
0C0630
0C0638
0C0C1E
0C300C
000000
ENDCHAR

STARTCHAR A536
ENCODING 42294
SWIDTH 960 0
DWIDTH 24 0
BBX 24 24 0 -6
BITMAP
000000
06060C
07FF0E
066C0C
066CCC
0C6CEC
0C6CCC
1C6CCC
1C6CCC
3C6CCC
2FFFCC
4C6CCC
0C6CCC
0C6CCC
0C6CCC
0C6CCC
0C6CCC
0C6CCC
0C4C0C
0CCC0C
0C8C7C
0D0C1C
0C0C18
000000
ENDCHAR

STARTCHAR A537
ENCODING 42295
SWIDTH 960 0
DWIDTH 24 0
BBX 24 24 0 -6
BITMAP
000000
060300
070380
060300
06030C
0CFFFE
0C0300
1C030C
1CFFFE
3C030C
2C830C
4CFFFC
0CC308
0CC304
0CFFFE
0C430C
0C030C
0C07BC
0C06D8
0C0C60
0C1830
0C301E
0CC00C
000000
ENDCHAR

STARTCHAR A538
ENCODING 42296
SWIDTH 960 0
DWIDTH 24 0
BBX 24 24 0 -6
BITMAP
000000
060300
070380
060308
06031C
0DFFFE
0C0300
1C0300
1C0300
3C0318
2CFFFC
4C0000
0C0000
0C2030
0C3FF8
0C3030
0C3030
0C3030
0C3030
0C3030
0C3030
0C3FF0
0C1020
000000
ENDCHAR

STARTCHAR A539
ENCODING 42297
SWIDTH 960 0
DWIDTH 24 0
BBX 24 24 0 -6
BITMAP
000000
060018
07FFFC
063060
063060
0C3060
0C3060
1C3FE0
1C3060
3C3060
2C3060
4C3060
0C3FE0
0C3060
0C3060
0C3060
0C306C
0DFFFE
0C0060
0C0060
0C0060
0C0060
0C0060
000000
ENDCHAR

STARTCHAR A53A
ENCODING 42298
SWIDTH 960 0
DWIDTH 24 0
BBX 24 24 0 -6
BITMAP
000000
060600
070710
060638
06FFFC
0C0C80
0C1840
1C3060
1C61B8
3CDFDE
2D000C
4C0030
0CFFF8
0C0600
0C0600
0C0C30
0C0FF8
0C0430
0C0030
0C0030
0C0070
0C03E0
0C00C0
000000
ENDCHAR

STARTCHAR A53B
ENCODING 42299
SWIDTH 960 0
DWIDTH 24 0
BBX 24 24 0 -6
BITMAP
000000
060008
07001C
06FFFE
060300
0C0600
0C0C00
1C1820
1C3018
3C600C
2CFFFC
4C730C
0C0300
0C0300
0C0318
0CFFFC
0C0300
0C0300
0C0300
0C0308
0C031C
0DFFFE
0C0000
000000
ENDCHAR

STARTCHAR A53C
ENCODING 42300
SWIDTH 960 0
DWIDTH 24 0
BBX 24 24 0 -6
BITMAP
000000
064030
077FF8
066030
066030
0C6030
0C7FF0
1C6030
1C6030
3C6030
2C7FF0
4C6220
0C6208
0C631C
0C6330
0C61E0
0C6180
0C60C0
0C60E0
0C6070
0C7F38
0C7C1E
0C300C
000000
ENDCHAR

STARTCHAR A53D
ENCODING 42301
SWIDTH 960 0
DWIDTH 24 0
BBX 24 24 0 -6
BITMAP
000000
060CC0
070EE0
060CC0
060CC0
0C0CC0
0CCCC0
1CECC0
1CCCC0
3CCCCC
2CCFFE
4CCCC0
0CCCC0
0CCCC0
0CCCC0
0CCCC0
0CCCC0
0CCCC0
0CCFC4
0CDEC4
0FF8CC
0FE0FE
0D807C
000000
ENDCHAR

STARTCHAR A53E
ENCODING 42302
SWIDTH 960 0
DWIDTH 24 0
BBX 24 24 0 -6
BITMAP
000000
06800C
07FFFE
06C00C
06C00C
0CC00C
0CC0CC
1CDFEC
1CC00C
3CC00C
2CC8CC
4CCFEC
0CCCCC
0CCCCC
0CCCCC
0CCCCC
0CCFCC
0CC48C
0CC00C
0CC00C
0CC07C
0CC01C
0CC018
000000
ENDCHAR

STARTCHAR A53F
ENCODING 42303
SWIDTH 960 0
DWIDTH 24 0
BBX 24 24 0 -6
BITMAP
000000
030000
03800C
07FFFE
06C00C
0CC00C
0CC00C
1CC8CC
1CCFEC
3CCCCC
2CCCCC
4CCCCC
0CCCCC
0CCCCC
0CCCCC
0CCCCC
0CCFCC
0CC48C
0CC00C
0CC00C
0CC00C
0CFFFC
0C4008
000000
ENDCHAR

STARTCHAR A540
ENCODING 42304
SWIDTH 960 0
DWIDTH 24 0
BBX 24 24 0 -6
BITMAP
000000
061800
071C00
061800
063800
0C300C
0C7FFE
1C600C
1CC00C
3D218C
2C3FCC
4C318C
0C318C
0C318C
0C3F8C
0C318C
0C318C
0C318C
0C3F8C
0C110C
0C007C
0C001C
0C0018
000000
ENDCHAR

STARTCHAR A541
ENCODING 42305
SWIDTH 960 0
DWIDTH 24 0
BBX 24 24 0 -6
BITMAP
000000
061800
071C20
063FF0
063060
0C60C0
0CC18C
1DFFFE
1CC000
3CC818
2CCFFC
4CCC18
0CCC18
0CCC18
0CCC18
0CCCF8
0CCC38
0CCC30
0CCC04
0C8C04
0C8C0C
0D0FFE
0E07FC
000000
ENDCHAR

STARTCHAR A542
ENCODING 42306
SWIDTH 960 0
DWIDTH 24 0
BBX 24 24 0 -6
BITMAP
000000
060300
076380
067300
066300
0C6330
0C7FF8
1CC300
1C8300
3D0308
2C031C
4DFFFE
0C0CC0
0C0CC0
0C0CC0
0C0CC0
0C0CC0
0C0CC0
0C1CC4
0C18C4
0C30CC
0C60FE
0D807C
000000
ENDCHAR

STARTCHAR A543
ENCODING 42307
SWIDTH 960 0
DWIDTH 24 0
BBX 24 24 0 -6
BITMAP
000000
060030
0700F8
0607C0
067F00
0C0300
0C0300
1C0308
1C031C
3DFFFE
2C0300
4C0300
0C0300
0C0300
0C4318
0C7FFC
0C6018
0C6018
0C6018
0C6018
0C6018
0C7FF8
0C2010
000000
ENDCHAR

STARTCHAR A544
ENCODING 42308
SWIDTH 960 0
DWIDTH 24 0
BBX 24 24 0 -6
BITMAP
000000
060300
070380
060300
060600
0C4830
0C7FF8
1C6DB0
1C6DB0
3C6DB0
2C6DB0
4C6DB0
0C6DB0
0C6DB0
0C6DB0
0C6DB0
0C6DB0
0C6DB0
0C6DB0
0C6DB0
0C6DB4
0DFFFE
0C0000
000000
ENDCHAR

STARTCHAR A545
ENCODING 42309
SWIDTH 960 0
DWIDTH 24 0
BBX 24 24 0 -6
BITMAP
000000
060200
070700
060C00
065860
0C7FF0
0C6060
1C6C60
1C6660
3C6360
2C6360
4C606C
0FFFFE
0C6060
0C6C60
0C6660
0C6360
0C6360
0C6060
0C4060
0CC3E0
0C80E0
0D00C0
000000
ENDCHAR

STARTCHAR A546
ENCODING 42310
SWIDTH 960 0
DWIDTH 24 0
BBX 24 24 0 -6
BITMAP
000000
060400
070E00
061820
063018
0C601C
0CFFFC
1C7E0C
1C0300
3C6300
2C7300
4C6330
0C7FF8
0CC300
0D0300
0C030C
0DFFFE
0C0300
0C0300
0C0300
0C0300
0C0300
0C0300
000000
ENDCHAR

STARTCHAR A547
ENCODING 42311
SWIDTH 960 0
DWIDTH 24 0
BBX 24 24 0 -6
BITMAP
000000
066000
077000
066000
066C8C
0C6EFE
0C6CCC
1FFFCC
1C6CCC
3C6CCC
2C6CCC
4C6CCC
0C6CCC
0CCCCC
0CCCCC
0CCCCC
0CD8CC
0C78CC
0C38CC
0C3CCC
0C6EFC
0CC648
0D0000
000000
ENDCHAR

STARTCHAR A548
ENCODING 42312
SWIDTH 960 0
DWIDTH 24 0
BBX 24 24 0 -6
BITMAP
000000
060C00
070700
064308
067FFC
0CC01E
0DC030
1D8C00
1C0E00
3C0C60
2C0C70
4C0C64
0DFFFE
0C1860
0C1860
0C18C0
0C30C0
0C3D80
0C0700
0C07C0
0C0CF0
0C3038
0CC01C
000000
ENDCHAR

STARTCHAR A549
ENCODING 42313
SWIDTH 960 0
DWIDTH 24 0
BBX 24 24 0 -6
BITMAP
000000
060600
070380
06418C
067FFE
0C6060
0C60F0
1C63E0
1C6F80
3C6180
2C6180
4C6180
0C618C
0C7FFE
0C6180
0C6180
0C6180
0C6180
0C6184
0C4184
0CC18C
0C81FE
0D00FC
000000
ENDCHAR

STARTCHAR A54A
ENCODING 42314
SWIDTH 960 0
DWIDTH 24 0
BBX 24 24 0 -6
BITMAP
000000
060008
07001C
06FFFE
060300
0C0600
0C0C00
1C980C
1CFFFE
3CCCCC
2CCCCC
4CCCCC
0CCCCC
0CCCCC
0CCCCC
0CCCCC
0CCCCC
0CCCCC
0CCCCC
0CCCCC
0CCCCC
0CCCFC
0CCCD8
000000
ENDCHAR

STARTCHAR A54B
ENCODING 42315
SWIDTH 960 0
DWIDTH 24 0
BBX 24 24 0 -6
BITMAP
000000
061800
071C00
061820
063FF0
0C3038
0C7070
1C5860
1C8CC0
3D0780
2C0380
4C07C0
0C0CF0
0C307E
0DFFFC
0C3030
0C3030
0C3030
0C3030
0C3030
0C3030
0C3FF0
0C1020
000000
ENDCHAR

STARTCHAR A54C
ENCODING 42316
SWIDTH 960 0
DWIDTH 24 0
BBX 24 24 0 -6
BITMAP
000000
060600
070700
060E00
060F00
0C1980
0C18C0
1C3060
1C6038
3CC0DE
2D3FEC
4C0000
0C0000
0C4030
0C7FF8
0C6030
0C6030
0C6030
0C6030
0C6030
0C6030
0C7FF0
0C2020
000000
ENDCHAR

STARTCHAR A54D
ENCODING 42317
SWIDTH 960 0
DWIDTH 24 0
BBX 24 24 0 -6
BITMAP
000000
100018
1FFFFC
30001E
701830
601C60
081830
061838
031860
0198C0
019B10
001838
3FFFFC
001800
009800
01DA00
01D980
0398C0
071870
0C1838
18181C
60180C
001800
000000
ENDCHAR

STARTCHAR A54E
ENCODING 42318
SWIDTH 960 0
DWIDTH 24 0
BBX 24 24 0 -6
BITMAP
000000
000300
406380
307300
386310
186338
00FFFC
00C300
018300
020308
04031C
05FFFE
0C0CC0
080CC0
180CC0
180CC0
300CC0
700CC0
3018C4
3818C4
3830CC
1860FE
01807C
000000
ENDCHAR

STARTCHAR A54F
ENCODING 42319
SWIDTH 960 0
DWIDTH 24 0
BBX 24 24 0 -6
BITMAP
000000
000600
400700
300E00
380E00
181D00
001980
0030C0
006060
00C1B8
05BFDE
06000C
0C0000
088060
18FFF0
18C060
30C060
70C060
30C060
38C060
38C060
18FFE0
004040
000000
ENDCHAR

STARTCHAR A550
ENCODING 42320
SWIDTH 960 0
DWIDTH 24 0
BBX 24 24 0 -6
BITMAP
000000
00180C
7FFC0E
18318C
1831CC
18318C
18318C
1FF18C
18318C
18318C
18318C
18318C
1FF18C
18318C
18318C
18318C
19F18C
7F318C
38300C
00300C
00307C
00301C
003018
000000
ENDCHAR

STARTCHAR A551
ENCODING 42321
SWIDTH 960 0
DWIDTH 24 0
BBX 24 24 0 -6
BITMAP
000000
03000C
03800E
03018C
0321CC
3FF18C
03018C
03018C
03018C
03118C
7FF98C
03018C
03818C
03018C
03218C
3FF18C
03018C
03018C
03000C
03380C
7FE07C
7F001C
380018
000000
ENDCHAR

STARTCHAR A552
ENCODING 42322
SWIDTH 960 0
DWIDTH 24 0
BBX 24 24 0 -6
BITMAP
000000
01800C
01C00E
0188CC
019CEC
7FFECC
0340CC
0360CC
0630CC
0FF8CC
180CCC
3017CC
7FFECC
0300CC
0300CC
0618CC
07FCCC
0218CC
00180C
00180C
00387C
01F01C
006018
000000
ENDCHAR

STARTCHAR A553
ENCODING 42323
SWIDTH 960 0
DWIDTH 24 0
BBX 24 24 0 -6
BITMAP
000000
0C000C
07000E
23318C
3FF9CC
30318C
30318C
30318C
3FF18C
30318C
30318C
30318C
3FF18C
30218C
30018C
30818C
30618C
30718C
30380C
307C0C
3F9C7C
3E0C1C
1C0018
000000
ENDCHAR

STARTCHAR A554
ENCODING 42324
SWIDTH 960 0
DWIDTH 24 0
BBX 24 24 0 -6
BITMAP
000000
198030
1DDFF8
198330
198330
198330
199330
7FFB30
198F30
198F38
19833C
199336
7FFE36
198630
198630
198430
198430
198C30
198830
319870
3193F0
21A0E0
4180C0
000000
ENDCHAR

STARTCHAR A555
ENCODING 42325
SWIDTH 960 0
DWIDTH 24 0
BBX 24 24 0 -6
BITMAP
000000
030180
0381C0
030180
030180
033180
7FF98C
030FFE
03018C
03018C
03218C
3FF18C
00018C
20318C
3FF98C
30318C
30330C
30330C
30330C
30360C
3FFC1C
1018F8
006030
000000
ENDCHAR

STARTCHAR A556
ENCODING 42326
SWIDTH 960 0
DWIDTH 24 0
BBX 24 24 0 -6
BITMAP
000000
030000
038000
03000C
07FFFE
06000C
0C180C
0E1C8C
1999CC
30D98C
40DB0C
005E0C
00184C
07FFEC
00180C
009A0C
00D98C
0198CC
03186C
06187C
001838
001BF0
0000E0
000000
ENDCHAR

STARTCHAR A557
ENCODING 42327
SWIDTH 960 0
DWIDTH 24 0
BBX 24 24 0 -6
BITMAP
000000
030000
038000
03000C
07FFFE
06000C
0D800C
0DC10C
19838C
31FFCC
43180C
04180C
0018CC
07FFEC
00180C
0318CC
0398EC
0318CC
0318CC
03FFDC
0100B8
0003F0
0000E0
000000
ENDCHAR

STARTCHAR A558
ENCODING 42328
SWIDTH 960 0
DWIDTH 24 0
BBX 24 24 0 -6
BITMAP
000000
000010
000038
7FFFFC
301800
301C00
303800
303600
306300
30C1C0
318370
33FFBC
3C0018
3100C0
31FFE0
3180C0
3180C0
3180C0
31FFC0
308080
300000
3FFFFE
1FFFFC
000000
ENDCHAR

STARTCHAR A559
ENCODING 42329
SWIDTH 960 0
DWIDTH 24 0
BBX 24 24 0 -6
BITMAP
000000
000008
10001C
1FFFFE
186000
187000
186020
186070
18FFF8
18C600
198600
1A0600
180618
1BFFFC
180600
198618
19C61C
198618
198618
118618
318618
21FFF8
408010
000000
ENDCHAR

STARTCHAR A55A
ENCODING 42330
SWIDTH 960 0
DWIDTH 24 0
BBX 24 24 0 -6
BITMAP
000000
000008
10001C
1FFFFE
180000
180018
1BFFFC
180C00
181800
183080
186060
18C030
19FFF8
18FE18
186600
180600
180630
19FFF8
180600
100600
300608
20061C
47FFFE
000000
ENDCHAR

STARTCHAR A55B
ENCODING 42331
SWIDTH 960 0
DWIDTH 24 0
BBX 24 24 0 -6
BITMAP
000000
000300
00018C
4300CE
7F80CC
630C1C
630E18
630C18
630C18
630C30
632C30
632C60
632C78
636CCC
636DCE
63EF86
7FEF80
26CF00
000E04
001C04
003C0C
006FFE
0187FC
000000
ENDCHAR

STARTCHAR A55C
ENCODING 42332
SWIDTH 960 0
DWIDTH 24 0
BBX 24 24 0 -6
BITMAP
000000
000300
000380
430300
7F8300
630318
637FFC
630300
630300
630300
630300
63030C
63FFFE
630380
630300
630600
7F0C00
221820
003018
00600C
00FFFE
007F0E
003806
000000
ENDCHAR

STARTCHAR A55D
ENCODING 42333
SWIDTH 960 0
DWIDTH 24 0
BBX 24 24 0 -6
BITMAP
000000
001860
001C70
431860
7F9860
631860
63186C
63FFFE
631860
631860
631860
631860
631860
631860
631FE0
631860
7F1860
221860
001860
001860
001860
001FE0
000840
000000
ENDCHAR

STARTCHAR A55E
ENCODING 42334
SWIDTH 960 0
DWIDTH 24 0
BBX 24 24 0 -6
BITMAP
000000
003000
003800
46300C
7F33FE
663460
67FE60
663060
663060
663060
663260
663C60
667860
67F060
66F060
663060
7E3060
243060
003060
003060
01F3E0
0070E0
0060C0
000000
ENDCHAR

STARTCHAR A55F
ENCODING 42335
SWIDTH 960 0
DWIDTH 24 0
BBX 24 24 0 -6
BITMAP
000000
00400C
007FFE
4660C0
7F60C0
6660C0
6660C0
6668CC
666FFE
666CCC
666CCC
666CCC
666CCC
666CCC
666CFC
666CD8
7E60C0
2460C0
0060C0
0060C0
0060CC
007FFE
002000
000000
ENDCHAR

STARTCHAR A560
ENCODING 42336
SWIDTH 960 0
DWIDTH 24 0
BBX 24 24 0 -6
BITMAP
000000
000CC0
000EE0
460CC0
7F0CCC
66FFFE
660CCC
660CCC
668CCC
66FFFC
66CCC8
66CCC0
66CCCC
66FFFE
664CCC
660CCC
7E0CCC
2418CC
0018FC
0018D8
0030C0
0060C0
0180C0
000000
ENDCHAR

STARTCHAR A561
ENCODING 42337
SWIDTH 960 0
DWIDTH 24 0
BBX 24 24 0 -6
BITMAP
000000
000180
0001C0
418180
7FC180
618180
61818C
6181FE
618180
618180
618180
618180
61A18C
61BFFE
61B00C
61B00C
7FB00C
21300C
00300C
00300C
00300C
003FFC
001008
000000
ENDCHAR

STARTCHAR A562
ENCODING 42338
SWIDTH 960 0
DWIDTH 24 0
BBX 24 24 0 -6
BITMAP
000000
001018
001FFC
419818
7FD818
619818
619818
619FF8
618810
618000
61800C
61FFFE
618300
618300
618618
6187FC
7F8218
210018
000018
000038
000070
0003E0
0000C0
000000
ENDCHAR

STARTCHAR A563
ENCODING 42339
SWIDTH 960 0
DWIDTH 24 0
BBX 24 24 0 -6
BITMAP
000000
001018
001FFC
419818
7FD818
619818
619818
619818
619818
619FF8
619818
619818
619818
619818
619818
619818
7F9FF8
210810
000000
000000
000008
00001C
007FFE
000000
ENDCHAR

STARTCHAR A564
ENCODING 42340
SWIDTH 960 0
DWIDTH 24 0
BBX 24 24 0 -6
BITMAP
000000
000300
000380
430300
7FA330
633FF8
633330
633330
633330
633330
633FF0
633330
633330
633330
633334
63FFFE
7F3030
223030
003030
003030
0031F0
003070
003060
000000
ENDCHAR

STARTCHAR A565
ENCODING 42341
SWIDTH 960 0
DWIDTH 24 0
BBX 24 24 0 -6
BITMAP
000000
000000
00800C
46FFFE
7FCCCC
66CCCC
66CCCC
66CCCC
66CCCC
66CCCC
66CCCC
66CCCC
66CCCC
66CCCC
66D8FC
66E06C
7EC00C
24C00C
00C00C
00FFFC
004008
000000
000000
000000
ENDCHAR

STARTCHAR A566
ENCODING 42342
SWIDTH 960 0
DWIDTH 24 0
BBX 24 24 0 -6
BITMAP
000000
000C00
000E00
431C00
7F980C
633FFE
63300C
63600C
63800C
63218C
633FCC
63318C
63318C
63318C
63318C
63318C
7F3F8C
22110C
00000C
00001C
000038
0003F0
0000E0
000000
ENDCHAR

STARTCHAR A567
ENCODING 42343
SWIDTH 960 0
DWIDTH 24 0
BBX 24 24 0 -6
BITMAP
000000
0018C0
001CE0
4618C0
7F30C0
6630CC
6667FE
6660CC
66CCCC
678ECC
67FCCC
6698CC
6618CC
6630CC
6630CC
6664CC
7EC6CC
259F8C
03F38C
01C30C
00061C
000CF8
003030
000000
ENDCHAR

STARTCHAR A568
ENCODING 42344
SWIDTH 960 0
DWIDTH 24 0
BBX 24 24 0 -6
BITMAP
000000
000300
000380
430700
7F8600
630C00
630820
631818
63300C
63600E
63FFFE
637C06
630000
63200C
633FFE
63300C
7F300C
22300C
00300C
00300C
00300C
003FFC
001008
000000
ENDCHAR

STARTCHAR A569
ENCODING 42345
SWIDTH 960 0
DWIDTH 24 0
BBX 24 24 0 -6
BITMAP
000000
000010
000038
437FFC
7F8300
630318
63631C
633318
631B30
631B20
631B40
630308
63031C
63FFFE
630300
630300
7F0300
220300
000300
000300
000300
000300
000300
000000
ENDCHAR

STARTCHAR A56A
ENCODING 42346
SWIDTH 960 0
DWIDTH 24 0
BBX 24 24 0 -6
BITMAP
000000
00400C
007FFE
43600C
7FE00C
63600C
63600C
637FFC
636188
636180
636180
63618C
637FFE
636180
636180
6360C0
7F60C0
2260C0
0060C4
006064
007E7C
00783E
00301C
000000
ENDCHAR

STARTCHAR A56B
ENCODING 42347
SWIDTH 960 0
DWIDTH 24 0
BBX 24 24 0 -6
BITMAP
000000
000300
000380
430300
7F8308
63031C
63FFFE
630780
630780
630780
630FC0
630F60
631B70
633338
63631E
63830C
7F0330
227FF8
000300
000300
000300
000300
000300
000000
ENDCHAR

STARTCHAR A56C
ENCODING 42348
SWIDTH 960 0
DWIDTH 24 0
BBX 24 24 0 -6
BITMAP
000000
000600
000700
430608
7F8E1C
63FFFE
630D80
631980
631980
63318C
637FFE
63F18C
63318C
63318C
63318C
63318C
7F318C
22318C
0031FC
003198
000180
000180
000180
000000
ENDCHAR

STARTCHAR A56D
ENCODING 42349
SWIDTH 960 0
DWIDTH 24 0
BBX 24 24 0 -6
BITMAP
000000
002018
003FFC
433018
7FB018
633418
633318
633198
633198
633018
63FFFE
636030
636830
636630
636330
636330
7F6030
226034
007FFE
002030
000070
0007E0
0001C0
000000
ENDCHAR

STARTCHAR A56E
ENCODING 42350
SWIDTH 960 0
DWIDTH 24 0
BBX 24 24 0 -6
BITMAP
000000
000070
0043F8
437FC0
7F6180
636180
636180
636188
63619C
637FFE
636180
636180
6360C0
6360C0
6360C0
6360C0
7F60C0
226064
006364
007E3C
00781E
00300C
003FF8
000000
ENDCHAR

STARTCHAR A56F
ENCODING 42351
SWIDTH 960 0
DWIDTH 24 0
BBX 24 24 0 -6
BITMAP
000000
000300
000380
430700
7F8680
630CC0
630C60
631830
633038
6360DE
639FEC
630000
630010
633FF8
63001C
630038
7F0030
221060
000CC0
000780
000380
000180
000180
000000
ENDCHAR

STARTCHAR A570
ENCODING 42352
SWIDTH 960 0
DWIDTH 24 0
BBX 24 24 0 -6
BITMAP
000000
20000C
3FFFFE
30030C
30078C
303E0C
33F80C
30184C
3018EC
3FFFFC
30380C
303C0C
307E0C
30DB0C
3199CC
3318FC
36186C
38180C
30180C
30180C
30180C
3FFFFC
100008
000000
ENDCHAR

ENDFONT
